G04 #@! TF.GenerationSoftware,KiCad,Pcbnew,7.0.8-7.0.8~ubuntu22.04.1*
G04 #@! TF.CreationDate,2024-03-20T18:35:26+09:00*
G04 #@! TF.ProjectId,emeater,656d6561-7465-4722-9e6b-696361645f70,rev?*
G04 #@! TF.SameCoordinates,Original*
G04 #@! TF.FileFunction,Soldermask,Bot*
G04 #@! TF.FilePolarity,Negative*
%FSLAX46Y46*%
G04 Gerber Fmt 4.6, Leading zero omitted, Abs format (unit mm)*
G04 Created by KiCad (PCBNEW 7.0.8-7.0.8~ubuntu22.04.1) date 2024-03-20 18:35:26*
%MOMM*%
%LPD*%
G01*
G04 APERTURE LIST*
G04 APERTURE END LIST*
G36*
X106065909Y-117205033D02*
G01*
X106134514Y-117205033D01*
X106196466Y-117214370D01*
X106256127Y-117218638D01*
X106326856Y-117234024D01*
X106400538Y-117245130D01*
X106454679Y-117261830D01*
X106507023Y-117273217D01*
X106580779Y-117300726D01*
X106657614Y-117324427D01*
X106703267Y-117346412D01*
X106747614Y-117362953D01*
X106822318Y-117403744D01*
X106900000Y-117441154D01*
X106936888Y-117466304D01*
X106972981Y-117486012D01*
X107046319Y-117540912D01*
X107122282Y-117592703D01*
X107150589Y-117618968D01*
X107178537Y-117639890D01*
X107247997Y-117709350D01*
X107319493Y-117775689D01*
X107339799Y-117801152D01*
X107360109Y-117821462D01*
X107423099Y-117905607D01*
X107487230Y-117986024D01*
X107500482Y-118008978D01*
X107513987Y-118027018D01*
X107567856Y-118125672D01*
X107621744Y-118219009D01*
X107629213Y-118238040D01*
X107637046Y-118252385D01*
X107679207Y-118365423D01*
X107720031Y-118469441D01*
X107723227Y-118483446D01*
X107726782Y-118492976D01*
X107754809Y-118621816D01*
X107779895Y-118731724D01*
X107780513Y-118739975D01*
X107781361Y-118743872D01*
X107792985Y-118906395D01*
X107800000Y-119000000D01*
X107792984Y-119093611D01*
X107781361Y-119256127D01*
X107780513Y-119260022D01*
X107779895Y-119268276D01*
X107754804Y-119378203D01*
X107726782Y-119507023D01*
X107723228Y-119516551D01*
X107720031Y-119530559D01*
X107679199Y-119634595D01*
X107637046Y-119747614D01*
X107629214Y-119761956D01*
X107621744Y-119780991D01*
X107567846Y-119874344D01*
X107513987Y-119972981D01*
X107500485Y-119991016D01*
X107487230Y-120013976D01*
X107423087Y-120094407D01*
X107360109Y-120178537D01*
X107339803Y-120198842D01*
X107319493Y-120224311D01*
X107247984Y-120290661D01*
X107178537Y-120360109D01*
X107150595Y-120381026D01*
X107122282Y-120407297D01*
X107046304Y-120459097D01*
X106972981Y-120513987D01*
X106936895Y-120533690D01*
X106900000Y-120558846D01*
X106822303Y-120596262D01*
X106747614Y-120637046D01*
X106703276Y-120653583D01*
X106657614Y-120675573D01*
X106580764Y-120699277D01*
X106507023Y-120726782D01*
X106454690Y-120738166D01*
X106400538Y-120754870D01*
X106326841Y-120765978D01*
X106256127Y-120781361D01*
X106196478Y-120785627D01*
X106134514Y-120794967D01*
X106065895Y-120794967D01*
X106000000Y-120799680D01*
X105934105Y-120794967D01*
X105865486Y-120794967D01*
X105803521Y-120785627D01*
X105743872Y-120781361D01*
X105673155Y-120765977D01*
X105599462Y-120754870D01*
X105545311Y-120738166D01*
X105492976Y-120726782D01*
X105419229Y-120699276D01*
X105342386Y-120675573D01*
X105296726Y-120653584D01*
X105252385Y-120637046D01*
X105177688Y-120596258D01*
X105100000Y-120558846D01*
X105063108Y-120533693D01*
X105027018Y-120513987D01*
X104953684Y-120459089D01*
X104877718Y-120407297D01*
X104849409Y-120381029D01*
X104821462Y-120360109D01*
X104752002Y-120290649D01*
X104680507Y-120224311D01*
X104660200Y-120198847D01*
X104639890Y-120178537D01*
X104576895Y-120094387D01*
X104512770Y-120013976D01*
X104499517Y-119991022D01*
X104486012Y-119972981D01*
X104432135Y-119874312D01*
X104378256Y-119780991D01*
X104370788Y-119761962D01*
X104362953Y-119747614D01*
X104320780Y-119634544D01*
X104279969Y-119530559D01*
X104276773Y-119516558D01*
X104273217Y-119507023D01*
X104245173Y-119378110D01*
X104220105Y-119268276D01*
X104219487Y-119260029D01*
X104218638Y-119256127D01*
X104206993Y-119093319D01*
X104200000Y-119000000D01*
X104206992Y-118906688D01*
X104218638Y-118743872D01*
X104219487Y-118739968D01*
X104220105Y-118731724D01*
X104245169Y-118621910D01*
X104273217Y-118492976D01*
X104276773Y-118483439D01*
X104279969Y-118469441D01*
X104320772Y-118365474D01*
X104362953Y-118252385D01*
X104370789Y-118238033D01*
X104378256Y-118219009D01*
X104432125Y-118125704D01*
X104486012Y-118027018D01*
X104499520Y-118008972D01*
X104512770Y-117986024D01*
X104576883Y-117905628D01*
X104639890Y-117821462D01*
X104660204Y-117801147D01*
X104680507Y-117775689D01*
X104751988Y-117709363D01*
X104821462Y-117639890D01*
X104849414Y-117618964D01*
X104877718Y-117592703D01*
X104953669Y-117540920D01*
X105027018Y-117486012D01*
X105063115Y-117466301D01*
X105100000Y-117441154D01*
X105177672Y-117403748D01*
X105252385Y-117362953D01*
X105296735Y-117346410D01*
X105342386Y-117324427D01*
X105419214Y-117300728D01*
X105492976Y-117273217D01*
X105545322Y-117261829D01*
X105599462Y-117245130D01*
X105673140Y-117234024D01*
X105743872Y-117218638D01*
X105803534Y-117214370D01*
X105865486Y-117205033D01*
X105934091Y-117205033D01*
X106000000Y-117200319D01*
X106065909Y-117205033D01*
G37*
G36*
X144065909Y-117205033D02*
G01*
X144134514Y-117205033D01*
X144196466Y-117214370D01*
X144256127Y-117218638D01*
X144326856Y-117234024D01*
X144400538Y-117245130D01*
X144454679Y-117261830D01*
X144507023Y-117273217D01*
X144580779Y-117300726D01*
X144657614Y-117324427D01*
X144703267Y-117346412D01*
X144747614Y-117362953D01*
X144822318Y-117403744D01*
X144900000Y-117441154D01*
X144936888Y-117466304D01*
X144972981Y-117486012D01*
X145046319Y-117540912D01*
X145122282Y-117592703D01*
X145150589Y-117618968D01*
X145178537Y-117639890D01*
X145247997Y-117709350D01*
X145319493Y-117775689D01*
X145339799Y-117801152D01*
X145360109Y-117821462D01*
X145423099Y-117905607D01*
X145487230Y-117986024D01*
X145500482Y-118008978D01*
X145513987Y-118027018D01*
X145567856Y-118125672D01*
X145621744Y-118219009D01*
X145629213Y-118238040D01*
X145637046Y-118252385D01*
X145679207Y-118365423D01*
X145720031Y-118469441D01*
X145723227Y-118483446D01*
X145726782Y-118492976D01*
X145754809Y-118621816D01*
X145779895Y-118731724D01*
X145780513Y-118739975D01*
X145781361Y-118743872D01*
X145792985Y-118906395D01*
X145800000Y-119000000D01*
X145792984Y-119093611D01*
X145781361Y-119256127D01*
X145780513Y-119260022D01*
X145779895Y-119268276D01*
X145754804Y-119378203D01*
X145726782Y-119507023D01*
X145723228Y-119516551D01*
X145720031Y-119530559D01*
X145679199Y-119634595D01*
X145637046Y-119747614D01*
X145629214Y-119761956D01*
X145621744Y-119780991D01*
X145567846Y-119874344D01*
X145513987Y-119972981D01*
X145500485Y-119991016D01*
X145487230Y-120013976D01*
X145423087Y-120094407D01*
X145360109Y-120178537D01*
X145339803Y-120198842D01*
X145319493Y-120224311D01*
X145247984Y-120290661D01*
X145178537Y-120360109D01*
X145150595Y-120381026D01*
X145122282Y-120407297D01*
X145046304Y-120459097D01*
X144972981Y-120513987D01*
X144936895Y-120533690D01*
X144900000Y-120558846D01*
X144822303Y-120596262D01*
X144747614Y-120637046D01*
X144703276Y-120653583D01*
X144657614Y-120675573D01*
X144580764Y-120699277D01*
X144507023Y-120726782D01*
X144454690Y-120738166D01*
X144400538Y-120754870D01*
X144326841Y-120765978D01*
X144256127Y-120781361D01*
X144196478Y-120785627D01*
X144134514Y-120794967D01*
X144065895Y-120794967D01*
X144000000Y-120799680D01*
X143934105Y-120794967D01*
X143865486Y-120794967D01*
X143803521Y-120785627D01*
X143743872Y-120781361D01*
X143673155Y-120765977D01*
X143599462Y-120754870D01*
X143545311Y-120738166D01*
X143492976Y-120726782D01*
X143419229Y-120699276D01*
X143342386Y-120675573D01*
X143296726Y-120653584D01*
X143252385Y-120637046D01*
X143177688Y-120596258D01*
X143100000Y-120558846D01*
X143063108Y-120533693D01*
X143027018Y-120513987D01*
X142953684Y-120459089D01*
X142877718Y-120407297D01*
X142849409Y-120381029D01*
X142821462Y-120360109D01*
X142752002Y-120290649D01*
X142680507Y-120224311D01*
X142660200Y-120198847D01*
X142639890Y-120178537D01*
X142576895Y-120094387D01*
X142512770Y-120013976D01*
X142499517Y-119991022D01*
X142486012Y-119972981D01*
X142432135Y-119874312D01*
X142378256Y-119780991D01*
X142370788Y-119761962D01*
X142362953Y-119747614D01*
X142320780Y-119634544D01*
X142279969Y-119530559D01*
X142276773Y-119516558D01*
X142273217Y-119507023D01*
X142245173Y-119378110D01*
X142220105Y-119268276D01*
X142219487Y-119260029D01*
X142218638Y-119256127D01*
X142206993Y-119093319D01*
X142200000Y-119000000D01*
X142206992Y-118906688D01*
X142218638Y-118743872D01*
X142219487Y-118739968D01*
X142220105Y-118731724D01*
X142245169Y-118621910D01*
X142273217Y-118492976D01*
X142276773Y-118483439D01*
X142279969Y-118469441D01*
X142320772Y-118365474D01*
X142362953Y-118252385D01*
X142370789Y-118238033D01*
X142378256Y-118219009D01*
X142432125Y-118125704D01*
X142486012Y-118027018D01*
X142499520Y-118008972D01*
X142512770Y-117986024D01*
X142576883Y-117905628D01*
X142639890Y-117821462D01*
X142660204Y-117801147D01*
X142680507Y-117775689D01*
X142751988Y-117709363D01*
X142821462Y-117639890D01*
X142849414Y-117618964D01*
X142877718Y-117592703D01*
X142953669Y-117540920D01*
X143027018Y-117486012D01*
X143063115Y-117466301D01*
X143100000Y-117441154D01*
X143177672Y-117403748D01*
X143252385Y-117362953D01*
X143296735Y-117346410D01*
X143342386Y-117324427D01*
X143419214Y-117300728D01*
X143492976Y-117273217D01*
X143545322Y-117261829D01*
X143599462Y-117245130D01*
X143673140Y-117234024D01*
X143743872Y-117218638D01*
X143803534Y-117214370D01*
X143865486Y-117205033D01*
X143934091Y-117205033D01*
X144000000Y-117200319D01*
X144065909Y-117205033D01*
G37*
G36*
X105040308Y-104169574D02*
G01*
X105087281Y-104169574D01*
X105127840Y-104178195D01*
X105162784Y-104181637D01*
X105206684Y-104194954D01*
X105258029Y-104205868D01*
X105290885Y-104220496D01*
X105319309Y-104229119D01*
X105364478Y-104253262D01*
X105417500Y-104276869D01*
X105442149Y-104294777D01*
X105463564Y-104306224D01*
X105507245Y-104342073D01*
X105558724Y-104379474D01*
X105575439Y-104398038D01*
X105590006Y-104409993D01*
X105629151Y-104457691D01*
X105675529Y-104509199D01*
X105685271Y-104526073D01*
X105693775Y-104536435D01*
X105725232Y-104595287D01*
X105762810Y-104660375D01*
X105767132Y-104673679D01*
X105770880Y-104680690D01*
X105791542Y-104748805D01*
X105816753Y-104826394D01*
X105817640Y-104834835D01*
X105818362Y-104837215D01*
X105825385Y-104908526D01*
X105835000Y-105000000D01*
X105825384Y-105091481D01*
X105818362Y-105162784D01*
X105817640Y-105165162D01*
X105816753Y-105173606D01*
X105791538Y-105251208D01*
X105770880Y-105319309D01*
X105767133Y-105326317D01*
X105762810Y-105339625D01*
X105725224Y-105404724D01*
X105693775Y-105463564D01*
X105685273Y-105473923D01*
X105675529Y-105490801D01*
X105629142Y-105542318D01*
X105590006Y-105590006D01*
X105575443Y-105601957D01*
X105558724Y-105620526D01*
X105507235Y-105657934D01*
X105463564Y-105693775D01*
X105442154Y-105705218D01*
X105417500Y-105723131D01*
X105364467Y-105746742D01*
X105319309Y-105770880D01*
X105290892Y-105779500D01*
X105258029Y-105794132D01*
X105206673Y-105805048D01*
X105162784Y-105818362D01*
X105127849Y-105821802D01*
X105087281Y-105830426D01*
X105040297Y-105830426D01*
X105000000Y-105834395D01*
X104959702Y-105830426D01*
X104912719Y-105830426D01*
X104872150Y-105821802D01*
X104837215Y-105818362D01*
X104793323Y-105805047D01*
X104741971Y-105794132D01*
X104709109Y-105779500D01*
X104680690Y-105770880D01*
X104635526Y-105746739D01*
X104582500Y-105723131D01*
X104557848Y-105705220D01*
X104536435Y-105693775D01*
X104492756Y-105657928D01*
X104441276Y-105620526D01*
X104424559Y-105601960D01*
X104409993Y-105590006D01*
X104370846Y-105542306D01*
X104324471Y-105490801D01*
X104314729Y-105473927D01*
X104306224Y-105463564D01*
X104274761Y-105404701D01*
X104237190Y-105339625D01*
X104232867Y-105326322D01*
X104229119Y-105319309D01*
X104208446Y-105251162D01*
X104183247Y-105173606D01*
X104182360Y-105165167D01*
X104181637Y-105162784D01*
X104174599Y-105091330D01*
X104165000Y-105000000D01*
X104174598Y-104908677D01*
X104181637Y-104837215D01*
X104182360Y-104834830D01*
X104183247Y-104826394D01*
X104208441Y-104748852D01*
X104229119Y-104680690D01*
X104232868Y-104673674D01*
X104237190Y-104660375D01*
X104274754Y-104595311D01*
X104306224Y-104536435D01*
X104314731Y-104526069D01*
X104324471Y-104509199D01*
X104370837Y-104457704D01*
X104409993Y-104409993D01*
X104424563Y-104398035D01*
X104441276Y-104379474D01*
X104492745Y-104342079D01*
X104536435Y-104306224D01*
X104557853Y-104294775D01*
X104582500Y-104276869D01*
X104635515Y-104253265D01*
X104680690Y-104229119D01*
X104709116Y-104220495D01*
X104741971Y-104205868D01*
X104793311Y-104194955D01*
X104837215Y-104181637D01*
X104872159Y-104178195D01*
X104912719Y-104169574D01*
X104959692Y-104169574D01*
X105000000Y-104165604D01*
X105040308Y-104169574D01*
G37*
G36*
X103345902Y-101052327D02*
G01*
X103387305Y-101054300D01*
X103388202Y-101054472D01*
X103396110Y-101054874D01*
X103484001Y-101072936D01*
X103567484Y-101089026D01*
X103572958Y-101091217D01*
X103584395Y-101093568D01*
X103661787Y-101126779D01*
X103735053Y-101156111D01*
X103744931Y-101162459D01*
X103761037Y-101169371D01*
X103825487Y-101214229D01*
X103886901Y-101253698D01*
X103899627Y-101265833D01*
X103918804Y-101279180D01*
X103968929Y-101331911D01*
X104017533Y-101378255D01*
X104031121Y-101397337D01*
X104051237Y-101418499D01*
X104086662Y-101475334D01*
X104122229Y-101525281D01*
X104134384Y-101551898D01*
X104152914Y-101581626D01*
X104174163Y-101639000D01*
X104197212Y-101689470D01*
X104205485Y-101723571D01*
X104219673Y-101761880D01*
X104228059Y-101816624D01*
X104239768Y-101864886D01*
X104241714Y-101905757D01*
X104248781Y-101951883D01*
X104246269Y-102001395D01*
X104248355Y-102045172D01*
X104241703Y-102091434D01*
X104239045Y-102143856D01*
X104228074Y-102186225D01*
X104222667Y-102223839D01*
X104205475Y-102273511D01*
X104190865Y-102329940D01*
X104174155Y-102364004D01*
X104163632Y-102394410D01*
X104134432Y-102444984D01*
X104106212Y-102502516D01*
X104086555Y-102527910D01*
X104073385Y-102550722D01*
X104031331Y-102599253D01*
X103988553Y-102654519D01*
X103968602Y-102671645D01*
X103955181Y-102687135D01*
X103900118Y-102730437D01*
X103842705Y-102779725D01*
X103824827Y-102789648D01*
X103813299Y-102798714D01*
X103745794Y-102833514D01*
X103674638Y-102873010D01*
X103660704Y-102877381D01*
X103652871Y-102881420D01*
X103574336Y-102904479D01*
X103491234Y-102930553D01*
X103482519Y-102931439D01*
X103479680Y-102932273D01*
X103391745Y-102940670D01*
X103300000Y-102950000D01*
X103294045Y-102950000D01*
X102782967Y-102950000D01*
X102780000Y-102950000D01*
X102733929Y-102947663D01*
X102692694Y-102945699D01*
X102691803Y-102945527D01*
X102683890Y-102945126D01*
X102595935Y-102927050D01*
X102512515Y-102910973D01*
X102507044Y-102908782D01*
X102495605Y-102906432D01*
X102418192Y-102873211D01*
X102344946Y-102843888D01*
X102335069Y-102837541D01*
X102318963Y-102830629D01*
X102254505Y-102785765D01*
X102193098Y-102746301D01*
X102180372Y-102734167D01*
X102161196Y-102720820D01*
X102111070Y-102668088D01*
X102062466Y-102621744D01*
X102048877Y-102602661D01*
X102028763Y-102581501D01*
X101993339Y-102524668D01*
X101957770Y-102474718D01*
X101945613Y-102448098D01*
X101927086Y-102418374D01*
X101905838Y-102361005D01*
X101882787Y-102310529D01*
X101874512Y-102276422D01*
X101860327Y-102238120D01*
X101851941Y-102183384D01*
X101840231Y-102135113D01*
X101838283Y-102094233D01*
X101831219Y-102048117D01*
X101833729Y-101998613D01*
X101831644Y-101954827D01*
X101838297Y-101908553D01*
X101840955Y-101856144D01*
X101851922Y-101813784D01*
X101857332Y-101776160D01*
X101874528Y-101726472D01*
X101889135Y-101670060D01*
X101905840Y-101636004D01*
X101916367Y-101605589D01*
X101945576Y-101554996D01*
X101973788Y-101497484D01*
X101993438Y-101472097D01*
X102006614Y-101449277D01*
X102048684Y-101400725D01*
X102091447Y-101345481D01*
X102111389Y-101328360D01*
X102124818Y-101312864D01*
X102179906Y-101269541D01*
X102237295Y-101220275D01*
X102255165Y-101210356D01*
X102266700Y-101201285D01*
X102334243Y-101166463D01*
X102405362Y-101126990D01*
X102419288Y-101122620D01*
X102427128Y-101118579D01*
X102505728Y-101095500D01*
X102588766Y-101069447D01*
X102597473Y-101068561D01*
X102600319Y-101067726D01*
X102688347Y-101059320D01*
X102780000Y-101050000D01*
X103300000Y-101050000D01*
X103345902Y-101052327D01*
G37*
G36*
X103345902Y-98052327D02*
G01*
X103387305Y-98054300D01*
X103388202Y-98054472D01*
X103396110Y-98054874D01*
X103484001Y-98072936D01*
X103567484Y-98089026D01*
X103572958Y-98091217D01*
X103584395Y-98093568D01*
X103661787Y-98126779D01*
X103735053Y-98156111D01*
X103744931Y-98162459D01*
X103761037Y-98169371D01*
X103825487Y-98214229D01*
X103886901Y-98253698D01*
X103899627Y-98265833D01*
X103918804Y-98279180D01*
X103968929Y-98331911D01*
X104017533Y-98378255D01*
X104031121Y-98397337D01*
X104051237Y-98418499D01*
X104086662Y-98475334D01*
X104122229Y-98525281D01*
X104134384Y-98551898D01*
X104152914Y-98581626D01*
X104174163Y-98639000D01*
X104197212Y-98689470D01*
X104205485Y-98723571D01*
X104219673Y-98761880D01*
X104228059Y-98816624D01*
X104239768Y-98864886D01*
X104241714Y-98905757D01*
X104248781Y-98951883D01*
X104246269Y-99001395D01*
X104248355Y-99045172D01*
X104241703Y-99091434D01*
X104239045Y-99143856D01*
X104228074Y-99186225D01*
X104222667Y-99223839D01*
X104205475Y-99273511D01*
X104190865Y-99329940D01*
X104174155Y-99364004D01*
X104163632Y-99394410D01*
X104134432Y-99444984D01*
X104106212Y-99502516D01*
X104086555Y-99527910D01*
X104073385Y-99550722D01*
X104031331Y-99599253D01*
X103988553Y-99654519D01*
X103968602Y-99671645D01*
X103955181Y-99687135D01*
X103900118Y-99730437D01*
X103842705Y-99779725D01*
X103824827Y-99789648D01*
X103813299Y-99798714D01*
X103745794Y-99833514D01*
X103674638Y-99873010D01*
X103660704Y-99877381D01*
X103652871Y-99881420D01*
X103574336Y-99904479D01*
X103491234Y-99930553D01*
X103482519Y-99931439D01*
X103479680Y-99932273D01*
X103391745Y-99940670D01*
X103300000Y-99950000D01*
X103294045Y-99950000D01*
X102782967Y-99950000D01*
X102780000Y-99950000D01*
X102733929Y-99947663D01*
X102692694Y-99945699D01*
X102691803Y-99945527D01*
X102683890Y-99945126D01*
X102595935Y-99927050D01*
X102512515Y-99910973D01*
X102507044Y-99908782D01*
X102495605Y-99906432D01*
X102418192Y-99873211D01*
X102344946Y-99843888D01*
X102335069Y-99837541D01*
X102318963Y-99830629D01*
X102254505Y-99785765D01*
X102193098Y-99746301D01*
X102180372Y-99734167D01*
X102161196Y-99720820D01*
X102111070Y-99668088D01*
X102062466Y-99621744D01*
X102048877Y-99602661D01*
X102028763Y-99581501D01*
X101993339Y-99524668D01*
X101957770Y-99474718D01*
X101945613Y-99448098D01*
X101927086Y-99418374D01*
X101905838Y-99361005D01*
X101882787Y-99310529D01*
X101874512Y-99276422D01*
X101860327Y-99238120D01*
X101851941Y-99183384D01*
X101840231Y-99135113D01*
X101838283Y-99094233D01*
X101831219Y-99048117D01*
X101833729Y-98998613D01*
X101831644Y-98954827D01*
X101838297Y-98908553D01*
X101840955Y-98856144D01*
X101851922Y-98813784D01*
X101857332Y-98776160D01*
X101874528Y-98726472D01*
X101889135Y-98670060D01*
X101905840Y-98636004D01*
X101916367Y-98605589D01*
X101945576Y-98554996D01*
X101973788Y-98497484D01*
X101993438Y-98472097D01*
X102006614Y-98449277D01*
X102048684Y-98400725D01*
X102091447Y-98345481D01*
X102111389Y-98328360D01*
X102124818Y-98312864D01*
X102179906Y-98269541D01*
X102237295Y-98220275D01*
X102255165Y-98210356D01*
X102266700Y-98201285D01*
X102334243Y-98166463D01*
X102405362Y-98126990D01*
X102419288Y-98122620D01*
X102427128Y-98118579D01*
X102505728Y-98095500D01*
X102588766Y-98069447D01*
X102597473Y-98068561D01*
X102600319Y-98067726D01*
X102688347Y-98059320D01*
X102780000Y-98050000D01*
X103300000Y-98050000D01*
X103345902Y-98052327D01*
G37*
G36*
X103883659Y-95057845D02*
G01*
X103903122Y-95064655D01*
X103916190Y-95066376D01*
X103960551Y-95084750D01*
X104010270Y-95102148D01*
X104020140Y-95109433D01*
X104024460Y-95111222D01*
X104072171Y-95147832D01*
X104118198Y-95181802D01*
X104152172Y-95227836D01*
X104188777Y-95275539D01*
X104190565Y-95279857D01*
X104197852Y-95289730D01*
X104215252Y-95339457D01*
X104233623Y-95383809D01*
X104235343Y-95396873D01*
X104242155Y-95416341D01*
X104249999Y-95500002D01*
X104249999Y-95508189D01*
X104250000Y-95508197D01*
X104250000Y-96491802D01*
X104250000Y-96499999D01*
X104242155Y-96583659D01*
X104235342Y-96603126D01*
X104233623Y-96616190D01*
X104215254Y-96660536D01*
X104197852Y-96710270D01*
X104190564Y-96720143D01*
X104188777Y-96724460D01*
X104152192Y-96772137D01*
X104118198Y-96818198D01*
X104072137Y-96852192D01*
X104024460Y-96888777D01*
X104020143Y-96890564D01*
X104010270Y-96897852D01*
X103960536Y-96915254D01*
X103916190Y-96933623D01*
X103903126Y-96935342D01*
X103883659Y-96942155D01*
X103799998Y-96949999D01*
X103791810Y-96949999D01*
X103791803Y-96950000D01*
X102288197Y-96950000D01*
X102288196Y-96949999D01*
X102280001Y-96950000D01*
X102196341Y-96942155D01*
X102176873Y-96935343D01*
X102163809Y-96933623D01*
X102119457Y-96915252D01*
X102069730Y-96897852D01*
X102059857Y-96890565D01*
X102055539Y-96888777D01*
X102007836Y-96852172D01*
X101961802Y-96818198D01*
X101927832Y-96772171D01*
X101891222Y-96724460D01*
X101889433Y-96720140D01*
X101882148Y-96710270D01*
X101864750Y-96660551D01*
X101846376Y-96616190D01*
X101844655Y-96603122D01*
X101837845Y-96583659D01*
X101830001Y-96499998D01*
X101830000Y-96491809D01*
X101830000Y-96491802D01*
X101830000Y-95508197D01*
X101830000Y-95508196D01*
X101830000Y-95500001D01*
X101837845Y-95416341D01*
X101844655Y-95396877D01*
X101846376Y-95383809D01*
X101864753Y-95339441D01*
X101882148Y-95289730D01*
X101889432Y-95279860D01*
X101891222Y-95275539D01*
X101927852Y-95227802D01*
X101961802Y-95181802D01*
X102007802Y-95147852D01*
X102055539Y-95111222D01*
X102059860Y-95109432D01*
X102069730Y-95102148D01*
X102119441Y-95084753D01*
X102163809Y-95066376D01*
X102176877Y-95064655D01*
X102196341Y-95057845D01*
X102280002Y-95050001D01*
X102288189Y-95050000D01*
X102288197Y-95050000D01*
X103791803Y-95050000D01*
X103799999Y-95050000D01*
X103883659Y-95057845D01*
G37*
G36*
X108049130Y-93810000D02*
G01*
X108092663Y-93810000D01*
X108141148Y-93819063D01*
X108196034Y-93824469D01*
X108237725Y-93837115D01*
X108274837Y-93844053D01*
X108326234Y-93863964D01*
X108384535Y-93881650D01*
X108417850Y-93899457D01*
X108447650Y-93911002D01*
X108499423Y-93943059D01*
X108558259Y-93974507D01*
X108582979Y-93994794D01*
X108605216Y-94008563D01*
X108654491Y-94053483D01*
X108710528Y-94099472D01*
X108727133Y-94119705D01*
X108742173Y-94133416D01*
X108785829Y-94191226D01*
X108835493Y-94251741D01*
X108845097Y-94269709D01*
X108853860Y-94281313D01*
X108888729Y-94351340D01*
X108928350Y-94425465D01*
X108932574Y-94439392D01*
X108936467Y-94447209D01*
X108959460Y-94528022D01*
X108985531Y-94613966D01*
X108986387Y-94622661D01*
X108987184Y-94625461D01*
X108995462Y-94714799D01*
X109004839Y-94810000D01*
X108995461Y-94905209D01*
X108987184Y-94994538D01*
X108986387Y-94997337D01*
X108985531Y-95006034D01*
X108959455Y-95091992D01*
X108936467Y-95172790D01*
X108932575Y-95180604D01*
X108928350Y-95194535D01*
X108888722Y-95268673D01*
X108853860Y-95338686D01*
X108845098Y-95350287D01*
X108835493Y-95368259D01*
X108785820Y-95428785D01*
X108742173Y-95486583D01*
X108727136Y-95500290D01*
X108710528Y-95520528D01*
X108654480Y-95566525D01*
X108605216Y-95611436D01*
X108582984Y-95625201D01*
X108558259Y-95645493D01*
X108499412Y-95676947D01*
X108447650Y-95708997D01*
X108417857Y-95720538D01*
X108384535Y-95738350D01*
X108326222Y-95756038D01*
X108274837Y-95775946D01*
X108237732Y-95782882D01*
X108196034Y-95795531D01*
X108141145Y-95800937D01*
X108092663Y-95810000D01*
X108049130Y-95810000D01*
X108000000Y-95814839D01*
X107950870Y-95810000D01*
X107907337Y-95810000D01*
X107858854Y-95800937D01*
X107803966Y-95795531D01*
X107762269Y-95782882D01*
X107725162Y-95775946D01*
X107673772Y-95756037D01*
X107615465Y-95738350D01*
X107582145Y-95720540D01*
X107552349Y-95708997D01*
X107500580Y-95676943D01*
X107441741Y-95645493D01*
X107417018Y-95625203D01*
X107394783Y-95611436D01*
X107345509Y-95566516D01*
X107289472Y-95520528D01*
X107272866Y-95500294D01*
X107257826Y-95486583D01*
X107214167Y-95428769D01*
X107164507Y-95368259D01*
X107154903Y-95350292D01*
X107146139Y-95338686D01*
X107111262Y-95268645D01*
X107071650Y-95194535D01*
X107067425Y-95180609D01*
X107063532Y-95172790D01*
X107040528Y-95091939D01*
X107014469Y-95006034D01*
X107013612Y-94997342D01*
X107012815Y-94994538D01*
X107004521Y-94905037D01*
X106995161Y-94810000D01*
X107004520Y-94714970D01*
X107012815Y-94625461D01*
X107013613Y-94622655D01*
X107014469Y-94613966D01*
X107040523Y-94528075D01*
X107063532Y-94447209D01*
X107067426Y-94439387D01*
X107071650Y-94425465D01*
X107111255Y-94351367D01*
X107146139Y-94281313D01*
X107154905Y-94269704D01*
X107164507Y-94251741D01*
X107214157Y-94191241D01*
X107257826Y-94133416D01*
X107272869Y-94119701D01*
X107289472Y-94099472D01*
X107345498Y-94053492D01*
X107394783Y-94008563D01*
X107417023Y-93994792D01*
X107441741Y-93974507D01*
X107500568Y-93943063D01*
X107552349Y-93911002D01*
X107582151Y-93899456D01*
X107615465Y-93881650D01*
X107673760Y-93863966D01*
X107725162Y-93844053D01*
X107762276Y-93837115D01*
X107803966Y-93824469D01*
X107858851Y-93819063D01*
X107907337Y-93810000D01*
X107950870Y-93810000D01*
X108000000Y-93805161D01*
X108049130Y-93810000D01*
G37*
G36*
X123053676Y-92754696D02*
G01*
X123103189Y-92754696D01*
X123157755Y-92763801D01*
X123217060Y-92768990D01*
X123263637Y-92781470D01*
X123306752Y-92788665D01*
X123364589Y-92808520D01*
X123427525Y-92825384D01*
X123466075Y-92843360D01*
X123501947Y-92855675D01*
X123560883Y-92887569D01*
X123625000Y-92917468D01*
X123655185Y-92938603D01*
X123683448Y-92953899D01*
X123740977Y-92998676D01*
X123803485Y-93042444D01*
X123825515Y-93064474D01*
X123846312Y-93080661D01*
X123899736Y-93138695D01*
X123957556Y-93196515D01*
X123972149Y-93217357D01*
X123986086Y-93232496D01*
X124032585Y-93303668D01*
X124082532Y-93375000D01*
X124090868Y-93392876D01*
X124098965Y-93405270D01*
X124135719Y-93489060D01*
X124174616Y-93572475D01*
X124178238Y-93585993D01*
X124181867Y-93594266D01*
X124206165Y-93690218D01*
X124231010Y-93782940D01*
X124231730Y-93791172D01*
X124232529Y-93794327D01*
X124241889Y-93907296D01*
X124250000Y-94000000D01*
X124241888Y-94092711D01*
X124232529Y-94205672D01*
X124231730Y-94208825D01*
X124231010Y-94217060D01*
X124206160Y-94309798D01*
X124181867Y-94405733D01*
X124178238Y-94414004D01*
X124174616Y-94427525D01*
X124135711Y-94510955D01*
X124098965Y-94594729D01*
X124090869Y-94607119D01*
X124082532Y-94625000D01*
X124032575Y-94696345D01*
X123986086Y-94767503D01*
X123972152Y-94782638D01*
X123957556Y-94803485D01*
X123899725Y-94861315D01*
X123846312Y-94919338D01*
X123825519Y-94935521D01*
X123803485Y-94957556D01*
X123740964Y-95001332D01*
X123683448Y-95046100D01*
X123655191Y-95061391D01*
X123625000Y-95082532D01*
X123560870Y-95112436D01*
X123501947Y-95144324D01*
X123466083Y-95156635D01*
X123427525Y-95174616D01*
X123364575Y-95191483D01*
X123306752Y-95211334D01*
X123263645Y-95218527D01*
X123217060Y-95231010D01*
X123157751Y-95236198D01*
X123103189Y-95245304D01*
X123053676Y-95245304D01*
X123000000Y-95250000D01*
X122946324Y-95245304D01*
X122896811Y-95245304D01*
X122842247Y-95236198D01*
X122782940Y-95231010D01*
X122736356Y-95218527D01*
X122693247Y-95211334D01*
X122635419Y-95191481D01*
X122572475Y-95174616D01*
X122533918Y-95156637D01*
X122498052Y-95144324D01*
X122439122Y-95112432D01*
X122375000Y-95082532D01*
X122344811Y-95061394D01*
X122316551Y-95046100D01*
X122259025Y-95001325D01*
X122196515Y-94957556D01*
X122174483Y-94935524D01*
X122153687Y-94919338D01*
X122100262Y-94861303D01*
X122042444Y-94803485D01*
X122027850Y-94782642D01*
X122013913Y-94767503D01*
X121967409Y-94696324D01*
X121917468Y-94625000D01*
X121909132Y-94607125D01*
X121901034Y-94594729D01*
X121864271Y-94510919D01*
X121825384Y-94427525D01*
X121821762Y-94414010D01*
X121818132Y-94405733D01*
X121793821Y-94309730D01*
X121768990Y-94217060D01*
X121768270Y-94208831D01*
X121767470Y-94205672D01*
X121758092Y-94092495D01*
X121750000Y-94000000D01*
X121758091Y-93907512D01*
X121767470Y-93794327D01*
X121768270Y-93791166D01*
X121768990Y-93782940D01*
X121793816Y-93690286D01*
X121818132Y-93594266D01*
X121821763Y-93585987D01*
X121825384Y-93572475D01*
X121864264Y-93489096D01*
X121901034Y-93405270D01*
X121909134Y-93392871D01*
X121917468Y-93375000D01*
X121967399Y-93303689D01*
X122013913Y-93232496D01*
X122027853Y-93217352D01*
X122042444Y-93196515D01*
X122100250Y-93138708D01*
X122153687Y-93080661D01*
X122174488Y-93064470D01*
X122196515Y-93042444D01*
X122259012Y-92998683D01*
X122316551Y-92953899D01*
X122344817Y-92938601D01*
X122375000Y-92917468D01*
X122439109Y-92887573D01*
X122498052Y-92855675D01*
X122533927Y-92843359D01*
X122572475Y-92825384D01*
X122635406Y-92808521D01*
X122693247Y-92788665D01*
X122736364Y-92781469D01*
X122782940Y-92768990D01*
X122842244Y-92763801D01*
X122896811Y-92754696D01*
X122946324Y-92754696D01*
X123000000Y-92750000D01*
X123053676Y-92754696D01*
G37*
G36*
X129066043Y-92753191D02*
G01*
X129098727Y-92757494D01*
X129106948Y-92761327D01*
X129126537Y-92765224D01*
X129152480Y-92782559D01*
X129163608Y-92787748D01*
X129170378Y-92794518D01*
X129191421Y-92808579D01*
X129205481Y-92829621D01*
X129212251Y-92836391D01*
X129217438Y-92847516D01*
X129234776Y-92873463D01*
X129238672Y-92893053D01*
X129242505Y-92901272D01*
X129246806Y-92933945D01*
X129250000Y-92950000D01*
X129250000Y-95050000D01*
X129246805Y-95066058D01*
X129242505Y-95098727D01*
X129238673Y-95106944D01*
X129234776Y-95126537D01*
X129217437Y-95152485D01*
X129212251Y-95163608D01*
X129205483Y-95170375D01*
X129191421Y-95191421D01*
X129170375Y-95205483D01*
X129163608Y-95212251D01*
X129152485Y-95217437D01*
X129126537Y-95234776D01*
X129106944Y-95238673D01*
X129098727Y-95242505D01*
X129066056Y-95246806D01*
X129050000Y-95250000D01*
X126950000Y-95250000D01*
X126933943Y-95246806D01*
X126901272Y-95242505D01*
X126893053Y-95238672D01*
X126873463Y-95234776D01*
X126847516Y-95217438D01*
X126836391Y-95212251D01*
X126829621Y-95205481D01*
X126808579Y-95191421D01*
X126794518Y-95170378D01*
X126787748Y-95163608D01*
X126782559Y-95152480D01*
X126765224Y-95126537D01*
X126761327Y-95106948D01*
X126757494Y-95098727D01*
X126753190Y-95066041D01*
X126750000Y-95050000D01*
X126750000Y-92950000D01*
X126753190Y-92933958D01*
X126757494Y-92901272D01*
X126761327Y-92893049D01*
X126765224Y-92873463D01*
X126782557Y-92847521D01*
X126787748Y-92836391D01*
X126794520Y-92829618D01*
X126808579Y-92808579D01*
X126829618Y-92794520D01*
X126836391Y-92787748D01*
X126847521Y-92782557D01*
X126873463Y-92765224D01*
X126893049Y-92761327D01*
X126901272Y-92757494D01*
X126933960Y-92753190D01*
X126950000Y-92750000D01*
X129050000Y-92750000D01*
X129066043Y-92753191D01*
G37*
G36*
X105040308Y-92169574D02*
G01*
X105087281Y-92169574D01*
X105127840Y-92178195D01*
X105162784Y-92181637D01*
X105206684Y-92194954D01*
X105258029Y-92205868D01*
X105290885Y-92220496D01*
X105319309Y-92229119D01*
X105364478Y-92253262D01*
X105417500Y-92276869D01*
X105442149Y-92294777D01*
X105463564Y-92306224D01*
X105507245Y-92342073D01*
X105558724Y-92379474D01*
X105575439Y-92398038D01*
X105590006Y-92409993D01*
X105629151Y-92457691D01*
X105675529Y-92509199D01*
X105685271Y-92526073D01*
X105693775Y-92536435D01*
X105725232Y-92595287D01*
X105762810Y-92660375D01*
X105767132Y-92673679D01*
X105770880Y-92680690D01*
X105791542Y-92748805D01*
X105816753Y-92826394D01*
X105817640Y-92834835D01*
X105818362Y-92837215D01*
X105825385Y-92908526D01*
X105835000Y-93000000D01*
X105825384Y-93091481D01*
X105818362Y-93162784D01*
X105817640Y-93165162D01*
X105816753Y-93173606D01*
X105791538Y-93251208D01*
X105770880Y-93319309D01*
X105767133Y-93326317D01*
X105762810Y-93339625D01*
X105725224Y-93404724D01*
X105693775Y-93463564D01*
X105685273Y-93473923D01*
X105675529Y-93490801D01*
X105629142Y-93542318D01*
X105590006Y-93590006D01*
X105575443Y-93601957D01*
X105558724Y-93620526D01*
X105507235Y-93657934D01*
X105463564Y-93693775D01*
X105442154Y-93705218D01*
X105417500Y-93723131D01*
X105364467Y-93746742D01*
X105319309Y-93770880D01*
X105290892Y-93779500D01*
X105258029Y-93794132D01*
X105206673Y-93805048D01*
X105162784Y-93818362D01*
X105127849Y-93821802D01*
X105087281Y-93830426D01*
X105040297Y-93830426D01*
X105000000Y-93834395D01*
X104959702Y-93830426D01*
X104912719Y-93830426D01*
X104872150Y-93821802D01*
X104837215Y-93818362D01*
X104793323Y-93805047D01*
X104741971Y-93794132D01*
X104709109Y-93779500D01*
X104680690Y-93770880D01*
X104635526Y-93746739D01*
X104582500Y-93723131D01*
X104557848Y-93705220D01*
X104536435Y-93693775D01*
X104492756Y-93657928D01*
X104441276Y-93620526D01*
X104424559Y-93601960D01*
X104409993Y-93590006D01*
X104370846Y-93542306D01*
X104324471Y-93490801D01*
X104314729Y-93473927D01*
X104306224Y-93463564D01*
X104274761Y-93404701D01*
X104237190Y-93339625D01*
X104232867Y-93326322D01*
X104229119Y-93319309D01*
X104208446Y-93251162D01*
X104183247Y-93173606D01*
X104182360Y-93165167D01*
X104181637Y-93162784D01*
X104174599Y-93091330D01*
X104165000Y-93000000D01*
X104174598Y-92908677D01*
X104181637Y-92837215D01*
X104182360Y-92834830D01*
X104183247Y-92826394D01*
X104208441Y-92748852D01*
X104229119Y-92680690D01*
X104232868Y-92673674D01*
X104237190Y-92660375D01*
X104274754Y-92595311D01*
X104306224Y-92536435D01*
X104314731Y-92526069D01*
X104324471Y-92509199D01*
X104370837Y-92457704D01*
X104409993Y-92409993D01*
X104424563Y-92398035D01*
X104441276Y-92379474D01*
X104492745Y-92342079D01*
X104536435Y-92306224D01*
X104557853Y-92294775D01*
X104582500Y-92276869D01*
X104635515Y-92253265D01*
X104680690Y-92229119D01*
X104709116Y-92220495D01*
X104741971Y-92205868D01*
X104793311Y-92194955D01*
X104837215Y-92181637D01*
X104872159Y-92178195D01*
X104912719Y-92169574D01*
X104959692Y-92169574D01*
X105000000Y-92165604D01*
X105040308Y-92169574D01*
G37*
G36*
X114093669Y-86304909D02*
G01*
X114187390Y-86304909D01*
X114287052Y-86315043D01*
X114386755Y-86320269D01*
X114473425Y-86333996D01*
X114560264Y-86342827D01*
X114664747Y-86364298D01*
X114769273Y-86380854D01*
X114848145Y-86401987D01*
X114927376Y-86418270D01*
X115035392Y-86452160D01*
X115143363Y-86481091D01*
X115213899Y-86508167D01*
X115284967Y-86530465D01*
X115395031Y-86577697D01*
X115504926Y-86619882D01*
X115566810Y-86651413D01*
X115629393Y-86678270D01*
X115739917Y-86739616D01*
X115850000Y-86795706D01*
X115903104Y-86830192D01*
X115957074Y-86860148D01*
X116066332Y-86936194D01*
X116174805Y-87006637D01*
X116219248Y-87042626D01*
X116264696Y-87074259D01*
X116370894Y-87165427D01*
X116475783Y-87250364D01*
X116511862Y-87286443D01*
X116549070Y-87318385D01*
X116650338Y-87424919D01*
X116749636Y-87524217D01*
X116777867Y-87559080D01*
X116807280Y-87590022D01*
X116901653Y-87711943D01*
X116993363Y-87825195D01*
X117014444Y-87857658D01*
X117036691Y-87886398D01*
X117122241Y-88023649D01*
X117204294Y-88150000D01*
X117219061Y-88178982D01*
X117234941Y-88204459D01*
X117309767Y-88357002D01*
X117380118Y-88495074D01*
X117389560Y-88519673D01*
X117399997Y-88540949D01*
X117462236Y-88709000D01*
X117518909Y-88856637D01*
X117524124Y-88876103D01*
X117530161Y-88892401D01*
X117578003Y-89077182D01*
X117619146Y-89230727D01*
X117621331Y-89244522D01*
X117624102Y-89255225D01*
X117655866Y-89462570D01*
X117679731Y-89613245D01*
X117680137Y-89621002D01*
X117680856Y-89625692D01*
X117694992Y-89904459D01*
X117700000Y-90000000D01*
X117694992Y-90095548D01*
X117680856Y-90374307D01*
X117680137Y-90378996D01*
X117679731Y-90386755D01*
X117655861Y-90537458D01*
X117624102Y-90744774D01*
X117621331Y-90755474D01*
X117619146Y-90769273D01*
X117577996Y-90922846D01*
X117530161Y-91107598D01*
X117524125Y-91123893D01*
X117518909Y-91143363D01*
X117462226Y-91291027D01*
X117399997Y-91459050D01*
X117389562Y-91480322D01*
X117380118Y-91504926D01*
X117309754Y-91643022D01*
X117234941Y-91795540D01*
X117219064Y-91821011D01*
X117204294Y-91850000D01*
X117122225Y-91976373D01*
X117036691Y-92113601D01*
X117014449Y-92142335D01*
X116993363Y-92174805D01*
X116901636Y-92288078D01*
X116807280Y-92409977D01*
X116777873Y-92440913D01*
X116749636Y-92475783D01*
X116650319Y-92575099D01*
X116549070Y-92681614D01*
X116511869Y-92713549D01*
X116475783Y-92749636D01*
X116370874Y-92834589D01*
X116264696Y-92925740D01*
X116219257Y-92957366D01*
X116174805Y-92993363D01*
X116066311Y-93063819D01*
X115957074Y-93139851D01*
X115903114Y-93169800D01*
X115850000Y-93204294D01*
X115739895Y-93260395D01*
X115629393Y-93321729D01*
X115566822Y-93348580D01*
X115504926Y-93380118D01*
X115395009Y-93422310D01*
X115284967Y-93469534D01*
X115213913Y-93491827D01*
X115143363Y-93518909D01*
X115035370Y-93547845D01*
X114927376Y-93581729D01*
X114848161Y-93598007D01*
X114769273Y-93619146D01*
X114664725Y-93635704D01*
X114560264Y-93657172D01*
X114473439Y-93666001D01*
X114386755Y-93679731D01*
X114287047Y-93684956D01*
X114187390Y-93695091D01*
X114093669Y-93695091D01*
X114000000Y-93700000D01*
X113906331Y-93695091D01*
X113812610Y-93695091D01*
X113712952Y-93684956D01*
X113613245Y-93679731D01*
X113526562Y-93666001D01*
X113439735Y-93657172D01*
X113335269Y-93635703D01*
X113230727Y-93619146D01*
X113151841Y-93598008D01*
X113072623Y-93581729D01*
X112964622Y-93547843D01*
X112856637Y-93518909D01*
X112786090Y-93491828D01*
X112715032Y-93469534D01*
X112604980Y-93422307D01*
X112495074Y-93380118D01*
X112433182Y-93348582D01*
X112370606Y-93321729D01*
X112260092Y-93260388D01*
X112150000Y-93204294D01*
X112096891Y-93169804D01*
X112042925Y-93139851D01*
X111933674Y-93063810D01*
X111825195Y-92993363D01*
X111780748Y-92957371D01*
X111735303Y-92925740D01*
X111629108Y-92834575D01*
X111524217Y-92749636D01*
X111488136Y-92713555D01*
X111450929Y-92681614D01*
X111349660Y-92575079D01*
X111250364Y-92475783D01*
X111222132Y-92440920D01*
X111192719Y-92409977D01*
X111098341Y-92288050D01*
X111006637Y-92174805D01*
X110985556Y-92142343D01*
X110963308Y-92113601D01*
X110877749Y-91976335D01*
X110795706Y-91850000D01*
X110780940Y-91821020D01*
X110765058Y-91795540D01*
X110690219Y-91642970D01*
X110619882Y-91504926D01*
X110610441Y-91480331D01*
X110600002Y-91459050D01*
X110537745Y-91290953D01*
X110481091Y-91143363D01*
X110475876Y-91123902D01*
X110469838Y-91107598D01*
X110421974Y-90922735D01*
X110380854Y-90769273D01*
X110378670Y-90755484D01*
X110375897Y-90744774D01*
X110344107Y-90537265D01*
X110320269Y-90386755D01*
X110319862Y-90379006D01*
X110319143Y-90374307D01*
X110304976Y-90094958D01*
X110300000Y-90000000D01*
X110304976Y-89905048D01*
X110319143Y-89625692D01*
X110319862Y-89620992D01*
X110320269Y-89613245D01*
X110344102Y-89462763D01*
X110375897Y-89255225D01*
X110378670Y-89244513D01*
X110380854Y-89230727D01*
X110421966Y-89077292D01*
X110469838Y-88892401D01*
X110475877Y-88876093D01*
X110481091Y-88856637D01*
X110537735Y-88709074D01*
X110600002Y-88540949D01*
X110610442Y-88519663D01*
X110619882Y-88495074D01*
X110690205Y-88357055D01*
X110765058Y-88204459D01*
X110780943Y-88178973D01*
X110795706Y-88150000D01*
X110877733Y-88023688D01*
X110963308Y-87886398D01*
X110985560Y-87857650D01*
X111006637Y-87825195D01*
X111098323Y-87711971D01*
X111192719Y-87590022D01*
X111222138Y-87559073D01*
X111250364Y-87524217D01*
X111349641Y-87424939D01*
X111450929Y-87318385D01*
X111488143Y-87286437D01*
X111524217Y-87250364D01*
X111629087Y-87165441D01*
X111735303Y-87074259D01*
X111780757Y-87042621D01*
X111825195Y-87006637D01*
X111933652Y-86936203D01*
X112042925Y-86860148D01*
X112096901Y-86830188D01*
X112150000Y-86795706D01*
X112260070Y-86739622D01*
X112370606Y-86678270D01*
X112433195Y-86651410D01*
X112495074Y-86619882D01*
X112604958Y-86577701D01*
X112715032Y-86530465D01*
X112786105Y-86508165D01*
X112856637Y-86481091D01*
X112964600Y-86452162D01*
X113072623Y-86418270D01*
X113151857Y-86401986D01*
X113230727Y-86380854D01*
X113335248Y-86364299D01*
X113439735Y-86342827D01*
X113526575Y-86333996D01*
X113613245Y-86320269D01*
X113712946Y-86315043D01*
X113812610Y-86304909D01*
X113906331Y-86304909D01*
X114000000Y-86300000D01*
X114093669Y-86304909D01*
G37*
G36*
X136093669Y-86304909D02*
G01*
X136187390Y-86304909D01*
X136287052Y-86315043D01*
X136386755Y-86320269D01*
X136473425Y-86333996D01*
X136560264Y-86342827D01*
X136664747Y-86364298D01*
X136769273Y-86380854D01*
X136848145Y-86401987D01*
X136927376Y-86418270D01*
X137035392Y-86452160D01*
X137143363Y-86481091D01*
X137213899Y-86508167D01*
X137284967Y-86530465D01*
X137395031Y-86577697D01*
X137504926Y-86619882D01*
X137566810Y-86651413D01*
X137629393Y-86678270D01*
X137739917Y-86739616D01*
X137850000Y-86795706D01*
X137903104Y-86830192D01*
X137957074Y-86860148D01*
X138066332Y-86936194D01*
X138174805Y-87006637D01*
X138219248Y-87042626D01*
X138264696Y-87074259D01*
X138370894Y-87165427D01*
X138475783Y-87250364D01*
X138511862Y-87286443D01*
X138549070Y-87318385D01*
X138650338Y-87424919D01*
X138749636Y-87524217D01*
X138777867Y-87559080D01*
X138807280Y-87590022D01*
X138901653Y-87711943D01*
X138993363Y-87825195D01*
X139014444Y-87857658D01*
X139036691Y-87886398D01*
X139122241Y-88023649D01*
X139204294Y-88150000D01*
X139219061Y-88178982D01*
X139234941Y-88204459D01*
X139309767Y-88357002D01*
X139380118Y-88495074D01*
X139389560Y-88519673D01*
X139399997Y-88540949D01*
X139462236Y-88709000D01*
X139518909Y-88856637D01*
X139524124Y-88876103D01*
X139530161Y-88892401D01*
X139578003Y-89077182D01*
X139619146Y-89230727D01*
X139621331Y-89244522D01*
X139624102Y-89255225D01*
X139655866Y-89462570D01*
X139679731Y-89613245D01*
X139680137Y-89621002D01*
X139680856Y-89625692D01*
X139694992Y-89904459D01*
X139700000Y-90000000D01*
X139694992Y-90095548D01*
X139680856Y-90374307D01*
X139680137Y-90378996D01*
X139679731Y-90386755D01*
X139655861Y-90537458D01*
X139624102Y-90744774D01*
X139621331Y-90755474D01*
X139619146Y-90769273D01*
X139577996Y-90922846D01*
X139530161Y-91107598D01*
X139524125Y-91123893D01*
X139518909Y-91143363D01*
X139462226Y-91291027D01*
X139399997Y-91459050D01*
X139389562Y-91480322D01*
X139380118Y-91504926D01*
X139309754Y-91643022D01*
X139234941Y-91795540D01*
X139219064Y-91821011D01*
X139204294Y-91850000D01*
X139122225Y-91976373D01*
X139036691Y-92113601D01*
X139014449Y-92142335D01*
X138993363Y-92174805D01*
X138901636Y-92288078D01*
X138807280Y-92409977D01*
X138777873Y-92440913D01*
X138749636Y-92475783D01*
X138650319Y-92575099D01*
X138549070Y-92681614D01*
X138511869Y-92713549D01*
X138475783Y-92749636D01*
X138370874Y-92834589D01*
X138264696Y-92925740D01*
X138219257Y-92957366D01*
X138174805Y-92993363D01*
X138066311Y-93063819D01*
X137957074Y-93139851D01*
X137903114Y-93169800D01*
X137850000Y-93204294D01*
X137739895Y-93260395D01*
X137629393Y-93321729D01*
X137566822Y-93348580D01*
X137504926Y-93380118D01*
X137395009Y-93422310D01*
X137284967Y-93469534D01*
X137213913Y-93491827D01*
X137143363Y-93518909D01*
X137035370Y-93547845D01*
X136927376Y-93581729D01*
X136848161Y-93598007D01*
X136769273Y-93619146D01*
X136664725Y-93635704D01*
X136560264Y-93657172D01*
X136473439Y-93666001D01*
X136386755Y-93679731D01*
X136287047Y-93684956D01*
X136187390Y-93695091D01*
X136093669Y-93695091D01*
X136000000Y-93700000D01*
X135906331Y-93695091D01*
X135812610Y-93695091D01*
X135712952Y-93684956D01*
X135613245Y-93679731D01*
X135526562Y-93666001D01*
X135439735Y-93657172D01*
X135335269Y-93635703D01*
X135230727Y-93619146D01*
X135151841Y-93598008D01*
X135072623Y-93581729D01*
X134964622Y-93547843D01*
X134856637Y-93518909D01*
X134786090Y-93491828D01*
X134715032Y-93469534D01*
X134604980Y-93422307D01*
X134495074Y-93380118D01*
X134433182Y-93348582D01*
X134370606Y-93321729D01*
X134260092Y-93260388D01*
X134150000Y-93204294D01*
X134096891Y-93169804D01*
X134042925Y-93139851D01*
X133933674Y-93063810D01*
X133825195Y-92993363D01*
X133780748Y-92957371D01*
X133735303Y-92925740D01*
X133629108Y-92834575D01*
X133524217Y-92749636D01*
X133488136Y-92713555D01*
X133450929Y-92681614D01*
X133349660Y-92575079D01*
X133250364Y-92475783D01*
X133222132Y-92440920D01*
X133192719Y-92409977D01*
X133098341Y-92288050D01*
X133006637Y-92174805D01*
X132985556Y-92142343D01*
X132963308Y-92113601D01*
X132877749Y-91976335D01*
X132795706Y-91850000D01*
X132780940Y-91821020D01*
X132765058Y-91795540D01*
X132690219Y-91642970D01*
X132619882Y-91504926D01*
X132610441Y-91480331D01*
X132600002Y-91459050D01*
X132537745Y-91290953D01*
X132481091Y-91143363D01*
X132475876Y-91123902D01*
X132469838Y-91107598D01*
X132421974Y-90922735D01*
X132380854Y-90769273D01*
X132378670Y-90755484D01*
X132375897Y-90744774D01*
X132344107Y-90537265D01*
X132320269Y-90386755D01*
X132319862Y-90379006D01*
X132319143Y-90374307D01*
X132304976Y-90094958D01*
X132300000Y-90000000D01*
X132304976Y-89905048D01*
X132319143Y-89625692D01*
X132319862Y-89620992D01*
X132320269Y-89613245D01*
X132344102Y-89462763D01*
X132375897Y-89255225D01*
X132378670Y-89244513D01*
X132380854Y-89230727D01*
X132421966Y-89077292D01*
X132469838Y-88892401D01*
X132475877Y-88876093D01*
X132481091Y-88856637D01*
X132537735Y-88709074D01*
X132600002Y-88540949D01*
X132610442Y-88519663D01*
X132619882Y-88495074D01*
X132690205Y-88357055D01*
X132765058Y-88204459D01*
X132780943Y-88178973D01*
X132795706Y-88150000D01*
X132877733Y-88023688D01*
X132963308Y-87886398D01*
X132985560Y-87857650D01*
X133006637Y-87825195D01*
X133098323Y-87711971D01*
X133192719Y-87590022D01*
X133222138Y-87559073D01*
X133250364Y-87524217D01*
X133349641Y-87424939D01*
X133450929Y-87318385D01*
X133488143Y-87286437D01*
X133524217Y-87250364D01*
X133629087Y-87165441D01*
X133735303Y-87074259D01*
X133780757Y-87042621D01*
X133825195Y-87006637D01*
X133933652Y-86936203D01*
X134042925Y-86860148D01*
X134096901Y-86830188D01*
X134150000Y-86795706D01*
X134260070Y-86739622D01*
X134370606Y-86678270D01*
X134433195Y-86651410D01*
X134495074Y-86619882D01*
X134604958Y-86577701D01*
X134715032Y-86530465D01*
X134786105Y-86508165D01*
X134856637Y-86481091D01*
X134964600Y-86452162D01*
X135072623Y-86418270D01*
X135151857Y-86401986D01*
X135230727Y-86380854D01*
X135335248Y-86364299D01*
X135439735Y-86342827D01*
X135526575Y-86333996D01*
X135613245Y-86320269D01*
X135712946Y-86315043D01*
X135812610Y-86304909D01*
X135906331Y-86304909D01*
X136000000Y-86300000D01*
X136093669Y-86304909D01*
G37*
G36*
X108049130Y-86190000D02*
G01*
X108092663Y-86190000D01*
X108141148Y-86199063D01*
X108196034Y-86204469D01*
X108237725Y-86217115D01*
X108274837Y-86224053D01*
X108326234Y-86243964D01*
X108384535Y-86261650D01*
X108417850Y-86279457D01*
X108447650Y-86291002D01*
X108499423Y-86323059D01*
X108558259Y-86354507D01*
X108582979Y-86374794D01*
X108605216Y-86388563D01*
X108654491Y-86433483D01*
X108710528Y-86479472D01*
X108727133Y-86499705D01*
X108742173Y-86513416D01*
X108785829Y-86571226D01*
X108835493Y-86631741D01*
X108845097Y-86649709D01*
X108853860Y-86661313D01*
X108888729Y-86731340D01*
X108928350Y-86805465D01*
X108932574Y-86819392D01*
X108936467Y-86827209D01*
X108959460Y-86908022D01*
X108985531Y-86993966D01*
X108986387Y-87002661D01*
X108987184Y-87005461D01*
X108995462Y-87094799D01*
X109004839Y-87190000D01*
X108995461Y-87285209D01*
X108987184Y-87374538D01*
X108986387Y-87377337D01*
X108985531Y-87386034D01*
X108959455Y-87471992D01*
X108936467Y-87552790D01*
X108932575Y-87560604D01*
X108928350Y-87574535D01*
X108888722Y-87648673D01*
X108853860Y-87718686D01*
X108845098Y-87730287D01*
X108835493Y-87748259D01*
X108785820Y-87808785D01*
X108742173Y-87866583D01*
X108727136Y-87880290D01*
X108710528Y-87900528D01*
X108654480Y-87946525D01*
X108605216Y-87991436D01*
X108582984Y-88005201D01*
X108558259Y-88025493D01*
X108499412Y-88056947D01*
X108447650Y-88088997D01*
X108417857Y-88100538D01*
X108384535Y-88118350D01*
X108326222Y-88136038D01*
X108274837Y-88155946D01*
X108237732Y-88162882D01*
X108196034Y-88175531D01*
X108141145Y-88180937D01*
X108092663Y-88190000D01*
X108049130Y-88190000D01*
X108000000Y-88194839D01*
X107950870Y-88190000D01*
X107907337Y-88190000D01*
X107858854Y-88180937D01*
X107803966Y-88175531D01*
X107762269Y-88162882D01*
X107725162Y-88155946D01*
X107673772Y-88136037D01*
X107615465Y-88118350D01*
X107582145Y-88100540D01*
X107552349Y-88088997D01*
X107500580Y-88056943D01*
X107441741Y-88025493D01*
X107417018Y-88005203D01*
X107394783Y-87991436D01*
X107345509Y-87946516D01*
X107289472Y-87900528D01*
X107272866Y-87880294D01*
X107257826Y-87866583D01*
X107214167Y-87808769D01*
X107164507Y-87748259D01*
X107154903Y-87730292D01*
X107146139Y-87718686D01*
X107111262Y-87648645D01*
X107071650Y-87574535D01*
X107067425Y-87560609D01*
X107063532Y-87552790D01*
X107040528Y-87471939D01*
X107014469Y-87386034D01*
X107013612Y-87377342D01*
X107012815Y-87374538D01*
X107004521Y-87285037D01*
X106995161Y-87190000D01*
X107004520Y-87094970D01*
X107012815Y-87005461D01*
X107013613Y-87002655D01*
X107014469Y-86993966D01*
X107040523Y-86908075D01*
X107063532Y-86827209D01*
X107067426Y-86819387D01*
X107071650Y-86805465D01*
X107111255Y-86731367D01*
X107146139Y-86661313D01*
X107154905Y-86649704D01*
X107164507Y-86631741D01*
X107214157Y-86571241D01*
X107257826Y-86513416D01*
X107272869Y-86499701D01*
X107289472Y-86479472D01*
X107345498Y-86433492D01*
X107394783Y-86388563D01*
X107417023Y-86374792D01*
X107441741Y-86354507D01*
X107500568Y-86323063D01*
X107552349Y-86291002D01*
X107582151Y-86279456D01*
X107615465Y-86261650D01*
X107673760Y-86243966D01*
X107725162Y-86224053D01*
X107762276Y-86217115D01*
X107803966Y-86204469D01*
X107858851Y-86199063D01*
X107907337Y-86190000D01*
X107950870Y-86190000D01*
X108000000Y-86185161D01*
X108049130Y-86190000D01*
G37*
G36*
X128048724Y-83004799D02*
G01*
X128092218Y-83004799D01*
X128140658Y-83013853D01*
X128195090Y-83019215D01*
X128236438Y-83031757D01*
X128273518Y-83038689D01*
X128324868Y-83058582D01*
X128382683Y-83076120D01*
X128415720Y-83093778D01*
X128445501Y-83105316D01*
X128497245Y-83137354D01*
X128555570Y-83168530D01*
X128580076Y-83188641D01*
X128602311Y-83202409D01*
X128651575Y-83247319D01*
X128707107Y-83292893D01*
X128723563Y-83312945D01*
X128738611Y-83326663D01*
X128782297Y-83384513D01*
X128831470Y-83444430D01*
X128840977Y-83462218D01*
X128849762Y-83473850D01*
X128884713Y-83544040D01*
X128923880Y-83617317D01*
X128928056Y-83631086D01*
X128931972Y-83638949D01*
X128955105Y-83720255D01*
X128980785Y-83804910D01*
X128981628Y-83813473D01*
X128982446Y-83816347D01*
X128990943Y-83908047D01*
X129000000Y-84000000D01*
X128990942Y-84091960D01*
X128982446Y-84183652D01*
X128981628Y-84186524D01*
X128980785Y-84195090D01*
X128955100Y-84279759D01*
X128931972Y-84361050D01*
X128928057Y-84368911D01*
X128923880Y-84382683D01*
X128884705Y-84455972D01*
X128849762Y-84526149D01*
X128840979Y-84537778D01*
X128831470Y-84555570D01*
X128782288Y-84615498D01*
X128738611Y-84673336D01*
X128723566Y-84687050D01*
X128707107Y-84707107D01*
X128651564Y-84752689D01*
X128602311Y-84797590D01*
X128580081Y-84811354D01*
X128555570Y-84831470D01*
X128497233Y-84862651D01*
X128445501Y-84894683D01*
X128415727Y-84906217D01*
X128382683Y-84923880D01*
X128324856Y-84941421D01*
X128273518Y-84961310D01*
X128236445Y-84968240D01*
X128195090Y-84980785D01*
X128140655Y-84986146D01*
X128092218Y-84995201D01*
X128048724Y-84995201D01*
X128000000Y-85000000D01*
X127951276Y-84995201D01*
X127907782Y-84995201D01*
X127859343Y-84986146D01*
X127804910Y-84980785D01*
X127763555Y-84968240D01*
X127726481Y-84961310D01*
X127675139Y-84941419D01*
X127617317Y-84923880D01*
X127584275Y-84906218D01*
X127554498Y-84894683D01*
X127502759Y-84862647D01*
X127444430Y-84831470D01*
X127419921Y-84811356D01*
X127397688Y-84797590D01*
X127348425Y-84752681D01*
X127292893Y-84707107D01*
X127276436Y-84687054D01*
X127261388Y-84673336D01*
X127217699Y-84615482D01*
X127168530Y-84555570D01*
X127159022Y-84537783D01*
X127150237Y-84526149D01*
X127115279Y-84455945D01*
X127076120Y-84382683D01*
X127071943Y-84368916D01*
X127068027Y-84361050D01*
X127044882Y-84279706D01*
X127019215Y-84195090D01*
X127018371Y-84186530D01*
X127017553Y-84183652D01*
X127009040Y-84091788D01*
X127000000Y-84000000D01*
X127009039Y-83908219D01*
X127017553Y-83816347D01*
X127018372Y-83813468D01*
X127019215Y-83804910D01*
X127044878Y-83720308D01*
X127068027Y-83638949D01*
X127071944Y-83631081D01*
X127076120Y-83617317D01*
X127115272Y-83544068D01*
X127150237Y-83473850D01*
X127159024Y-83462213D01*
X127168530Y-83444430D01*
X127217689Y-83384528D01*
X127261388Y-83326663D01*
X127276439Y-83312941D01*
X127292893Y-83292893D01*
X127348414Y-83247327D01*
X127397688Y-83202409D01*
X127419926Y-83188639D01*
X127444430Y-83168530D01*
X127502747Y-83137358D01*
X127554498Y-83105316D01*
X127584282Y-83093777D01*
X127617317Y-83076120D01*
X127675127Y-83058583D01*
X127726481Y-83038689D01*
X127763562Y-83031757D01*
X127804910Y-83019215D01*
X127859340Y-83013853D01*
X127907782Y-83004799D01*
X127951276Y-83004799D01*
X128000000Y-83000000D01*
X128048724Y-83004799D01*
G37*
G36*
X106065909Y-79205033D02*
G01*
X106134514Y-79205033D01*
X106196466Y-79214370D01*
X106256127Y-79218638D01*
X106326856Y-79234024D01*
X106400538Y-79245130D01*
X106454679Y-79261830D01*
X106507023Y-79273217D01*
X106580779Y-79300726D01*
X106657614Y-79324427D01*
X106703267Y-79346412D01*
X106747614Y-79362953D01*
X106822318Y-79403744D01*
X106900000Y-79441154D01*
X106936888Y-79466304D01*
X106972981Y-79486012D01*
X107046319Y-79540912D01*
X107122282Y-79592703D01*
X107150589Y-79618968D01*
X107178537Y-79639890D01*
X107247997Y-79709350D01*
X107319493Y-79775689D01*
X107339799Y-79801152D01*
X107360109Y-79821462D01*
X107423099Y-79905607D01*
X107487230Y-79986024D01*
X107500482Y-80008978D01*
X107513987Y-80027018D01*
X107567856Y-80125672D01*
X107621744Y-80219009D01*
X107629213Y-80238040D01*
X107637046Y-80252385D01*
X107679207Y-80365423D01*
X107720031Y-80469441D01*
X107723227Y-80483446D01*
X107726782Y-80492976D01*
X107754809Y-80621816D01*
X107779895Y-80731724D01*
X107780513Y-80739975D01*
X107781361Y-80743872D01*
X107792985Y-80906395D01*
X107800000Y-81000000D01*
X107792984Y-81093611D01*
X107781361Y-81256127D01*
X107780513Y-81260022D01*
X107779895Y-81268276D01*
X107754804Y-81378203D01*
X107726782Y-81507023D01*
X107723228Y-81516551D01*
X107720031Y-81530559D01*
X107679199Y-81634595D01*
X107637046Y-81747614D01*
X107629214Y-81761956D01*
X107621744Y-81780991D01*
X107567846Y-81874344D01*
X107513987Y-81972981D01*
X107500485Y-81991016D01*
X107487230Y-82013976D01*
X107423087Y-82094407D01*
X107360109Y-82178537D01*
X107339803Y-82198842D01*
X107319493Y-82224311D01*
X107247984Y-82290661D01*
X107178537Y-82360109D01*
X107150595Y-82381026D01*
X107122282Y-82407297D01*
X107046304Y-82459097D01*
X106972981Y-82513987D01*
X106936895Y-82533690D01*
X106900000Y-82558846D01*
X106822303Y-82596262D01*
X106747614Y-82637046D01*
X106703276Y-82653583D01*
X106657614Y-82675573D01*
X106580764Y-82699277D01*
X106507023Y-82726782D01*
X106454690Y-82738166D01*
X106400538Y-82754870D01*
X106326841Y-82765978D01*
X106256127Y-82781361D01*
X106196478Y-82785627D01*
X106134514Y-82794967D01*
X106065895Y-82794967D01*
X106000000Y-82799680D01*
X105934105Y-82794967D01*
X105865486Y-82794967D01*
X105803521Y-82785627D01*
X105743872Y-82781361D01*
X105673155Y-82765977D01*
X105599462Y-82754870D01*
X105545311Y-82738166D01*
X105492976Y-82726782D01*
X105419229Y-82699276D01*
X105342386Y-82675573D01*
X105296726Y-82653584D01*
X105252385Y-82637046D01*
X105177688Y-82596258D01*
X105100000Y-82558846D01*
X105063108Y-82533693D01*
X105027018Y-82513987D01*
X104953684Y-82459089D01*
X104877718Y-82407297D01*
X104849409Y-82381029D01*
X104821462Y-82360109D01*
X104752002Y-82290649D01*
X104680507Y-82224311D01*
X104660200Y-82198847D01*
X104639890Y-82178537D01*
X104576895Y-82094387D01*
X104512770Y-82013976D01*
X104499517Y-81991022D01*
X104486012Y-81972981D01*
X104432135Y-81874312D01*
X104378256Y-81780991D01*
X104370788Y-81761962D01*
X104362953Y-81747614D01*
X104320780Y-81634544D01*
X104279969Y-81530559D01*
X104276773Y-81516558D01*
X104273217Y-81507023D01*
X104245173Y-81378110D01*
X104220105Y-81268276D01*
X104219487Y-81260029D01*
X104218638Y-81256127D01*
X104206993Y-81093319D01*
X104200000Y-81000000D01*
X104206992Y-80906688D01*
X104218638Y-80743872D01*
X104219487Y-80739968D01*
X104220105Y-80731724D01*
X104245169Y-80621910D01*
X104273217Y-80492976D01*
X104276773Y-80483439D01*
X104279969Y-80469441D01*
X104320772Y-80365474D01*
X104362953Y-80252385D01*
X104370789Y-80238033D01*
X104378256Y-80219009D01*
X104432125Y-80125704D01*
X104486012Y-80027018D01*
X104499520Y-80008972D01*
X104512770Y-79986024D01*
X104576883Y-79905628D01*
X104639890Y-79821462D01*
X104660204Y-79801147D01*
X104680507Y-79775689D01*
X104751988Y-79709363D01*
X104821462Y-79639890D01*
X104849414Y-79618964D01*
X104877718Y-79592703D01*
X104953669Y-79540920D01*
X105027018Y-79486012D01*
X105063115Y-79466301D01*
X105100000Y-79441154D01*
X105177672Y-79403748D01*
X105252385Y-79362953D01*
X105296735Y-79346410D01*
X105342386Y-79324427D01*
X105419214Y-79300728D01*
X105492976Y-79273217D01*
X105545322Y-79261829D01*
X105599462Y-79245130D01*
X105673140Y-79234024D01*
X105743872Y-79218638D01*
X105803534Y-79214370D01*
X105865486Y-79205033D01*
X105934091Y-79205033D01*
X106000000Y-79200319D01*
X106065909Y-79205033D01*
G37*
G36*
X144065909Y-79205033D02*
G01*
X144134514Y-79205033D01*
X144196466Y-79214370D01*
X144256127Y-79218638D01*
X144326856Y-79234024D01*
X144400538Y-79245130D01*
X144454679Y-79261830D01*
X144507023Y-79273217D01*
X144580779Y-79300726D01*
X144657614Y-79324427D01*
X144703267Y-79346412D01*
X144747614Y-79362953D01*
X144822318Y-79403744D01*
X144900000Y-79441154D01*
X144936888Y-79466304D01*
X144972981Y-79486012D01*
X145046319Y-79540912D01*
X145122282Y-79592703D01*
X145150589Y-79618968D01*
X145178537Y-79639890D01*
X145247997Y-79709350D01*
X145319493Y-79775689D01*
X145339799Y-79801152D01*
X145360109Y-79821462D01*
X145423099Y-79905607D01*
X145487230Y-79986024D01*
X145500482Y-80008978D01*
X145513987Y-80027018D01*
X145567856Y-80125672D01*
X145621744Y-80219009D01*
X145629213Y-80238040D01*
X145637046Y-80252385D01*
X145679207Y-80365423D01*
X145720031Y-80469441D01*
X145723227Y-80483446D01*
X145726782Y-80492976D01*
X145754809Y-80621816D01*
X145779895Y-80731724D01*
X145780513Y-80739975D01*
X145781361Y-80743872D01*
X145792985Y-80906395D01*
X145800000Y-81000000D01*
X145792984Y-81093611D01*
X145781361Y-81256127D01*
X145780513Y-81260022D01*
X145779895Y-81268276D01*
X145754804Y-81378203D01*
X145726782Y-81507023D01*
X145723228Y-81516551D01*
X145720031Y-81530559D01*
X145679199Y-81634595D01*
X145637046Y-81747614D01*
X145629214Y-81761956D01*
X145621744Y-81780991D01*
X145567846Y-81874344D01*
X145513987Y-81972981D01*
X145500485Y-81991016D01*
X145487230Y-82013976D01*
X145423087Y-82094407D01*
X145360109Y-82178537D01*
X145339803Y-82198842D01*
X145319493Y-82224311D01*
X145247984Y-82290661D01*
X145178537Y-82360109D01*
X145150595Y-82381026D01*
X145122282Y-82407297D01*
X145046304Y-82459097D01*
X144972981Y-82513987D01*
X144936895Y-82533690D01*
X144900000Y-82558846D01*
X144822303Y-82596262D01*
X144747614Y-82637046D01*
X144703276Y-82653583D01*
X144657614Y-82675573D01*
X144580764Y-82699277D01*
X144507023Y-82726782D01*
X144454690Y-82738166D01*
X144400538Y-82754870D01*
X144326841Y-82765978D01*
X144256127Y-82781361D01*
X144196478Y-82785627D01*
X144134514Y-82794967D01*
X144065895Y-82794967D01*
X144000000Y-82799680D01*
X143934105Y-82794967D01*
X143865486Y-82794967D01*
X143803521Y-82785627D01*
X143743872Y-82781361D01*
X143673155Y-82765977D01*
X143599462Y-82754870D01*
X143545311Y-82738166D01*
X143492976Y-82726782D01*
X143419229Y-82699276D01*
X143342386Y-82675573D01*
X143296726Y-82653584D01*
X143252385Y-82637046D01*
X143177688Y-82596258D01*
X143100000Y-82558846D01*
X143063108Y-82533693D01*
X143027018Y-82513987D01*
X142953684Y-82459089D01*
X142877718Y-82407297D01*
X142849409Y-82381029D01*
X142821462Y-82360109D01*
X142752002Y-82290649D01*
X142680507Y-82224311D01*
X142660200Y-82198847D01*
X142639890Y-82178537D01*
X142576895Y-82094387D01*
X142512770Y-82013976D01*
X142499517Y-81991022D01*
X142486012Y-81972981D01*
X142432135Y-81874312D01*
X142378256Y-81780991D01*
X142370788Y-81761962D01*
X142362953Y-81747614D01*
X142320780Y-81634544D01*
X142279969Y-81530559D01*
X142276773Y-81516558D01*
X142273217Y-81507023D01*
X142245173Y-81378110D01*
X142220105Y-81268276D01*
X142219487Y-81260029D01*
X142218638Y-81256127D01*
X142206993Y-81093319D01*
X142200000Y-81000000D01*
X142206992Y-80906688D01*
X142218638Y-80743872D01*
X142219487Y-80739968D01*
X142220105Y-80731724D01*
X142245169Y-80621910D01*
X142273217Y-80492976D01*
X142276773Y-80483439D01*
X142279969Y-80469441D01*
X142320772Y-80365474D01*
X142362953Y-80252385D01*
X142370789Y-80238033D01*
X142378256Y-80219009D01*
X142432125Y-80125704D01*
X142486012Y-80027018D01*
X142499520Y-80008972D01*
X142512770Y-79986024D01*
X142576883Y-79905628D01*
X142639890Y-79821462D01*
X142660204Y-79801147D01*
X142680507Y-79775689D01*
X142751988Y-79709363D01*
X142821462Y-79639890D01*
X142849414Y-79618964D01*
X142877718Y-79592703D01*
X142953669Y-79540920D01*
X143027018Y-79486012D01*
X143063115Y-79466301D01*
X143100000Y-79441154D01*
X143177672Y-79403748D01*
X143252385Y-79362953D01*
X143296735Y-79346410D01*
X143342386Y-79324427D01*
X143419214Y-79300728D01*
X143492976Y-79273217D01*
X143545322Y-79261829D01*
X143599462Y-79245130D01*
X143673140Y-79234024D01*
X143743872Y-79218638D01*
X143803534Y-79214370D01*
X143865486Y-79205033D01*
X143934091Y-79205033D01*
X144000000Y-79200319D01*
X144065909Y-79205033D01*
G37*
G36*
X119046562Y-80054586D02*
G01*
X119087604Y-80054586D01*
X119133313Y-80063130D01*
X119185336Y-80068254D01*
X119224852Y-80080241D01*
X119259834Y-80086780D01*
X119308283Y-80105549D01*
X119363549Y-80122314D01*
X119395128Y-80139193D01*
X119423214Y-80150074D01*
X119472016Y-80180291D01*
X119527792Y-80210104D01*
X119551225Y-80229335D01*
X119572180Y-80242310D01*
X119618612Y-80284639D01*
X119671751Y-80328249D01*
X119687498Y-80347436D01*
X119701661Y-80360348D01*
X119742775Y-80414791D01*
X119789896Y-80472208D01*
X119799007Y-80489255D01*
X119807249Y-80500168D01*
X119840031Y-80566005D01*
X119877686Y-80636451D01*
X119881702Y-80649691D01*
X119885350Y-80657017D01*
X119906897Y-80732749D01*
X119931746Y-80814664D01*
X119932562Y-80822951D01*
X119933297Y-80825534D01*
X119940938Y-80907994D01*
X119950000Y-81000000D01*
X119940937Y-81092013D01*
X119933297Y-81174465D01*
X119932562Y-81177046D01*
X119931746Y-81185336D01*
X119906893Y-81267265D01*
X119885350Y-81342982D01*
X119881703Y-81350305D01*
X119877686Y-81363549D01*
X119840024Y-81434008D01*
X119807249Y-81499831D01*
X119799009Y-81510741D01*
X119789896Y-81527792D01*
X119742765Y-81585219D01*
X119701661Y-81639651D01*
X119687501Y-81652559D01*
X119671751Y-81671751D01*
X119618601Y-81715369D01*
X119572180Y-81757689D01*
X119551230Y-81770660D01*
X119527792Y-81789896D01*
X119472004Y-81819715D01*
X119423214Y-81849925D01*
X119395134Y-81860802D01*
X119363549Y-81877686D01*
X119308271Y-81894454D01*
X119259834Y-81913219D01*
X119224859Y-81919756D01*
X119185336Y-81931746D01*
X119133310Y-81936870D01*
X119087604Y-81945414D01*
X119046562Y-81945414D01*
X119000000Y-81950000D01*
X118953438Y-81945414D01*
X118912396Y-81945414D01*
X118866688Y-81936869D01*
X118814664Y-81931746D01*
X118775142Y-81919757D01*
X118740165Y-81913219D01*
X118691723Y-81894452D01*
X118636451Y-81877686D01*
X118604867Y-81860804D01*
X118576785Y-81849925D01*
X118527988Y-81819711D01*
X118472208Y-81789896D01*
X118448772Y-81770663D01*
X118427819Y-81757689D01*
X118381388Y-81715361D01*
X118328249Y-81671751D01*
X118312501Y-81652562D01*
X118298338Y-81639651D01*
X118257221Y-81585204D01*
X118210104Y-81527792D01*
X118200992Y-81510746D01*
X118192750Y-81499831D01*
X118159960Y-81433981D01*
X118122314Y-81363549D01*
X118118298Y-81350310D01*
X118114649Y-81342982D01*
X118093090Y-81267212D01*
X118068254Y-81185336D01*
X118067438Y-81177052D01*
X118066702Y-81174465D01*
X118059045Y-81091841D01*
X118050000Y-81000000D01*
X118059044Y-80908166D01*
X118066702Y-80825534D01*
X118067438Y-80822946D01*
X118068254Y-80814664D01*
X118093086Y-80732802D01*
X118114649Y-80657017D01*
X118118298Y-80649686D01*
X118122314Y-80636451D01*
X118159953Y-80566032D01*
X118192750Y-80500168D01*
X118200994Y-80489250D01*
X118210104Y-80472208D01*
X118257212Y-80414806D01*
X118298338Y-80360348D01*
X118312504Y-80347433D01*
X118328249Y-80328249D01*
X118381377Y-80284647D01*
X118427819Y-80242310D01*
X118448777Y-80229332D01*
X118472208Y-80210104D01*
X118527976Y-80180295D01*
X118576785Y-80150074D01*
X118604874Y-80139191D01*
X118636451Y-80122314D01*
X118691712Y-80105550D01*
X118740165Y-80086780D01*
X118775149Y-80080240D01*
X118814664Y-80068254D01*
X118866685Y-80063130D01*
X118912396Y-80054586D01*
X118953438Y-80054586D01*
X119000000Y-80050000D01*
X119046562Y-80054586D01*
G37*
G36*
X122266043Y-80053191D02*
G01*
X122298727Y-80057494D01*
X122306948Y-80061327D01*
X122326537Y-80065224D01*
X122352480Y-80082559D01*
X122363608Y-80087748D01*
X122370378Y-80094518D01*
X122391421Y-80108579D01*
X122405481Y-80129621D01*
X122412251Y-80136391D01*
X122417438Y-80147516D01*
X122434776Y-80173463D01*
X122438672Y-80193053D01*
X122442505Y-80201272D01*
X122446806Y-80233945D01*
X122450000Y-80250000D01*
X122450000Y-81750000D01*
X122446805Y-81766058D01*
X122442505Y-81798727D01*
X122438673Y-81806944D01*
X122434776Y-81826537D01*
X122417437Y-81852485D01*
X122412251Y-81863608D01*
X122405483Y-81870375D01*
X122391421Y-81891421D01*
X122370375Y-81905483D01*
X122363608Y-81912251D01*
X122352485Y-81917437D01*
X122326537Y-81934776D01*
X122306944Y-81938673D01*
X122298727Y-81942505D01*
X122266056Y-81946806D01*
X122250000Y-81950000D01*
X120750000Y-81950000D01*
X120733943Y-81946806D01*
X120701272Y-81942505D01*
X120693053Y-81938672D01*
X120673463Y-81934776D01*
X120647516Y-81917438D01*
X120636391Y-81912251D01*
X120629621Y-81905481D01*
X120608579Y-81891421D01*
X120594518Y-81870378D01*
X120587748Y-81863608D01*
X120582559Y-81852480D01*
X120565224Y-81826537D01*
X120561327Y-81806948D01*
X120557494Y-81798727D01*
X120553190Y-81766041D01*
X120550000Y-81750000D01*
X120550000Y-80250000D01*
X120553190Y-80233958D01*
X120557494Y-80201272D01*
X120561327Y-80193049D01*
X120565224Y-80173463D01*
X120582557Y-80147521D01*
X120587748Y-80136391D01*
X120594520Y-80129618D01*
X120608579Y-80108579D01*
X120629618Y-80094520D01*
X120636391Y-80087748D01*
X120647521Y-80082557D01*
X120673463Y-80065224D01*
X120693049Y-80061327D01*
X120701272Y-80057494D01*
X120733960Y-80053190D01*
X120750000Y-80050000D01*
X122250000Y-80050000D01*
X122266043Y-80053191D01*
G37*
G36*
X124046562Y-80054586D02*
G01*
X124087604Y-80054586D01*
X124133313Y-80063130D01*
X124185336Y-80068254D01*
X124224852Y-80080241D01*
X124259834Y-80086780D01*
X124308283Y-80105549D01*
X124363549Y-80122314D01*
X124395128Y-80139193D01*
X124423214Y-80150074D01*
X124472016Y-80180291D01*
X124527792Y-80210104D01*
X124551225Y-80229335D01*
X124572180Y-80242310D01*
X124618612Y-80284639D01*
X124671751Y-80328249D01*
X124687498Y-80347436D01*
X124701661Y-80360348D01*
X124742775Y-80414791D01*
X124789896Y-80472208D01*
X124799007Y-80489255D01*
X124807249Y-80500168D01*
X124840031Y-80566005D01*
X124877686Y-80636451D01*
X124881702Y-80649691D01*
X124885350Y-80657017D01*
X124906897Y-80732749D01*
X124931746Y-80814664D01*
X124932562Y-80822951D01*
X124933297Y-80825534D01*
X124940938Y-80907994D01*
X124950000Y-81000000D01*
X124940937Y-81092013D01*
X124933297Y-81174465D01*
X124932562Y-81177046D01*
X124931746Y-81185336D01*
X124906893Y-81267265D01*
X124885350Y-81342982D01*
X124881703Y-81350305D01*
X124877686Y-81363549D01*
X124840024Y-81434008D01*
X124807249Y-81499831D01*
X124799009Y-81510741D01*
X124789896Y-81527792D01*
X124742765Y-81585219D01*
X124701661Y-81639651D01*
X124687501Y-81652559D01*
X124671751Y-81671751D01*
X124618601Y-81715369D01*
X124572180Y-81757689D01*
X124551230Y-81770660D01*
X124527792Y-81789896D01*
X124472004Y-81819715D01*
X124423214Y-81849925D01*
X124395134Y-81860802D01*
X124363549Y-81877686D01*
X124308271Y-81894454D01*
X124259834Y-81913219D01*
X124224859Y-81919756D01*
X124185336Y-81931746D01*
X124133310Y-81936870D01*
X124087604Y-81945414D01*
X124046562Y-81945414D01*
X124000000Y-81950000D01*
X123953438Y-81945414D01*
X123912396Y-81945414D01*
X123866688Y-81936869D01*
X123814664Y-81931746D01*
X123775142Y-81919757D01*
X123740165Y-81913219D01*
X123691723Y-81894452D01*
X123636451Y-81877686D01*
X123604867Y-81860804D01*
X123576785Y-81849925D01*
X123527988Y-81819711D01*
X123472208Y-81789896D01*
X123448772Y-81770663D01*
X123427819Y-81757689D01*
X123381388Y-81715361D01*
X123328249Y-81671751D01*
X123312501Y-81652562D01*
X123298338Y-81639651D01*
X123257221Y-81585204D01*
X123210104Y-81527792D01*
X123200992Y-81510746D01*
X123192750Y-81499831D01*
X123159960Y-81433981D01*
X123122314Y-81363549D01*
X123118298Y-81350310D01*
X123114649Y-81342982D01*
X123093090Y-81267212D01*
X123068254Y-81185336D01*
X123067438Y-81177052D01*
X123066702Y-81174465D01*
X123059045Y-81091841D01*
X123050000Y-81000000D01*
X123059044Y-80908166D01*
X123066702Y-80825534D01*
X123067438Y-80822946D01*
X123068254Y-80814664D01*
X123093086Y-80732802D01*
X123114649Y-80657017D01*
X123118298Y-80649686D01*
X123122314Y-80636451D01*
X123159953Y-80566032D01*
X123192750Y-80500168D01*
X123200994Y-80489250D01*
X123210104Y-80472208D01*
X123257212Y-80414806D01*
X123298338Y-80360348D01*
X123312504Y-80347433D01*
X123328249Y-80328249D01*
X123381377Y-80284647D01*
X123427819Y-80242310D01*
X123448777Y-80229332D01*
X123472208Y-80210104D01*
X123527976Y-80180295D01*
X123576785Y-80150074D01*
X123604874Y-80139191D01*
X123636451Y-80122314D01*
X123691712Y-80105550D01*
X123740165Y-80086780D01*
X123775149Y-80080240D01*
X123814664Y-80068254D01*
X123866685Y-80063130D01*
X123912396Y-80054586D01*
X123953438Y-80054586D01*
X124000000Y-80050000D01*
X124046562Y-80054586D01*
G37*
G36*
X132546562Y-80054586D02*
G01*
X132587604Y-80054586D01*
X132633313Y-80063130D01*
X132685336Y-80068254D01*
X132724852Y-80080241D01*
X132759834Y-80086780D01*
X132808283Y-80105549D01*
X132863549Y-80122314D01*
X132895128Y-80139193D01*
X132923214Y-80150074D01*
X132972016Y-80180291D01*
X133027792Y-80210104D01*
X133051225Y-80229335D01*
X133072180Y-80242310D01*
X133118612Y-80284639D01*
X133171751Y-80328249D01*
X133187498Y-80347436D01*
X133201661Y-80360348D01*
X133242775Y-80414791D01*
X133289896Y-80472208D01*
X133299007Y-80489255D01*
X133307249Y-80500168D01*
X133340031Y-80566005D01*
X133377686Y-80636451D01*
X133381702Y-80649691D01*
X133385350Y-80657017D01*
X133406897Y-80732749D01*
X133431746Y-80814664D01*
X133432562Y-80822951D01*
X133433297Y-80825534D01*
X133440938Y-80907994D01*
X133450000Y-81000000D01*
X133440937Y-81092013D01*
X133433297Y-81174465D01*
X133432562Y-81177046D01*
X133431746Y-81185336D01*
X133406893Y-81267265D01*
X133385350Y-81342982D01*
X133381703Y-81350305D01*
X133377686Y-81363549D01*
X133340024Y-81434008D01*
X133307249Y-81499831D01*
X133299009Y-81510741D01*
X133289896Y-81527792D01*
X133242765Y-81585219D01*
X133201661Y-81639651D01*
X133187501Y-81652559D01*
X133171751Y-81671751D01*
X133118601Y-81715369D01*
X133072180Y-81757689D01*
X133051230Y-81770660D01*
X133027792Y-81789896D01*
X132972004Y-81819715D01*
X132923214Y-81849925D01*
X132895134Y-81860802D01*
X132863549Y-81877686D01*
X132808271Y-81894454D01*
X132759834Y-81913219D01*
X132724859Y-81919756D01*
X132685336Y-81931746D01*
X132633310Y-81936870D01*
X132587604Y-81945414D01*
X132546562Y-81945414D01*
X132500000Y-81950000D01*
X132453438Y-81945414D01*
X132412396Y-81945414D01*
X132366688Y-81936869D01*
X132314664Y-81931746D01*
X132275142Y-81919757D01*
X132240165Y-81913219D01*
X132191723Y-81894452D01*
X132136451Y-81877686D01*
X132104867Y-81860804D01*
X132076785Y-81849925D01*
X132027988Y-81819711D01*
X131972208Y-81789896D01*
X131948772Y-81770663D01*
X131927819Y-81757689D01*
X131881388Y-81715361D01*
X131828249Y-81671751D01*
X131812501Y-81652562D01*
X131798338Y-81639651D01*
X131757221Y-81585204D01*
X131710104Y-81527792D01*
X131700992Y-81510746D01*
X131692750Y-81499831D01*
X131659960Y-81433981D01*
X131622314Y-81363549D01*
X131618298Y-81350310D01*
X131614649Y-81342982D01*
X131593090Y-81267212D01*
X131568254Y-81185336D01*
X131567438Y-81177052D01*
X131566702Y-81174465D01*
X131559045Y-81091841D01*
X131550000Y-81000000D01*
X131559044Y-80908166D01*
X131566702Y-80825534D01*
X131567438Y-80822946D01*
X131568254Y-80814664D01*
X131593086Y-80732802D01*
X131614649Y-80657017D01*
X131618298Y-80649686D01*
X131622314Y-80636451D01*
X131659953Y-80566032D01*
X131692750Y-80500168D01*
X131700994Y-80489250D01*
X131710104Y-80472208D01*
X131757212Y-80414806D01*
X131798338Y-80360348D01*
X131812504Y-80347433D01*
X131828249Y-80328249D01*
X131881377Y-80284647D01*
X131927819Y-80242310D01*
X131948777Y-80229332D01*
X131972208Y-80210104D01*
X132027976Y-80180295D01*
X132076785Y-80150074D01*
X132104874Y-80139191D01*
X132136451Y-80122314D01*
X132191712Y-80105550D01*
X132240165Y-80086780D01*
X132275149Y-80080240D01*
X132314664Y-80068254D01*
X132366685Y-80063130D01*
X132412396Y-80054586D01*
X132453438Y-80054586D01*
X132500000Y-80050000D01*
X132546562Y-80054586D01*
G37*
G36*
X135766043Y-80053191D02*
G01*
X135798727Y-80057494D01*
X135806948Y-80061327D01*
X135826537Y-80065224D01*
X135852480Y-80082559D01*
X135863608Y-80087748D01*
X135870378Y-80094518D01*
X135891421Y-80108579D01*
X135905481Y-80129621D01*
X135912251Y-80136391D01*
X135917438Y-80147516D01*
X135934776Y-80173463D01*
X135938672Y-80193053D01*
X135942505Y-80201272D01*
X135946806Y-80233945D01*
X135950000Y-80250000D01*
X135950000Y-81750000D01*
X135946805Y-81766058D01*
X135942505Y-81798727D01*
X135938673Y-81806944D01*
X135934776Y-81826537D01*
X135917437Y-81852485D01*
X135912251Y-81863608D01*
X135905483Y-81870375D01*
X135891421Y-81891421D01*
X135870375Y-81905483D01*
X135863608Y-81912251D01*
X135852485Y-81917437D01*
X135826537Y-81934776D01*
X135806944Y-81938673D01*
X135798727Y-81942505D01*
X135766056Y-81946806D01*
X135750000Y-81950000D01*
X134250000Y-81950000D01*
X134233943Y-81946806D01*
X134201272Y-81942505D01*
X134193053Y-81938672D01*
X134173463Y-81934776D01*
X134147516Y-81917438D01*
X134136391Y-81912251D01*
X134129621Y-81905481D01*
X134108579Y-81891421D01*
X134094518Y-81870378D01*
X134087748Y-81863608D01*
X134082559Y-81852480D01*
X134065224Y-81826537D01*
X134061327Y-81806948D01*
X134057494Y-81798727D01*
X134053190Y-81766041D01*
X134050000Y-81750000D01*
X134050000Y-80250000D01*
X134053190Y-80233958D01*
X134057494Y-80201272D01*
X134061327Y-80193049D01*
X134065224Y-80173463D01*
X134082557Y-80147521D01*
X134087748Y-80136391D01*
X134094520Y-80129618D01*
X134108579Y-80108579D01*
X134129618Y-80094520D01*
X134136391Y-80087748D01*
X134147521Y-80082557D01*
X134173463Y-80065224D01*
X134193049Y-80061327D01*
X134201272Y-80057494D01*
X134233960Y-80053190D01*
X134250000Y-80050000D01*
X135750000Y-80050000D01*
X135766043Y-80053191D01*
G37*
G36*
X137546562Y-80054586D02*
G01*
X137587604Y-80054586D01*
X137633313Y-80063130D01*
X137685336Y-80068254D01*
X137724852Y-80080241D01*
X137759834Y-80086780D01*
X137808283Y-80105549D01*
X137863549Y-80122314D01*
X137895128Y-80139193D01*
X137923214Y-80150074D01*
X137972016Y-80180291D01*
X138027792Y-80210104D01*
X138051225Y-80229335D01*
X138072180Y-80242310D01*
X138118612Y-80284639D01*
X138171751Y-80328249D01*
X138187498Y-80347436D01*
X138201661Y-80360348D01*
X138242775Y-80414791D01*
X138289896Y-80472208D01*
X138299007Y-80489255D01*
X138307249Y-80500168D01*
X138340031Y-80566005D01*
X138377686Y-80636451D01*
X138381702Y-80649691D01*
X138385350Y-80657017D01*
X138406897Y-80732749D01*
X138431746Y-80814664D01*
X138432562Y-80822951D01*
X138433297Y-80825534D01*
X138440938Y-80907994D01*
X138450000Y-81000000D01*
X138440937Y-81092013D01*
X138433297Y-81174465D01*
X138432562Y-81177046D01*
X138431746Y-81185336D01*
X138406893Y-81267265D01*
X138385350Y-81342982D01*
X138381703Y-81350305D01*
X138377686Y-81363549D01*
X138340024Y-81434008D01*
X138307249Y-81499831D01*
X138299009Y-81510741D01*
X138289896Y-81527792D01*
X138242765Y-81585219D01*
X138201661Y-81639651D01*
X138187501Y-81652559D01*
X138171751Y-81671751D01*
X138118601Y-81715369D01*
X138072180Y-81757689D01*
X138051230Y-81770660D01*
X138027792Y-81789896D01*
X137972004Y-81819715D01*
X137923214Y-81849925D01*
X137895134Y-81860802D01*
X137863549Y-81877686D01*
X137808271Y-81894454D01*
X137759834Y-81913219D01*
X137724859Y-81919756D01*
X137685336Y-81931746D01*
X137633310Y-81936870D01*
X137587604Y-81945414D01*
X137546562Y-81945414D01*
X137500000Y-81950000D01*
X137453438Y-81945414D01*
X137412396Y-81945414D01*
X137366688Y-81936869D01*
X137314664Y-81931746D01*
X137275142Y-81919757D01*
X137240165Y-81913219D01*
X137191723Y-81894452D01*
X137136451Y-81877686D01*
X137104867Y-81860804D01*
X137076785Y-81849925D01*
X137027988Y-81819711D01*
X136972208Y-81789896D01*
X136948772Y-81770663D01*
X136927819Y-81757689D01*
X136881388Y-81715361D01*
X136828249Y-81671751D01*
X136812501Y-81652562D01*
X136798338Y-81639651D01*
X136757221Y-81585204D01*
X136710104Y-81527792D01*
X136700992Y-81510746D01*
X136692750Y-81499831D01*
X136659960Y-81433981D01*
X136622314Y-81363549D01*
X136618298Y-81350310D01*
X136614649Y-81342982D01*
X136593090Y-81267212D01*
X136568254Y-81185336D01*
X136567438Y-81177052D01*
X136566702Y-81174465D01*
X136559045Y-81091841D01*
X136550000Y-81000000D01*
X136559044Y-80908166D01*
X136566702Y-80825534D01*
X136567438Y-80822946D01*
X136568254Y-80814664D01*
X136593086Y-80732802D01*
X136614649Y-80657017D01*
X136618298Y-80649686D01*
X136622314Y-80636451D01*
X136659953Y-80566032D01*
X136692750Y-80500168D01*
X136700994Y-80489250D01*
X136710104Y-80472208D01*
X136757212Y-80414806D01*
X136798338Y-80360348D01*
X136812504Y-80347433D01*
X136828249Y-80328249D01*
X136881377Y-80284647D01*
X136927819Y-80242310D01*
X136948777Y-80229332D01*
X136972208Y-80210104D01*
X137027976Y-80180295D01*
X137076785Y-80150074D01*
X137104874Y-80139191D01*
X137136451Y-80122314D01*
X137191712Y-80105550D01*
X137240165Y-80086780D01*
X137275149Y-80080240D01*
X137314664Y-80068254D01*
X137366685Y-80063130D01*
X137412396Y-80054586D01*
X137453438Y-80054586D01*
X137500000Y-80050000D01*
X137546562Y-80054586D01*
G37*
G36*
X128048724Y-75384799D02*
G01*
X128092218Y-75384799D01*
X128140658Y-75393853D01*
X128195090Y-75399215D01*
X128236438Y-75411757D01*
X128273518Y-75418689D01*
X128324868Y-75438582D01*
X128382683Y-75456120D01*
X128415720Y-75473778D01*
X128445501Y-75485316D01*
X128497245Y-75517354D01*
X128555570Y-75548530D01*
X128580076Y-75568641D01*
X128602311Y-75582409D01*
X128651575Y-75627319D01*
X128707107Y-75672893D01*
X128723563Y-75692945D01*
X128738611Y-75706663D01*
X128782297Y-75764513D01*
X128831470Y-75824430D01*
X128840977Y-75842218D01*
X128849762Y-75853850D01*
X128884713Y-75924040D01*
X128923880Y-75997317D01*
X128928056Y-76011086D01*
X128931972Y-76018949D01*
X128955105Y-76100255D01*
X128980785Y-76184910D01*
X128981628Y-76193473D01*
X128982446Y-76196347D01*
X128990943Y-76288047D01*
X129000000Y-76380000D01*
X128990942Y-76471960D01*
X128982446Y-76563652D01*
X128981628Y-76566524D01*
X128980785Y-76575090D01*
X128955100Y-76659759D01*
X128931972Y-76741050D01*
X128928057Y-76748911D01*
X128923880Y-76762683D01*
X128884705Y-76835972D01*
X128849762Y-76906149D01*
X128840979Y-76917778D01*
X128831470Y-76935570D01*
X128782288Y-76995498D01*
X128738611Y-77053336D01*
X128723566Y-77067050D01*
X128707107Y-77087107D01*
X128651564Y-77132689D01*
X128602311Y-77177590D01*
X128580081Y-77191354D01*
X128555570Y-77211470D01*
X128497233Y-77242651D01*
X128445501Y-77274683D01*
X128415727Y-77286217D01*
X128382683Y-77303880D01*
X128324856Y-77321421D01*
X128273518Y-77341310D01*
X128236445Y-77348240D01*
X128195090Y-77360785D01*
X128140655Y-77366146D01*
X128092218Y-77375201D01*
X128048724Y-77375201D01*
X128000000Y-77380000D01*
X127951276Y-77375201D01*
X127907782Y-77375201D01*
X127859343Y-77366146D01*
X127804910Y-77360785D01*
X127763555Y-77348240D01*
X127726481Y-77341310D01*
X127675139Y-77321419D01*
X127617317Y-77303880D01*
X127584275Y-77286218D01*
X127554498Y-77274683D01*
X127502759Y-77242647D01*
X127444430Y-77211470D01*
X127419921Y-77191356D01*
X127397688Y-77177590D01*
X127348425Y-77132681D01*
X127292893Y-77087107D01*
X127276436Y-77067054D01*
X127261388Y-77053336D01*
X127217699Y-76995482D01*
X127168530Y-76935570D01*
X127159022Y-76917783D01*
X127150237Y-76906149D01*
X127115279Y-76835945D01*
X127076120Y-76762683D01*
X127071943Y-76748916D01*
X127068027Y-76741050D01*
X127044882Y-76659706D01*
X127019215Y-76575090D01*
X127018371Y-76566530D01*
X127017553Y-76563652D01*
X127009040Y-76471788D01*
X127000000Y-76380000D01*
X127009039Y-76288219D01*
X127017553Y-76196347D01*
X127018372Y-76193468D01*
X127019215Y-76184910D01*
X127044878Y-76100308D01*
X127068027Y-76018949D01*
X127071944Y-76011081D01*
X127076120Y-75997317D01*
X127115272Y-75924068D01*
X127150237Y-75853850D01*
X127159024Y-75842213D01*
X127168530Y-75824430D01*
X127217689Y-75764528D01*
X127261388Y-75706663D01*
X127276439Y-75692941D01*
X127292893Y-75672893D01*
X127348414Y-75627327D01*
X127397688Y-75582409D01*
X127419926Y-75568639D01*
X127444430Y-75548530D01*
X127502747Y-75517358D01*
X127554498Y-75485316D01*
X127584282Y-75473777D01*
X127617317Y-75456120D01*
X127675127Y-75438583D01*
X127726481Y-75418689D01*
X127763562Y-75411757D01*
X127804910Y-75399215D01*
X127859340Y-75393853D01*
X127907782Y-75384799D01*
X127951276Y-75384799D01*
X128000000Y-75380000D01*
X128048724Y-75384799D01*
G37*
G36*
X103248029Y-74740000D02*
G01*
X103301930Y-74740000D01*
X103349351Y-74748864D01*
X103391739Y-74752573D01*
X103443765Y-74766513D01*
X103502319Y-74777459D01*
X103542034Y-74792844D01*
X103577658Y-74802390D01*
X103631582Y-74827535D01*
X103692413Y-74851101D01*
X103723813Y-74870543D01*
X103752105Y-74883736D01*
X103805481Y-74921110D01*
X103865738Y-74958420D01*
X103888832Y-74979473D01*
X103909763Y-74994129D01*
X103959830Y-75044196D01*
X104016393Y-75095760D01*
X104031811Y-75116177D01*
X104045870Y-75130236D01*
X104089723Y-75192865D01*
X104139246Y-75258444D01*
X104148118Y-75276262D01*
X104156263Y-75287894D01*
X104190945Y-75362271D01*
X104230114Y-75440932D01*
X104234008Y-75454619D01*
X104237609Y-75462341D01*
X104260300Y-75547026D01*
X104285903Y-75637010D01*
X104286691Y-75645518D01*
X104287426Y-75648260D01*
X104295547Y-75741089D01*
X104304713Y-75840000D01*
X104295546Y-75938919D01*
X104287426Y-76031739D01*
X104286691Y-76034479D01*
X104285903Y-76042990D01*
X104260295Y-76132990D01*
X104237609Y-76217658D01*
X104234009Y-76225377D01*
X104230114Y-76239068D01*
X104190938Y-76317743D01*
X104156263Y-76392105D01*
X104148120Y-76403734D01*
X104139246Y-76421556D01*
X104089713Y-76487147D01*
X104045870Y-76549763D01*
X104031814Y-76563818D01*
X104016393Y-76584240D01*
X103959819Y-76635813D01*
X103909763Y-76685870D01*
X103888837Y-76700522D01*
X103865738Y-76721580D01*
X103805469Y-76758897D01*
X103752105Y-76796263D01*
X103723819Y-76809452D01*
X103692413Y-76828899D01*
X103631569Y-76852469D01*
X103577658Y-76877609D01*
X103542042Y-76887152D01*
X103502319Y-76902541D01*
X103443753Y-76913488D01*
X103391739Y-76927426D01*
X103349361Y-76931133D01*
X103301930Y-76940000D01*
X103248018Y-76940000D01*
X103200000Y-76944201D01*
X103151982Y-76940000D01*
X103098070Y-76940000D01*
X103050639Y-76931133D01*
X103008260Y-76927426D01*
X102956243Y-76913488D01*
X102897681Y-76902541D01*
X102857959Y-76887152D01*
X102822341Y-76877609D01*
X102768424Y-76852467D01*
X102707587Y-76828899D01*
X102676183Y-76809454D01*
X102647894Y-76796263D01*
X102594522Y-76758891D01*
X102534262Y-76721580D01*
X102511166Y-76700525D01*
X102490236Y-76685870D01*
X102440169Y-76635803D01*
X102383607Y-76584240D01*
X102368188Y-76563822D01*
X102354129Y-76549763D01*
X102310272Y-76487128D01*
X102260754Y-76421556D01*
X102251882Y-76403739D01*
X102243736Y-76392105D01*
X102209045Y-76317712D01*
X102169886Y-76239068D01*
X102165992Y-76225383D01*
X102162390Y-76217658D01*
X102139687Y-76132929D01*
X102114097Y-76042990D01*
X102113308Y-76034485D01*
X102112573Y-76031739D01*
X102104435Y-75938725D01*
X102095287Y-75840000D01*
X102104434Y-75741282D01*
X102112573Y-75648260D01*
X102113309Y-75645512D01*
X102114097Y-75637010D01*
X102139682Y-75547086D01*
X102162390Y-75462341D01*
X102165993Y-75454614D01*
X102169886Y-75440932D01*
X102209038Y-75362302D01*
X102243736Y-75287894D01*
X102251883Y-75276257D01*
X102260754Y-75258444D01*
X102310262Y-75192883D01*
X102354129Y-75130236D01*
X102368191Y-75116173D01*
X102383607Y-75095760D01*
X102440157Y-75044207D01*
X102490236Y-74994129D01*
X102511171Y-74979470D01*
X102534262Y-74958420D01*
X102594509Y-74921115D01*
X102647894Y-74883736D01*
X102676189Y-74870541D01*
X102707587Y-74851101D01*
X102768411Y-74827537D01*
X102822341Y-74802390D01*
X102857967Y-74792843D01*
X102897681Y-74777459D01*
X102956231Y-74766514D01*
X103008260Y-74752573D01*
X103050649Y-74748864D01*
X103098070Y-74740000D01*
X103151971Y-74740000D01*
X103200000Y-74735798D01*
X103248029Y-74740000D01*
G37*
G36*
X137148724Y-74104799D02*
G01*
X137192218Y-74104799D01*
X137240658Y-74113853D01*
X137295090Y-74119215D01*
X137336438Y-74131757D01*
X137373518Y-74138689D01*
X137424868Y-74158582D01*
X137482683Y-74176120D01*
X137515720Y-74193778D01*
X137545501Y-74205316D01*
X137597245Y-74237354D01*
X137655570Y-74268530D01*
X137680076Y-74288641D01*
X137702311Y-74302409D01*
X137751575Y-74347319D01*
X137807107Y-74392893D01*
X137823563Y-74412945D01*
X137838611Y-74426663D01*
X137882297Y-74484513D01*
X137931470Y-74544430D01*
X137940977Y-74562218D01*
X137949762Y-74573850D01*
X137984713Y-74644040D01*
X138023880Y-74717317D01*
X138028056Y-74731086D01*
X138031972Y-74738949D01*
X138055105Y-74820255D01*
X138080785Y-74904910D01*
X138081628Y-74913473D01*
X138082446Y-74916347D01*
X138090943Y-75008047D01*
X138100000Y-75100000D01*
X138090942Y-75191960D01*
X138082446Y-75283652D01*
X138081628Y-75286524D01*
X138080785Y-75295090D01*
X138055100Y-75379759D01*
X138031972Y-75461050D01*
X138028057Y-75468911D01*
X138023880Y-75482683D01*
X137984705Y-75555972D01*
X137949762Y-75626149D01*
X137940979Y-75637778D01*
X137931470Y-75655570D01*
X137882288Y-75715498D01*
X137838611Y-75773336D01*
X137823566Y-75787050D01*
X137807107Y-75807107D01*
X137751564Y-75852689D01*
X137702311Y-75897590D01*
X137680081Y-75911354D01*
X137655570Y-75931470D01*
X137597233Y-75962651D01*
X137545501Y-75994683D01*
X137515727Y-76006217D01*
X137482683Y-76023880D01*
X137424856Y-76041421D01*
X137373518Y-76061310D01*
X137336445Y-76068240D01*
X137295090Y-76080785D01*
X137240655Y-76086146D01*
X137192218Y-76095201D01*
X137148724Y-76095201D01*
X137100000Y-76100000D01*
X137051276Y-76095201D01*
X137007782Y-76095201D01*
X136959343Y-76086146D01*
X136904910Y-76080785D01*
X136863555Y-76068240D01*
X136826481Y-76061310D01*
X136775139Y-76041419D01*
X136717317Y-76023880D01*
X136684275Y-76006218D01*
X136654498Y-75994683D01*
X136602759Y-75962647D01*
X136544430Y-75931470D01*
X136519921Y-75911356D01*
X136497688Y-75897590D01*
X136448425Y-75852681D01*
X136392893Y-75807107D01*
X136376436Y-75787054D01*
X136361388Y-75773336D01*
X136317699Y-75715482D01*
X136268530Y-75655570D01*
X136259022Y-75637783D01*
X136250237Y-75626149D01*
X136215279Y-75555945D01*
X136176120Y-75482683D01*
X136171943Y-75468916D01*
X136168027Y-75461050D01*
X136144882Y-75379706D01*
X136119215Y-75295090D01*
X136118371Y-75286530D01*
X136117553Y-75283652D01*
X136109040Y-75191788D01*
X136100000Y-75100000D01*
X136109039Y-75008219D01*
X136117553Y-74916347D01*
X136118372Y-74913468D01*
X136119215Y-74904910D01*
X136144878Y-74820308D01*
X136168027Y-74738949D01*
X136171944Y-74731081D01*
X136176120Y-74717317D01*
X136215272Y-74644068D01*
X136250237Y-74573850D01*
X136259024Y-74562213D01*
X136268530Y-74544430D01*
X136317689Y-74484528D01*
X136361388Y-74426663D01*
X136376439Y-74412941D01*
X136392893Y-74392893D01*
X136448414Y-74347327D01*
X136497688Y-74302409D01*
X136519926Y-74288639D01*
X136544430Y-74268530D01*
X136602747Y-74237358D01*
X136654498Y-74205316D01*
X136684282Y-74193777D01*
X136717317Y-74176120D01*
X136775127Y-74158583D01*
X136826481Y-74138689D01*
X136863562Y-74131757D01*
X136904910Y-74119215D01*
X136959340Y-74113853D01*
X137007782Y-74104799D01*
X137051276Y-74104799D01*
X137100000Y-74100000D01*
X137148724Y-74104799D01*
G37*
G36*
X145108580Y-66300000D02*
G01*
X145211075Y-66300000D01*
X145319343Y-66309744D01*
X145434124Y-66315051D01*
X145535629Y-66329210D01*
X145631535Y-66337842D01*
X145744602Y-66358360D01*
X145864545Y-66375092D01*
X145958270Y-66397135D01*
X146046906Y-66413221D01*
X146163663Y-66445443D01*
X146287590Y-66474591D01*
X146372983Y-66503212D01*
X146453840Y-66525527D01*
X146573067Y-66570273D01*
X146699649Y-66612700D01*
X146776358Y-66646570D01*
X146849079Y-66673863D01*
X146969392Y-66731802D01*
X147097208Y-66788239D01*
X147165055Y-66826029D01*
X147229426Y-66857029D01*
X147349372Y-66928693D01*
X147476874Y-66999711D01*
X147535818Y-67040089D01*
X147591823Y-67073550D01*
X147709893Y-67159333D01*
X147835408Y-67245313D01*
X147885599Y-67286991D01*
X147933355Y-67321688D01*
X148047915Y-67421777D01*
X148169751Y-67522948D01*
X148211502Y-67564699D01*
X148251266Y-67599440D01*
X148360664Y-67713861D01*
X148477052Y-67830249D01*
X148510801Y-67870892D01*
X148543003Y-67904572D01*
X148645578Y-68033198D01*
X148754687Y-68164592D01*
X148781032Y-68203051D01*
X148806209Y-68234622D01*
X148900241Y-68377074D01*
X149000289Y-68523126D01*
X149019953Y-68558430D01*
X149038775Y-68586944D01*
X149122603Y-68742722D01*
X149211761Y-68902792D01*
X149225570Y-68934067D01*
X149238822Y-68958693D01*
X149310815Y-69127128D01*
X149387300Y-69300351D01*
X149396186Y-69326864D01*
X149404739Y-69346874D01*
X149463255Y-69526970D01*
X149525409Y-69712410D01*
X149530391Y-69733595D01*
X149535191Y-69748366D01*
X149578694Y-69938966D01*
X149624908Y-70135455D01*
X149627055Y-70150848D01*
X149629129Y-70159934D01*
X149656199Y-70359779D01*
X149684949Y-70565876D01*
X149685379Y-70575195D01*
X149685797Y-70578275D01*
X149695126Y-70786019D01*
X149705020Y-71000000D01*
X149695126Y-71213997D01*
X149685797Y-71421724D01*
X149685379Y-71424802D01*
X149684949Y-71434124D01*
X149656195Y-71640253D01*
X149629129Y-71840065D01*
X149627055Y-71849148D01*
X149624908Y-71864545D01*
X149578686Y-72061066D01*
X149535191Y-72251633D01*
X149530392Y-72266401D01*
X149525409Y-72287590D01*
X149463244Y-72473061D01*
X149404739Y-72653125D01*
X149396187Y-72673131D01*
X149387300Y-72699649D01*
X149310801Y-72872901D01*
X149238822Y-73041306D01*
X149225572Y-73065926D01*
X149211761Y-73097208D01*
X149122587Y-73257305D01*
X149038775Y-73413055D01*
X149019957Y-73441562D01*
X149000289Y-73476874D01*
X148900222Y-73622952D01*
X148806209Y-73765377D01*
X148781037Y-73796940D01*
X148754687Y-73835408D01*
X148645558Y-73966826D01*
X148543003Y-74095427D01*
X148510807Y-74129100D01*
X148477052Y-74169751D01*
X148360642Y-74286160D01*
X148251266Y-74400559D01*
X148211510Y-74435292D01*
X148169751Y-74477052D01*
X148047892Y-74578242D01*
X147933355Y-74678311D01*
X147885609Y-74713000D01*
X147835408Y-74754687D01*
X147709869Y-74840683D01*
X147591823Y-74926449D01*
X147535830Y-74959902D01*
X147476874Y-75000289D01*
X147349347Y-75071320D01*
X147229426Y-75142970D01*
X147165068Y-75173962D01*
X147097208Y-75211761D01*
X146969367Y-75268208D01*
X146849079Y-75326136D01*
X146776373Y-75353422D01*
X146699649Y-75387300D01*
X146573042Y-75429734D01*
X146453840Y-75474472D01*
X146373000Y-75496782D01*
X146287590Y-75525409D01*
X146163638Y-75554561D01*
X146046906Y-75586778D01*
X145958288Y-75602859D01*
X145864545Y-75624908D01*
X145744578Y-75641642D01*
X145631535Y-75662157D01*
X145535644Y-75670787D01*
X145434124Y-75684949D01*
X145319337Y-75690255D01*
X145211075Y-75700000D01*
X145108580Y-75700000D01*
X145000000Y-75705020D01*
X144891420Y-75700000D01*
X144788925Y-75700000D01*
X144680661Y-75690255D01*
X144565876Y-75684949D01*
X144464356Y-75670787D01*
X144368464Y-75662157D01*
X144255417Y-75641642D01*
X144135455Y-75624908D01*
X144041714Y-75602860D01*
X143953093Y-75586778D01*
X143836354Y-75554560D01*
X143712410Y-75525409D01*
X143627004Y-75496783D01*
X143546159Y-75474472D01*
X143426947Y-75429731D01*
X143300351Y-75387300D01*
X143223631Y-75353425D01*
X143150920Y-75326136D01*
X143030620Y-75268202D01*
X142902792Y-75211761D01*
X142834937Y-75173966D01*
X142770573Y-75142970D01*
X142650637Y-75071312D01*
X142523126Y-75000289D01*
X142464176Y-74959907D01*
X142408176Y-74926449D01*
X142290113Y-74840671D01*
X142164592Y-74754687D01*
X142114397Y-74713006D01*
X142066644Y-74678311D01*
X141952087Y-74578225D01*
X141830249Y-74477052D01*
X141788496Y-74435299D01*
X141748733Y-74400559D01*
X141639334Y-74286137D01*
X141522948Y-74169751D01*
X141489198Y-74129108D01*
X141456996Y-74095427D01*
X141354415Y-73966795D01*
X141245313Y-73835408D01*
X141218968Y-73796949D01*
X141193790Y-73765377D01*
X141099749Y-73622912D01*
X140999711Y-73476874D01*
X140980048Y-73441572D01*
X140961224Y-73413055D01*
X140877382Y-73257252D01*
X140788239Y-73097208D01*
X140774431Y-73065937D01*
X140761177Y-73041306D01*
X140689166Y-72872830D01*
X140612700Y-72699649D01*
X140603815Y-72673142D01*
X140595260Y-72653125D01*
X140536722Y-72472964D01*
X140474591Y-72287590D01*
X140469610Y-72266412D01*
X140464808Y-72251633D01*
X140421279Y-72060922D01*
X140375092Y-71864545D01*
X140372945Y-71849160D01*
X140370870Y-71840065D01*
X140343770Y-71640006D01*
X140315051Y-71434124D01*
X140314620Y-71424813D01*
X140314202Y-71421724D01*
X140304838Y-71213241D01*
X140294980Y-71000000D01*
X140304838Y-70786775D01*
X140314202Y-70578275D01*
X140314620Y-70575184D01*
X140315051Y-70565876D01*
X140343765Y-70360027D01*
X140370870Y-70159934D01*
X140372946Y-70150837D01*
X140375092Y-70135455D01*
X140421271Y-69939110D01*
X140464808Y-69748366D01*
X140469610Y-69733584D01*
X140474591Y-69712410D01*
X140536711Y-69527067D01*
X140595260Y-69346874D01*
X140603817Y-69326853D01*
X140612700Y-69300351D01*
X140689153Y-69127199D01*
X140761177Y-68958693D01*
X140774434Y-68934057D01*
X140788239Y-68902792D01*
X140877367Y-68742775D01*
X140961224Y-68586944D01*
X140980051Y-68558421D01*
X140999711Y-68523126D01*
X141099731Y-68377114D01*
X141193790Y-68234622D01*
X141218973Y-68203043D01*
X141245313Y-68164592D01*
X141354395Y-68033228D01*
X141456996Y-67904572D01*
X141489205Y-67870884D01*
X141522948Y-67830249D01*
X141639312Y-67713884D01*
X141748733Y-67599440D01*
X141788504Y-67564692D01*
X141830249Y-67522948D01*
X141952064Y-67421793D01*
X142066644Y-67321688D01*
X142114407Y-67286985D01*
X142164592Y-67245313D01*
X142290089Y-67159345D01*
X142408176Y-67073550D01*
X142464187Y-67040084D01*
X142523126Y-66999711D01*
X142650612Y-66928701D01*
X142770573Y-66857029D01*
X142834950Y-66826026D01*
X142902792Y-66788239D01*
X143030595Y-66731808D01*
X143150920Y-66673863D01*
X143223646Y-66646568D01*
X143300351Y-66612700D01*
X143426923Y-66570277D01*
X143546159Y-66525527D01*
X143627021Y-66503210D01*
X143712410Y-66474591D01*
X143836329Y-66445445D01*
X143953093Y-66413221D01*
X144041732Y-66397135D01*
X144135455Y-66375092D01*
X144255393Y-66358361D01*
X144368464Y-66337842D01*
X144464372Y-66329210D01*
X144565876Y-66315051D01*
X144680656Y-66309744D01*
X144788925Y-66300000D01*
X144891420Y-66300000D01*
X145000000Y-66294980D01*
X145108580Y-66300000D01*
G37*
G36*
X104150023Y-72202650D02*
G01*
X104162670Y-72208547D01*
X104178036Y-72211604D01*
X104198389Y-72225204D01*
X104216485Y-72233642D01*
X104227493Y-72244650D01*
X104244192Y-72255808D01*
X104255349Y-72272506D01*
X104266357Y-72283514D01*
X104274794Y-72301607D01*
X104288396Y-72321964D01*
X104291452Y-72337331D01*
X104297349Y-72349976D01*
X104300000Y-72370111D01*
X104300000Y-74229888D01*
X104297349Y-74250023D01*
X104291453Y-74262666D01*
X104288396Y-74278036D01*
X104274792Y-74298394D01*
X104266357Y-74316485D01*
X104255351Y-74327490D01*
X104244192Y-74344192D01*
X104227490Y-74355351D01*
X104216485Y-74366357D01*
X104198394Y-74374792D01*
X104178036Y-74388396D01*
X104162666Y-74391453D01*
X104150023Y-74397349D01*
X104129889Y-74400000D01*
X104119698Y-74400000D01*
X102280302Y-74400000D01*
X102270111Y-74400000D01*
X102249976Y-74397349D01*
X102237331Y-74391452D01*
X102221964Y-74388396D01*
X102201607Y-74374794D01*
X102183514Y-74366357D01*
X102172506Y-74355349D01*
X102155808Y-74344192D01*
X102144650Y-74327493D01*
X102133642Y-74316485D01*
X102125204Y-74298389D01*
X102111604Y-74278036D01*
X102108547Y-74262670D01*
X102102650Y-74250023D01*
X102100000Y-74229888D01*
X102100000Y-72370111D01*
X102102650Y-72349976D01*
X102108547Y-72337327D01*
X102111604Y-72321964D01*
X102125202Y-72301612D01*
X102133642Y-72283514D01*
X102144652Y-72272503D01*
X102155808Y-72255808D01*
X102172503Y-72244652D01*
X102183514Y-72233642D01*
X102201612Y-72225202D01*
X102221964Y-72211604D01*
X102237327Y-72208547D01*
X102249976Y-72202650D01*
X102270111Y-72200000D01*
X104129889Y-72200000D01*
X104150023Y-72202650D01*
G37*
G36*
X137148724Y-71604799D02*
G01*
X137192218Y-71604799D01*
X137240658Y-71613853D01*
X137295090Y-71619215D01*
X137336438Y-71631757D01*
X137373518Y-71638689D01*
X137424868Y-71658582D01*
X137482683Y-71676120D01*
X137515720Y-71693778D01*
X137545501Y-71705316D01*
X137597245Y-71737354D01*
X137655570Y-71768530D01*
X137680076Y-71788641D01*
X137702311Y-71802409D01*
X137751575Y-71847319D01*
X137807107Y-71892893D01*
X137823563Y-71912945D01*
X137838611Y-71926663D01*
X137882297Y-71984513D01*
X137931470Y-72044430D01*
X137940977Y-72062218D01*
X137949762Y-72073850D01*
X137984713Y-72144040D01*
X138023880Y-72217317D01*
X138028056Y-72231086D01*
X138031972Y-72238949D01*
X138055105Y-72320255D01*
X138080785Y-72404910D01*
X138081628Y-72413473D01*
X138082446Y-72416347D01*
X138090943Y-72508047D01*
X138100000Y-72600000D01*
X138090942Y-72691960D01*
X138082446Y-72783652D01*
X138081628Y-72786524D01*
X138080785Y-72795090D01*
X138055100Y-72879759D01*
X138031972Y-72961050D01*
X138028057Y-72968911D01*
X138023880Y-72982683D01*
X137984705Y-73055972D01*
X137949762Y-73126149D01*
X137940979Y-73137778D01*
X137931470Y-73155570D01*
X137882288Y-73215498D01*
X137838611Y-73273336D01*
X137823566Y-73287050D01*
X137807107Y-73307107D01*
X137751564Y-73352689D01*
X137702311Y-73397590D01*
X137680081Y-73411354D01*
X137655570Y-73431470D01*
X137597233Y-73462651D01*
X137545501Y-73494683D01*
X137515727Y-73506217D01*
X137482683Y-73523880D01*
X137424856Y-73541421D01*
X137373518Y-73561310D01*
X137336445Y-73568240D01*
X137295090Y-73580785D01*
X137240655Y-73586146D01*
X137192218Y-73595201D01*
X137148724Y-73595201D01*
X137100000Y-73600000D01*
X137051276Y-73595201D01*
X137007782Y-73595201D01*
X136959343Y-73586146D01*
X136904910Y-73580785D01*
X136863555Y-73568240D01*
X136826481Y-73561310D01*
X136775139Y-73541419D01*
X136717317Y-73523880D01*
X136684275Y-73506218D01*
X136654498Y-73494683D01*
X136602759Y-73462647D01*
X136544430Y-73431470D01*
X136519921Y-73411356D01*
X136497688Y-73397590D01*
X136448425Y-73352681D01*
X136392893Y-73307107D01*
X136376436Y-73287054D01*
X136361388Y-73273336D01*
X136317699Y-73215482D01*
X136268530Y-73155570D01*
X136259022Y-73137783D01*
X136250237Y-73126149D01*
X136215279Y-73055945D01*
X136176120Y-72982683D01*
X136171943Y-72968916D01*
X136168027Y-72961050D01*
X136144882Y-72879706D01*
X136119215Y-72795090D01*
X136118371Y-72786530D01*
X136117553Y-72783652D01*
X136109040Y-72691788D01*
X136100000Y-72600000D01*
X136109039Y-72508219D01*
X136117553Y-72416347D01*
X136118372Y-72413468D01*
X136119215Y-72404910D01*
X136144878Y-72320308D01*
X136168027Y-72238949D01*
X136171944Y-72231081D01*
X136176120Y-72217317D01*
X136215272Y-72144068D01*
X136250237Y-72073850D01*
X136259024Y-72062213D01*
X136268530Y-72044430D01*
X136317689Y-71984528D01*
X136361388Y-71926663D01*
X136376439Y-71912941D01*
X136392893Y-71892893D01*
X136448414Y-71847327D01*
X136497688Y-71802409D01*
X136519926Y-71788639D01*
X136544430Y-71768530D01*
X136602747Y-71737358D01*
X136654498Y-71705316D01*
X136684282Y-71693777D01*
X136717317Y-71676120D01*
X136775127Y-71658583D01*
X136826481Y-71638689D01*
X136863562Y-71631757D01*
X136904910Y-71619215D01*
X136959340Y-71613853D01*
X137007782Y-71604799D01*
X137051276Y-71604799D01*
X137100000Y-71600000D01*
X137148724Y-71604799D01*
G37*
G36*
X137096893Y-57300000D02*
G01*
X137187640Y-57300000D01*
X137284148Y-57309813D01*
X137387286Y-57315219D01*
X137476930Y-57329417D01*
X137561009Y-57337967D01*
X137662171Y-57358756D01*
X137770329Y-57375887D01*
X137851951Y-57397757D01*
X137928608Y-57413511D01*
X138033108Y-57446298D01*
X138144932Y-57476261D01*
X138217983Y-57504302D01*
X138286675Y-57525855D01*
X138393068Y-57571512D01*
X138506991Y-57615243D01*
X138571141Y-57647929D01*
X138631558Y-57673856D01*
X138738247Y-57733073D01*
X138852539Y-57791308D01*
X138907677Y-57827115D01*
X138959674Y-57855976D01*
X139064943Y-57929245D01*
X139177790Y-58002529D01*
X139224022Y-58039966D01*
X139267705Y-58070371D01*
X139369766Y-58157987D01*
X139479181Y-58246590D01*
X139516825Y-58284234D01*
X139552451Y-58314818D01*
X139649414Y-58416823D01*
X139753410Y-58520819D01*
X139782975Y-58557330D01*
X139811014Y-58586826D01*
X139900996Y-58703073D01*
X139997471Y-58822210D01*
X140019644Y-58856353D01*
X140040726Y-58883589D01*
X140121785Y-59013636D01*
X140208692Y-59147461D01*
X140224336Y-59178165D01*
X140239239Y-59202074D01*
X140309463Y-59345235D01*
X140384757Y-59493009D01*
X140394863Y-59519336D01*
X140404514Y-59539011D01*
X140462061Y-59694393D01*
X140523739Y-59855068D01*
X140529416Y-59876255D01*
X140534851Y-59890930D01*
X140577934Y-60057329D01*
X140624113Y-60229671D01*
X140626565Y-60245153D01*
X140628917Y-60254237D01*
X140655889Y-60430300D01*
X140684781Y-60612714D01*
X140685272Y-60622100D01*
X140685747Y-60625195D01*
X140695069Y-60809029D01*
X140705078Y-61000000D01*
X140695068Y-61190986D01*
X140685747Y-61374804D01*
X140685273Y-61377897D01*
X140684781Y-61387286D01*
X140655884Y-61569728D01*
X140628917Y-61745762D01*
X140626565Y-61754843D01*
X140624113Y-61770329D01*
X140577926Y-61942699D01*
X140534851Y-62109069D01*
X140529417Y-62123740D01*
X140523739Y-62144932D01*
X140462051Y-62305633D01*
X140404514Y-62460988D01*
X140394864Y-62480658D01*
X140384757Y-62506991D01*
X140309449Y-62654790D01*
X140239239Y-62797925D01*
X140224339Y-62821829D01*
X140208692Y-62852539D01*
X140121769Y-62986387D01*
X140040726Y-63116410D01*
X140019648Y-63143640D01*
X139997471Y-63177790D01*
X139900978Y-63296948D01*
X139811014Y-63413173D01*
X139782981Y-63442663D01*
X139753410Y-63479181D01*
X139649395Y-63583195D01*
X139552451Y-63685181D01*
X139516832Y-63715758D01*
X139479181Y-63753410D01*
X139369745Y-63842028D01*
X139267705Y-63929628D01*
X139224030Y-63960025D01*
X139177790Y-63997471D01*
X139064922Y-64070768D01*
X138959674Y-64144023D01*
X138907688Y-64172877D01*
X138852539Y-64208692D01*
X138738225Y-64266937D01*
X138631558Y-64326143D01*
X138571154Y-64352064D01*
X138506991Y-64384757D01*
X138393046Y-64428496D01*
X138286675Y-64474144D01*
X138217997Y-64495691D01*
X138144932Y-64523739D01*
X138033086Y-64553707D01*
X137928608Y-64586488D01*
X137851967Y-64602238D01*
X137770329Y-64624113D01*
X137662150Y-64641246D01*
X137561009Y-64662032D01*
X137476943Y-64670580D01*
X137387286Y-64684781D01*
X137284143Y-64690186D01*
X137187640Y-64700000D01*
X137096893Y-64700000D01*
X137000000Y-64705078D01*
X136903107Y-64700000D01*
X136812360Y-64700000D01*
X136715855Y-64690186D01*
X136612714Y-64684781D01*
X136523057Y-64670580D01*
X136438990Y-64662032D01*
X136337845Y-64641246D01*
X136229671Y-64624113D01*
X136148035Y-64602238D01*
X136071391Y-64586488D01*
X135966906Y-64553705D01*
X135855068Y-64523739D01*
X135782006Y-64495693D01*
X135713324Y-64474144D01*
X135606943Y-64428492D01*
X135493009Y-64384757D01*
X135428851Y-64352067D01*
X135368441Y-64326143D01*
X135261762Y-64266931D01*
X135147461Y-64208692D01*
X135092317Y-64172881D01*
X135040325Y-64144023D01*
X134935062Y-64070758D01*
X134822210Y-63997471D01*
X134775975Y-63960030D01*
X134732294Y-63929628D01*
X134630236Y-63842014D01*
X134520819Y-63753410D01*
X134483173Y-63715764D01*
X134447548Y-63685181D01*
X134350584Y-63583175D01*
X134246590Y-63479181D01*
X134217024Y-63442670D01*
X134188985Y-63413173D01*
X134098998Y-63296920D01*
X134002529Y-63177790D01*
X133980357Y-63143648D01*
X133959273Y-63116410D01*
X133878205Y-62986348D01*
X133791308Y-62852539D01*
X133775665Y-62821838D01*
X133760760Y-62797925D01*
X133690523Y-62654737D01*
X133615243Y-62506991D01*
X133605138Y-62480668D01*
X133595485Y-62460988D01*
X133537920Y-62305559D01*
X133476261Y-62144932D01*
X133470585Y-62123750D01*
X133465148Y-62109069D01*
X133422043Y-61942588D01*
X133375887Y-61770329D01*
X133373435Y-61754853D01*
X133371082Y-61745762D01*
X133344084Y-61569536D01*
X133315219Y-61387286D01*
X133314727Y-61377907D01*
X133314252Y-61374804D01*
X133304900Y-61190396D01*
X133294922Y-61000000D01*
X133304899Y-60809618D01*
X133314252Y-60625195D01*
X133314727Y-60622090D01*
X133315219Y-60612714D01*
X133344079Y-60430493D01*
X133371082Y-60254237D01*
X133373436Y-60245144D01*
X133375887Y-60229671D01*
X133422035Y-60057440D01*
X133465148Y-59890930D01*
X133470586Y-59876245D01*
X133476261Y-59855068D01*
X133537909Y-59694467D01*
X133595485Y-59539011D01*
X133605140Y-59519327D01*
X133615243Y-59493009D01*
X133690510Y-59345288D01*
X133760760Y-59202074D01*
X133775668Y-59178156D01*
X133791308Y-59147461D01*
X133878189Y-59013674D01*
X133959273Y-58883589D01*
X133980361Y-58856345D01*
X134002529Y-58822210D01*
X134098981Y-58703101D01*
X134188985Y-58586826D01*
X134217029Y-58557322D01*
X134246590Y-58520819D01*
X134350565Y-58416843D01*
X134447548Y-58314818D01*
X134483180Y-58284228D01*
X134520819Y-58246590D01*
X134630216Y-58158002D01*
X134732294Y-58070371D01*
X134775983Y-58039962D01*
X134822210Y-58002529D01*
X134935041Y-57929255D01*
X135040325Y-57855976D01*
X135092328Y-57827111D01*
X135147461Y-57791308D01*
X135261740Y-57733079D01*
X135368441Y-57673856D01*
X135428863Y-57647926D01*
X135493009Y-57615243D01*
X135606921Y-57571515D01*
X135713324Y-57525855D01*
X135782021Y-57504301D01*
X135855068Y-57476261D01*
X135966885Y-57446299D01*
X136071391Y-57413511D01*
X136148051Y-57397756D01*
X136229671Y-57375887D01*
X136337824Y-57358757D01*
X136438990Y-57337967D01*
X136523071Y-57329416D01*
X136612714Y-57315219D01*
X136715850Y-57309813D01*
X136812360Y-57300000D01*
X136903107Y-57300000D01*
X137000000Y-57294922D01*
X137096893Y-57300000D01*
G37*
M02*
