G04 #@! TF.GenerationSoftware,KiCad,Pcbnew,7.0.8-7.0.8~ubuntu22.04.1*
G04 #@! TF.CreationDate,2024-03-20T18:35:26+09:00*
G04 #@! TF.ProjectId,emeater,656d6561-7465-4722-9e6b-696361645f70,rev?*
G04 #@! TF.SameCoordinates,Original*
G04 #@! TF.FileFunction,Copper,L1,Top*
G04 #@! TF.FilePolarity,Positive*
%FSLAX46Y46*%
G04 Gerber Fmt 4.6, Leading zero omitted, Abs format (unit mm)*
G04 Created by KiCad (PCBNEW 7.0.8-7.0.8~ubuntu22.04.1) date 2024-03-20 18:35:26*
%MOMM*%
%LPD*%
G01*
G04 APERTURE LIST*
G04 Aperture macros list*
%AMRoundRect*
0 Rectangle with rounded corners*
0 $1 Rounding radius*
0 $2 $3 $4 $5 $6 $7 $8 $9 X,Y pos of 4 corners*
0 Add a 4 corners polygon primitive as box body*
4,1,4,$2,$3,$4,$5,$6,$7,$8,$9,$2,$3,0*
0 Add four circle primitives for the rounded corners*
1,1,$1+$1,$2,$3*
1,1,$1+$1,$4,$5*
1,1,$1+$1,$6,$7*
1,1,$1+$1,$8,$9*
0 Add four rect primitives between the rounded corners*
20,1,$1+$1,$2,$3,$4,$5,0*
20,1,$1+$1,$4,$5,$6,$7,0*
20,1,$1+$1,$6,$7,$8,$9,0*
20,1,$1+$1,$8,$9,$2,$3,0*%
G04 Aperture macros list end*
%ADD10C,0.300000*%
G04 #@! TA.AperFunction,NonConductor*
%ADD11C,0.300000*%
G04 #@! TD*
G04 #@! TA.AperFunction,ComponentPad*
%ADD12C,1.600000*%
G04 #@! TD*
G04 #@! TA.AperFunction,ComponentPad*
%ADD13O,1.600000X1.600000*%
G04 #@! TD*
G04 #@! TA.AperFunction,ComponentPad*
%ADD14R,1.800000X1.800000*%
G04 #@! TD*
G04 #@! TA.AperFunction,ComponentPad*
%ADD15C,1.800000*%
G04 #@! TD*
G04 #@! TA.AperFunction,ComponentPad*
%ADD16C,9.000000*%
G04 #@! TD*
G04 #@! TA.AperFunction,ComponentPad*
%ADD17C,7.000000*%
G04 #@! TD*
G04 #@! TA.AperFunction,ComponentPad*
%ADD18R,2.100000X2.100000*%
G04 #@! TD*
G04 #@! TA.AperFunction,ComponentPad*
%ADD19C,2.100000*%
G04 #@! TD*
G04 #@! TA.AperFunction,ComponentPad*
%ADD20R,1.500000X1.500000*%
G04 #@! TD*
G04 #@! TA.AperFunction,ComponentPad*
%ADD21C,1.500000*%
G04 #@! TD*
G04 #@! TA.AperFunction,ComponentPad*
%ADD22RoundRect,0.250001X-0.759999X0.499999X-0.759999X-0.499999X0.759999X-0.499999X0.759999X0.499999X0*%
G04 #@! TD*
G04 #@! TA.AperFunction,ComponentPad*
%ADD23O,2.020000X1.500000*%
G04 #@! TD*
G04 #@! TA.AperFunction,SMDPad,CuDef*
%ADD24R,5.100000X5.100000*%
G04 #@! TD*
G04 #@! TA.AperFunction,SMDPad,CuDef*
%ADD25C,17.800000*%
G04 #@! TD*
G04 #@! TA.AperFunction,ViaPad*
%ADD26C,4.000000*%
G04 #@! TD*
G04 #@! TA.AperFunction,Conductor*
%ADD27C,1.016000*%
G04 #@! TD*
G04 APERTURE END LIST*
D10*
D11*
X119035714Y-113885828D02*
X119321428Y-113885828D01*
X119321428Y-113885828D02*
X119464285Y-113957257D01*
X119464285Y-113957257D02*
X119607142Y-114100114D01*
X119607142Y-114100114D02*
X119678571Y-114385828D01*
X119678571Y-114385828D02*
X119678571Y-114885828D01*
X119678571Y-114885828D02*
X119607142Y-115171542D01*
X119607142Y-115171542D02*
X119464285Y-115314400D01*
X119464285Y-115314400D02*
X119321428Y-115385828D01*
X119321428Y-115385828D02*
X119035714Y-115385828D01*
X119035714Y-115385828D02*
X118892857Y-115314400D01*
X118892857Y-115314400D02*
X118749999Y-115171542D01*
X118749999Y-115171542D02*
X118678571Y-114885828D01*
X118678571Y-114885828D02*
X118678571Y-114385828D01*
X118678571Y-114385828D02*
X118749999Y-114100114D01*
X118749999Y-114100114D02*
X118892857Y-113957257D01*
X118892857Y-113957257D02*
X119035714Y-113885828D01*
X120321428Y-115385828D02*
X120321428Y-113885828D01*
X120321428Y-113885828D02*
X120892857Y-113885828D01*
X120892857Y-113885828D02*
X121035714Y-113957257D01*
X121035714Y-113957257D02*
X121107143Y-114028685D01*
X121107143Y-114028685D02*
X121178571Y-114171542D01*
X121178571Y-114171542D02*
X121178571Y-114385828D01*
X121178571Y-114385828D02*
X121107143Y-114528685D01*
X121107143Y-114528685D02*
X121035714Y-114600114D01*
X121035714Y-114600114D02*
X120892857Y-114671542D01*
X120892857Y-114671542D02*
X120321428Y-114671542D01*
X121821428Y-114600114D02*
X122321428Y-114600114D01*
X122535714Y-115385828D02*
X121821428Y-115385828D01*
X121821428Y-115385828D02*
X121821428Y-113885828D01*
X121821428Y-113885828D02*
X122535714Y-113885828D01*
X123178571Y-115385828D02*
X123178571Y-113885828D01*
X123178571Y-113885828D02*
X124035714Y-115385828D01*
X124035714Y-115385828D02*
X124035714Y-113885828D01*
X125250000Y-114600114D02*
X124750000Y-114600114D01*
X124750000Y-115385828D02*
X124750000Y-113885828D01*
X124750000Y-113885828D02*
X125464286Y-113885828D01*
X126321429Y-113885828D02*
X126607143Y-113885828D01*
X126607143Y-113885828D02*
X126750000Y-113957257D01*
X126750000Y-113957257D02*
X126892857Y-114100114D01*
X126892857Y-114100114D02*
X126964286Y-114385828D01*
X126964286Y-114385828D02*
X126964286Y-114885828D01*
X126964286Y-114885828D02*
X126892857Y-115171542D01*
X126892857Y-115171542D02*
X126750000Y-115314400D01*
X126750000Y-115314400D02*
X126607143Y-115385828D01*
X126607143Y-115385828D02*
X126321429Y-115385828D01*
X126321429Y-115385828D02*
X126178572Y-115314400D01*
X126178572Y-115314400D02*
X126035714Y-115171542D01*
X126035714Y-115171542D02*
X125964286Y-114885828D01*
X125964286Y-114885828D02*
X125964286Y-114385828D01*
X125964286Y-114385828D02*
X126035714Y-114100114D01*
X126035714Y-114100114D02*
X126178572Y-113957257D01*
X126178572Y-113957257D02*
X126321429Y-113885828D01*
X128464286Y-115385828D02*
X127964286Y-114671542D01*
X127607143Y-115385828D02*
X127607143Y-113885828D01*
X127607143Y-113885828D02*
X128178572Y-113885828D01*
X128178572Y-113885828D02*
X128321429Y-113957257D01*
X128321429Y-113957257D02*
X128392858Y-114028685D01*
X128392858Y-114028685D02*
X128464286Y-114171542D01*
X128464286Y-114171542D02*
X128464286Y-114385828D01*
X128464286Y-114385828D02*
X128392858Y-114528685D01*
X128392858Y-114528685D02*
X128321429Y-114600114D01*
X128321429Y-114600114D02*
X128178572Y-114671542D01*
X128178572Y-114671542D02*
X127607143Y-114671542D01*
X129964286Y-115242971D02*
X129892858Y-115314400D01*
X129892858Y-115314400D02*
X129678572Y-115385828D01*
X129678572Y-115385828D02*
X129535715Y-115385828D01*
X129535715Y-115385828D02*
X129321429Y-115314400D01*
X129321429Y-115314400D02*
X129178572Y-115171542D01*
X129178572Y-115171542D02*
X129107143Y-115028685D01*
X129107143Y-115028685D02*
X129035715Y-114742971D01*
X129035715Y-114742971D02*
X129035715Y-114528685D01*
X129035715Y-114528685D02*
X129107143Y-114242971D01*
X129107143Y-114242971D02*
X129178572Y-114100114D01*
X129178572Y-114100114D02*
X129321429Y-113957257D01*
X129321429Y-113957257D02*
X129535715Y-113885828D01*
X129535715Y-113885828D02*
X129678572Y-113885828D01*
X129678572Y-113885828D02*
X129892858Y-113957257D01*
X129892858Y-113957257D02*
X129964286Y-114028685D01*
X130607143Y-114600114D02*
X131107143Y-114600114D01*
X131321429Y-115385828D02*
X130607143Y-115385828D01*
X130607143Y-115385828D02*
X130607143Y-113885828D01*
X130607143Y-113885828D02*
X131321429Y-113885828D01*
X109892856Y-117015114D02*
X110392856Y-117015114D01*
X110607142Y-117800828D02*
X109892856Y-117800828D01*
X109892856Y-117800828D02*
X109892856Y-116300828D01*
X109892856Y-116300828D02*
X110607142Y-116300828D01*
X111964285Y-117800828D02*
X111249999Y-117800828D01*
X111249999Y-117800828D02*
X111249999Y-116300828D01*
X112464285Y-117015114D02*
X112964285Y-117015114D01*
X113178571Y-117800828D02*
X112464285Y-117800828D01*
X112464285Y-117800828D02*
X112464285Y-116300828D01*
X112464285Y-116300828D02*
X113178571Y-116300828D01*
X114678571Y-117657971D02*
X114607143Y-117729400D01*
X114607143Y-117729400D02*
X114392857Y-117800828D01*
X114392857Y-117800828D02*
X114250000Y-117800828D01*
X114250000Y-117800828D02*
X114035714Y-117729400D01*
X114035714Y-117729400D02*
X113892857Y-117586542D01*
X113892857Y-117586542D02*
X113821428Y-117443685D01*
X113821428Y-117443685D02*
X113750000Y-117157971D01*
X113750000Y-117157971D02*
X113750000Y-116943685D01*
X113750000Y-116943685D02*
X113821428Y-116657971D01*
X113821428Y-116657971D02*
X113892857Y-116515114D01*
X113892857Y-116515114D02*
X114035714Y-116372257D01*
X114035714Y-116372257D02*
X114250000Y-116300828D01*
X114250000Y-116300828D02*
X114392857Y-116300828D01*
X114392857Y-116300828D02*
X114607143Y-116372257D01*
X114607143Y-116372257D02*
X114678571Y-116443685D01*
X115107143Y-116300828D02*
X115964286Y-116300828D01*
X115535714Y-117800828D02*
X115535714Y-116300828D01*
X117321428Y-117800828D02*
X116821428Y-117086542D01*
X116464285Y-117800828D02*
X116464285Y-116300828D01*
X116464285Y-116300828D02*
X117035714Y-116300828D01*
X117035714Y-116300828D02*
X117178571Y-116372257D01*
X117178571Y-116372257D02*
X117250000Y-116443685D01*
X117250000Y-116443685D02*
X117321428Y-116586542D01*
X117321428Y-116586542D02*
X117321428Y-116800828D01*
X117321428Y-116800828D02*
X117250000Y-116943685D01*
X117250000Y-116943685D02*
X117178571Y-117015114D01*
X117178571Y-117015114D02*
X117035714Y-117086542D01*
X117035714Y-117086542D02*
X116464285Y-117086542D01*
X117964285Y-117800828D02*
X117964285Y-116300828D01*
X119535714Y-117657971D02*
X119464286Y-117729400D01*
X119464286Y-117729400D02*
X119250000Y-117800828D01*
X119250000Y-117800828D02*
X119107143Y-117800828D01*
X119107143Y-117800828D02*
X118892857Y-117729400D01*
X118892857Y-117729400D02*
X118750000Y-117586542D01*
X118750000Y-117586542D02*
X118678571Y-117443685D01*
X118678571Y-117443685D02*
X118607143Y-117157971D01*
X118607143Y-117157971D02*
X118607143Y-116943685D01*
X118607143Y-116943685D02*
X118678571Y-116657971D01*
X118678571Y-116657971D02*
X118750000Y-116515114D01*
X118750000Y-116515114D02*
X118892857Y-116372257D01*
X118892857Y-116372257D02*
X119107143Y-116300828D01*
X119107143Y-116300828D02*
X119250000Y-116300828D01*
X119250000Y-116300828D02*
X119464286Y-116372257D01*
X119464286Y-116372257D02*
X119535714Y-116443685D01*
X121821428Y-117015114D02*
X121321428Y-117015114D01*
X121321428Y-117800828D02*
X121321428Y-116300828D01*
X121321428Y-116300828D02*
X122035714Y-116300828D01*
X122607142Y-117800828D02*
X122607142Y-116300828D01*
X123321428Y-117015114D02*
X123821428Y-117015114D01*
X124035714Y-117800828D02*
X123321428Y-117800828D01*
X123321428Y-117800828D02*
X123321428Y-116300828D01*
X123321428Y-116300828D02*
X124035714Y-116300828D01*
X125392857Y-117800828D02*
X124678571Y-117800828D01*
X124678571Y-117800828D02*
X124678571Y-116300828D01*
X125892857Y-117800828D02*
X125892857Y-116300828D01*
X125892857Y-116300828D02*
X126250000Y-116300828D01*
X126250000Y-116300828D02*
X126464286Y-116372257D01*
X126464286Y-116372257D02*
X126607143Y-116515114D01*
X126607143Y-116515114D02*
X126678572Y-116657971D01*
X126678572Y-116657971D02*
X126750000Y-116943685D01*
X126750000Y-116943685D02*
X126750000Y-117157971D01*
X126750000Y-117157971D02*
X126678572Y-117443685D01*
X126678572Y-117443685D02*
X126607143Y-117586542D01*
X126607143Y-117586542D02*
X126464286Y-117729400D01*
X126464286Y-117729400D02*
X126250000Y-117800828D01*
X126250000Y-117800828D02*
X125892857Y-117800828D01*
X128535714Y-117800828D02*
X128535714Y-116300828D01*
X129250000Y-117800828D02*
X129250000Y-116300828D01*
X129250000Y-116300828D02*
X130107143Y-117800828D01*
X130107143Y-117800828D02*
X130107143Y-116300828D01*
X130750001Y-117729400D02*
X130964287Y-117800828D01*
X130964287Y-117800828D02*
X131321429Y-117800828D01*
X131321429Y-117800828D02*
X131464287Y-117729400D01*
X131464287Y-117729400D02*
X131535715Y-117657971D01*
X131535715Y-117657971D02*
X131607144Y-117515114D01*
X131607144Y-117515114D02*
X131607144Y-117372257D01*
X131607144Y-117372257D02*
X131535715Y-117229400D01*
X131535715Y-117229400D02*
X131464287Y-117157971D01*
X131464287Y-117157971D02*
X131321429Y-117086542D01*
X131321429Y-117086542D02*
X131035715Y-117015114D01*
X131035715Y-117015114D02*
X130892858Y-116943685D01*
X130892858Y-116943685D02*
X130821429Y-116872257D01*
X130821429Y-116872257D02*
X130750001Y-116729400D01*
X130750001Y-116729400D02*
X130750001Y-116586542D01*
X130750001Y-116586542D02*
X130821429Y-116443685D01*
X130821429Y-116443685D02*
X130892858Y-116372257D01*
X130892858Y-116372257D02*
X131035715Y-116300828D01*
X131035715Y-116300828D02*
X131392858Y-116300828D01*
X131392858Y-116300828D02*
X131607144Y-116372257D01*
X132250000Y-117800828D02*
X132250000Y-116300828D01*
X132250000Y-116300828D02*
X132821429Y-116300828D01*
X132821429Y-116300828D02*
X132964286Y-116372257D01*
X132964286Y-116372257D02*
X133035715Y-116443685D01*
X133035715Y-116443685D02*
X133107143Y-116586542D01*
X133107143Y-116586542D02*
X133107143Y-116800828D01*
X133107143Y-116800828D02*
X133035715Y-116943685D01*
X133035715Y-116943685D02*
X132964286Y-117015114D01*
X132964286Y-117015114D02*
X132821429Y-117086542D01*
X132821429Y-117086542D02*
X132250000Y-117086542D01*
X133750000Y-117015114D02*
X134250000Y-117015114D01*
X134464286Y-117800828D02*
X133750000Y-117800828D01*
X133750000Y-117800828D02*
X133750000Y-116300828D01*
X133750000Y-116300828D02*
X134464286Y-116300828D01*
X135964286Y-117657971D02*
X135892858Y-117729400D01*
X135892858Y-117729400D02*
X135678572Y-117800828D01*
X135678572Y-117800828D02*
X135535715Y-117800828D01*
X135535715Y-117800828D02*
X135321429Y-117729400D01*
X135321429Y-117729400D02*
X135178572Y-117586542D01*
X135178572Y-117586542D02*
X135107143Y-117443685D01*
X135107143Y-117443685D02*
X135035715Y-117157971D01*
X135035715Y-117157971D02*
X135035715Y-116943685D01*
X135035715Y-116943685D02*
X135107143Y-116657971D01*
X135107143Y-116657971D02*
X135178572Y-116515114D01*
X135178572Y-116515114D02*
X135321429Y-116372257D01*
X135321429Y-116372257D02*
X135535715Y-116300828D01*
X135535715Y-116300828D02*
X135678572Y-116300828D01*
X135678572Y-116300828D02*
X135892858Y-116372257D01*
X135892858Y-116372257D02*
X135964286Y-116443685D01*
X136392858Y-116300828D02*
X137250001Y-116300828D01*
X136821429Y-117800828D02*
X136821429Y-116300828D01*
X138035715Y-116300828D02*
X138321429Y-116300828D01*
X138321429Y-116300828D02*
X138464286Y-116372257D01*
X138464286Y-116372257D02*
X138607143Y-116515114D01*
X138607143Y-116515114D02*
X138678572Y-116800828D01*
X138678572Y-116800828D02*
X138678572Y-117300828D01*
X138678572Y-117300828D02*
X138607143Y-117586542D01*
X138607143Y-117586542D02*
X138464286Y-117729400D01*
X138464286Y-117729400D02*
X138321429Y-117800828D01*
X138321429Y-117800828D02*
X138035715Y-117800828D01*
X138035715Y-117800828D02*
X137892858Y-117729400D01*
X137892858Y-117729400D02*
X137750000Y-117586542D01*
X137750000Y-117586542D02*
X137678572Y-117300828D01*
X137678572Y-117300828D02*
X137678572Y-116800828D01*
X137678572Y-116800828D02*
X137750000Y-116515114D01*
X137750000Y-116515114D02*
X137892858Y-116372257D01*
X137892858Y-116372257D02*
X138035715Y-116300828D01*
X140178572Y-117800828D02*
X139678572Y-117086542D01*
X139321429Y-117800828D02*
X139321429Y-116300828D01*
X139321429Y-116300828D02*
X139892858Y-116300828D01*
X139892858Y-116300828D02*
X140035715Y-116372257D01*
X140035715Y-116372257D02*
X140107144Y-116443685D01*
X140107144Y-116443685D02*
X140178572Y-116586542D01*
X140178572Y-116586542D02*
X140178572Y-116800828D01*
X140178572Y-116800828D02*
X140107144Y-116943685D01*
X140107144Y-116943685D02*
X140035715Y-117015114D01*
X140035715Y-117015114D02*
X139892858Y-117086542D01*
X139892858Y-117086542D02*
X139321429Y-117086542D01*
D12*
X108000000Y-94810000D03*
D13*
X108000000Y-87190000D03*
D14*
X103200000Y-73300000D03*
D15*
X103200000Y-75840000D03*
D16*
X145000000Y-71000000D03*
D17*
X137000000Y-61000000D03*
D18*
X128000000Y-94000000D03*
D19*
X123000000Y-94000000D03*
D20*
X121500000Y-81000000D03*
D21*
X124000000Y-81000000D03*
X119000000Y-81000000D03*
D12*
X128000000Y-76380000D03*
D13*
X128000000Y-84000000D03*
D22*
X103040000Y-96000000D03*
D23*
X103040000Y-99000000D03*
X103040000Y-102000000D03*
D20*
X135000000Y-81000000D03*
D21*
X137500000Y-81000000D03*
X132500000Y-81000000D03*
D24*
X103200000Y-67000000D03*
X128800000Y-67000000D03*
D25*
X116000000Y-67000000D03*
D17*
X136000000Y-90000000D03*
X114000000Y-90000000D03*
D12*
X137100000Y-72600000D03*
X137100000Y-75100000D03*
D26*
X116000000Y-67000000D03*
D27*
X121500000Y-81000000D02*
X124150000Y-78350000D01*
X128700000Y-74700000D02*
X135000000Y-81000000D01*
X124150000Y-78350000D02*
X124150000Y-75850000D01*
X124150000Y-75850000D02*
X125300000Y-74700000D01*
X125300000Y-74700000D02*
X128700000Y-74700000D01*
X103200000Y-67000000D02*
X103200000Y-69550000D01*
X103200000Y-69550000D02*
X110650000Y-77000000D01*
X110650000Y-77000000D02*
X120700000Y-77000000D01*
X120700000Y-77000000D02*
X128800000Y-68900000D01*
X128800000Y-68900000D02*
X128800000Y-67000000D01*
X103040000Y-96000000D02*
X101642000Y-94602000D01*
X101642000Y-94602000D02*
X101642000Y-68558000D01*
X101642000Y-68558000D02*
X103200000Y-67000000D01*
X103200000Y-75840000D02*
X106380000Y-75840000D01*
X106380000Y-75840000D02*
X108562129Y-78022129D01*
X108000000Y-87190000D02*
X108562129Y-86627871D01*
X108562129Y-86627871D02*
X108562129Y-78022129D01*
X103040000Y-99000000D02*
X103810000Y-99000000D01*
X103810000Y-99000000D02*
X108000000Y-94810000D01*
X121500000Y-81000000D02*
X120092000Y-79592000D01*
X120092000Y-79592000D02*
X118308000Y-79592000D01*
X118308000Y-79592000D02*
X108000000Y-89900000D01*
X108000000Y-89900000D02*
X108000000Y-94810000D01*
X128000000Y-94000000D02*
X132000000Y-94000000D01*
X132000000Y-94000000D02*
X136000000Y-90000000D01*
X123000000Y-94000000D02*
X118000000Y-94000000D01*
X118000000Y-94000000D02*
X114000000Y-90000000D01*
X119000000Y-81000000D02*
X119000000Y-85000000D01*
X119000000Y-85000000D02*
X114000000Y-90000000D01*
X128000000Y-84000000D02*
X127000000Y-84000000D01*
X127000000Y-84000000D02*
X124000000Y-81000000D01*
X128000000Y-76380000D02*
X128000000Y-76500000D01*
X128000000Y-76500000D02*
X132500000Y-81000000D01*
X137100000Y-75100000D02*
X137100000Y-80600000D01*
X137100000Y-80600000D02*
X137500000Y-81000000D01*
X137100000Y-72600000D02*
X143400000Y-72600000D01*
X143400000Y-72600000D02*
X145000000Y-71000000D01*
X137000000Y-69500000D02*
X137100000Y-69600000D01*
X137100000Y-69600000D02*
X137100000Y-72600000D01*
X137000000Y-61000000D02*
X137000000Y-69500000D01*
G04 #@! TA.AperFunction,Conductor*
G36*
X102531933Y-69720185D02*
G01*
X102577688Y-69772989D01*
X102583969Y-69789901D01*
X102590854Y-69813599D01*
X102596937Y-69823884D01*
X102598538Y-69826592D01*
X102601850Y-69832191D01*
X102610410Y-69849665D01*
X102618363Y-69869754D01*
X102647289Y-69909565D01*
X102650490Y-69914437D01*
X102675547Y-69956807D01*
X102675551Y-69956811D01*
X102690821Y-69972081D01*
X102703458Y-69986876D01*
X102716159Y-70004357D01*
X102738868Y-70023143D01*
X102754072Y-70035721D01*
X102758383Y-70039643D01*
X103630048Y-70911308D01*
X104470584Y-71751844D01*
X104504069Y-71813167D01*
X104499085Y-71882859D01*
X104457213Y-71938792D01*
X104391749Y-71963209D01*
X104339570Y-71955707D01*
X104207379Y-71906403D01*
X104207372Y-71906401D01*
X104147844Y-71900000D01*
X103450000Y-71900000D01*
X103450000Y-72925810D01*
X103397453Y-72889984D01*
X103267827Y-72850000D01*
X103166276Y-72850000D01*
X103065862Y-72865135D01*
X102950000Y-72920931D01*
X102950000Y-71900000D01*
X102424500Y-71900000D01*
X102357461Y-71880315D01*
X102311706Y-71827511D01*
X102300500Y-71776000D01*
X102300500Y-69824500D01*
X102320185Y-69757461D01*
X102372989Y-69711706D01*
X102424500Y-69700500D01*
X102464894Y-69700500D01*
X102531933Y-69720185D01*
G37*
G04 #@! TD.AperFunction*
G04 #@! TA.AperFunction,Conductor*
G36*
X136987276Y-57120185D02*
G01*
X136998938Y-57133644D01*
X137051103Y-57103858D01*
X137079763Y-57100500D01*
X149775500Y-57100500D01*
X149842539Y-57120185D01*
X149888294Y-57172989D01*
X149899500Y-57224500D01*
X149899500Y-70911308D01*
X149879815Y-70978347D01*
X149857952Y-70997291D01*
X149860944Y-70998828D01*
X149895964Y-71059288D01*
X149899500Y-71088691D01*
X149899500Y-123775500D01*
X149879815Y-123842539D01*
X149827011Y-123888294D01*
X149775500Y-123899500D01*
X100224500Y-123899500D01*
X100157461Y-123879815D01*
X100111706Y-123827011D01*
X100100500Y-123775500D01*
X100100500Y-119067763D01*
X104145787Y-119067763D01*
X104175413Y-119337013D01*
X104175415Y-119337024D01*
X104243926Y-119599082D01*
X104243928Y-119599088D01*
X104349870Y-119848390D01*
X104421998Y-119966575D01*
X104490979Y-120079605D01*
X104490986Y-120079615D01*
X104664253Y-120287819D01*
X104664259Y-120287824D01*
X104865998Y-120468582D01*
X105091910Y-120618044D01*
X105337176Y-120733020D01*
X105337183Y-120733022D01*
X105337185Y-120733023D01*
X105596557Y-120811057D01*
X105596564Y-120811058D01*
X105596569Y-120811060D01*
X105864561Y-120850500D01*
X105864566Y-120850500D01*
X106067636Y-120850500D01*
X106119133Y-120846730D01*
X106270156Y-120835677D01*
X106382758Y-120810593D01*
X106534546Y-120776782D01*
X106534548Y-120776781D01*
X106534553Y-120776780D01*
X106787558Y-120680014D01*
X107023777Y-120547441D01*
X107238177Y-120381888D01*
X107426186Y-120186881D01*
X107583799Y-119966579D01*
X107657787Y-119822669D01*
X107707649Y-119725690D01*
X107707651Y-119725684D01*
X107707656Y-119725675D01*
X107795118Y-119469305D01*
X107844319Y-119202933D01*
X107849259Y-119067763D01*
X142145787Y-119067763D01*
X142175413Y-119337013D01*
X142175415Y-119337024D01*
X142243926Y-119599082D01*
X142243928Y-119599088D01*
X142349870Y-119848390D01*
X142421998Y-119966575D01*
X142490979Y-120079605D01*
X142490986Y-120079615D01*
X142664253Y-120287819D01*
X142664259Y-120287824D01*
X142865998Y-120468582D01*
X143091910Y-120618044D01*
X143337176Y-120733020D01*
X143337183Y-120733022D01*
X143337185Y-120733023D01*
X143596557Y-120811057D01*
X143596564Y-120811058D01*
X143596569Y-120811060D01*
X143864561Y-120850500D01*
X143864566Y-120850500D01*
X144067636Y-120850500D01*
X144119133Y-120846730D01*
X144270156Y-120835677D01*
X144382758Y-120810593D01*
X144534546Y-120776782D01*
X144534548Y-120776781D01*
X144534553Y-120776780D01*
X144787558Y-120680014D01*
X145023777Y-120547441D01*
X145238177Y-120381888D01*
X145426186Y-120186881D01*
X145583799Y-119966579D01*
X145657787Y-119822669D01*
X145707649Y-119725690D01*
X145707651Y-119725684D01*
X145707656Y-119725675D01*
X145795118Y-119469305D01*
X145844319Y-119202933D01*
X145854212Y-118932235D01*
X145824586Y-118662982D01*
X145756072Y-118400912D01*
X145650130Y-118151610D01*
X145509018Y-117920390D01*
X145419747Y-117813119D01*
X145335746Y-117712180D01*
X145335740Y-117712175D01*
X145134002Y-117531418D01*
X144908092Y-117381957D01*
X144908090Y-117381956D01*
X144662824Y-117266980D01*
X144662819Y-117266978D01*
X144662814Y-117266976D01*
X144403442Y-117188942D01*
X144403428Y-117188939D01*
X144287791Y-117171921D01*
X144135439Y-117149500D01*
X143932369Y-117149500D01*
X143932364Y-117149500D01*
X143729844Y-117164323D01*
X143729831Y-117164325D01*
X143465453Y-117223217D01*
X143465446Y-117223220D01*
X143212439Y-117319987D01*
X142976226Y-117452557D01*
X142761822Y-117618112D01*
X142573822Y-117813109D01*
X142573816Y-117813116D01*
X142416202Y-118033419D01*
X142416199Y-118033424D01*
X142292350Y-118274309D01*
X142292343Y-118274327D01*
X142204884Y-118530685D01*
X142204881Y-118530699D01*
X142155681Y-118797068D01*
X142155680Y-118797075D01*
X142145787Y-119067763D01*
X107849259Y-119067763D01*
X107854212Y-118932235D01*
X107824586Y-118662982D01*
X107756072Y-118400912D01*
X107650130Y-118151610D01*
X107509018Y-117920390D01*
X107419747Y-117813119D01*
X107335746Y-117712180D01*
X107335740Y-117712175D01*
X107134002Y-117531418D01*
X106908092Y-117381957D01*
X106908090Y-117381956D01*
X106662824Y-117266980D01*
X106662819Y-117266978D01*
X106662814Y-117266976D01*
X106403442Y-117188942D01*
X106403428Y-117188939D01*
X106287791Y-117171921D01*
X106135439Y-117149500D01*
X105932369Y-117149500D01*
X105932364Y-117149500D01*
X105729844Y-117164323D01*
X105729831Y-117164325D01*
X105465453Y-117223217D01*
X105465446Y-117223220D01*
X105212439Y-117319987D01*
X104976226Y-117452557D01*
X104761822Y-117618112D01*
X104573822Y-117813109D01*
X104573816Y-117813116D01*
X104416202Y-118033419D01*
X104416199Y-118033424D01*
X104292350Y-118274309D01*
X104292343Y-118274327D01*
X104204884Y-118530685D01*
X104204881Y-118530699D01*
X104155681Y-118797068D01*
X104155680Y-118797075D01*
X104145787Y-119067763D01*
X100100500Y-119067763D01*
X100100500Y-113580037D01*
X109587065Y-113580037D01*
X109587065Y-118106619D01*
X140484084Y-118106619D01*
X140484084Y-113580037D01*
X109587065Y-113580037D01*
X100100500Y-113580037D01*
X100100500Y-105093069D01*
X104114500Y-105093069D01*
X104153199Y-105275141D01*
X104153201Y-105275147D01*
X104228910Y-105445188D01*
X104228909Y-105445188D01*
X104228910Y-105445189D01*
X104338320Y-105595779D01*
X104338321Y-105595780D01*
X104338322Y-105595781D01*
X104338324Y-105595784D01*
X104422469Y-105671547D01*
X104476649Y-105720331D01*
X104637851Y-105813401D01*
X104637853Y-105813401D01*
X104637856Y-105813403D01*
X104726365Y-105842161D01*
X104814880Y-105870921D01*
X104953589Y-105885500D01*
X104953594Y-105885500D01*
X105046406Y-105885500D01*
X105046411Y-105885500D01*
X105185120Y-105870921D01*
X105362149Y-105813401D01*
X105523351Y-105720331D01*
X105631709Y-105622764D01*
X105661675Y-105595784D01*
X105661675Y-105595782D01*
X105661680Y-105595779D01*
X105771090Y-105445189D01*
X105846800Y-105275142D01*
X105885500Y-105093070D01*
X105885500Y-104906930D01*
X105846800Y-104724858D01*
X105846798Y-104724852D01*
X105816386Y-104656547D01*
X105771090Y-104554811D01*
X105661680Y-104404221D01*
X105661677Y-104404218D01*
X105661675Y-104404215D01*
X105571536Y-104323055D01*
X105523351Y-104279669D01*
X105362149Y-104186599D01*
X105362143Y-104186596D01*
X105185124Y-104129080D01*
X105185122Y-104129079D01*
X105145488Y-104124913D01*
X105046411Y-104114500D01*
X104953589Y-104114500D01*
X104866895Y-104123611D01*
X104814877Y-104129079D01*
X104814875Y-104129080D01*
X104637856Y-104186596D01*
X104637850Y-104186599D01*
X104476650Y-104279668D01*
X104338324Y-104404215D01*
X104338322Y-104404218D01*
X104228909Y-104554811D01*
X104153201Y-104724852D01*
X104153199Y-104724858D01*
X104114500Y-104906930D01*
X104114500Y-105093069D01*
X100100500Y-105093069D01*
X100100500Y-102094645D01*
X101879500Y-102094645D01*
X101918855Y-102279802D01*
X101918857Y-102279807D01*
X101995848Y-102452729D01*
X101995851Y-102452734D01*
X102107111Y-102605870D01*
X102107112Y-102605871D01*
X102247784Y-102732533D01*
X102411716Y-102827179D01*
X102591744Y-102885674D01*
X102732808Y-102900500D01*
X102732812Y-102900500D01*
X103347188Y-102900500D01*
X103347192Y-102900500D01*
X103488256Y-102885674D01*
X103668284Y-102827179D01*
X103832216Y-102732533D01*
X103972888Y-102605871D01*
X104084151Y-102452730D01*
X104161144Y-102279803D01*
X104200500Y-102094646D01*
X104200500Y-101905354D01*
X104161144Y-101720197D01*
X104084151Y-101547270D01*
X104084148Y-101547265D01*
X103972888Y-101394129D01*
X103832216Y-101267467D01*
X103668284Y-101172821D01*
X103668277Y-101172818D01*
X103488259Y-101114327D01*
X103488256Y-101114326D01*
X103347192Y-101099500D01*
X102732808Y-101099500D01*
X102591744Y-101114326D01*
X102591741Y-101114326D01*
X102591740Y-101114327D01*
X102411722Y-101172818D01*
X102411715Y-101172821D01*
X102247785Y-101267466D01*
X102107111Y-101394129D01*
X101995851Y-101547265D01*
X101995848Y-101547270D01*
X101918857Y-101720192D01*
X101918855Y-101720197D01*
X101879500Y-101905354D01*
X101879500Y-102094645D01*
X100100500Y-102094645D01*
X100100500Y-99094645D01*
X101879500Y-99094645D01*
X101918855Y-99279802D01*
X101918857Y-99279807D01*
X101995848Y-99452729D01*
X101995851Y-99452734D01*
X102095281Y-99589587D01*
X102107112Y-99605871D01*
X102247784Y-99732533D01*
X102411716Y-99827179D01*
X102591744Y-99885674D01*
X102732808Y-99900500D01*
X102732812Y-99900500D01*
X103347188Y-99900500D01*
X103347192Y-99900500D01*
X103488256Y-99885674D01*
X103668284Y-99827179D01*
X103832216Y-99732533D01*
X103895843Y-99675242D01*
X103958831Y-99645014D01*
X103963251Y-99644374D01*
X103975064Y-99642882D01*
X104020834Y-99624760D01*
X104026348Y-99622873D01*
X104052875Y-99615165D01*
X104073600Y-99609145D01*
X104092196Y-99598146D01*
X104109664Y-99589589D01*
X104129756Y-99581635D01*
X104169582Y-99552698D01*
X104174441Y-99549506D01*
X104216807Y-99524453D01*
X104232090Y-99509168D01*
X104246873Y-99496542D01*
X104264357Y-99483841D01*
X104295731Y-99445914D01*
X104299645Y-99441613D01*
X107942184Y-95799074D01*
X108003505Y-95765591D01*
X108017697Y-95763355D01*
X108186331Y-95746747D01*
X108365501Y-95692396D01*
X108530625Y-95604136D01*
X108675357Y-95485357D01*
X108794136Y-95340625D01*
X108882396Y-95175501D01*
X108936747Y-94996331D01*
X108955099Y-94810000D01*
X108937252Y-94628797D01*
X108936747Y-94623668D01*
X108936746Y-94623666D01*
X108936390Y-94622493D01*
X108882396Y-94444499D01*
X108874995Y-94430652D01*
X108794137Y-94279376D01*
X108794135Y-94279373D01*
X108686647Y-94148400D01*
X108659334Y-94084090D01*
X108658500Y-94069735D01*
X108658500Y-90224120D01*
X108678185Y-90157081D01*
X108694814Y-90136444D01*
X110462665Y-88368593D01*
X110523987Y-88335109D01*
X110593679Y-88340093D01*
X110649612Y-88381965D01*
X110674029Y-88447429D01*
X110661360Y-88509977D01*
X110661849Y-88510195D01*
X110660872Y-88512388D01*
X110660840Y-88512550D01*
X110660529Y-88513159D01*
X110523404Y-88870380D01*
X110424372Y-89239975D01*
X110424371Y-89239982D01*
X110364515Y-89617893D01*
X110344490Y-89999999D01*
X110344490Y-90000000D01*
X110364515Y-90382106D01*
X110424371Y-90760017D01*
X110424372Y-90760024D01*
X110523404Y-91129619D01*
X110660526Y-91486833D01*
X110834237Y-91827759D01*
X111042624Y-92148647D01*
X111042628Y-92148652D01*
X111042630Y-92148655D01*
X111283427Y-92446014D01*
X111553986Y-92716573D01*
X111851345Y-92957370D01*
X111851349Y-92957372D01*
X111851352Y-92957375D01*
X112172240Y-93165762D01*
X112172245Y-93165765D01*
X112513170Y-93339475D01*
X112870385Y-93476597D01*
X113239977Y-93575628D01*
X113617895Y-93635485D01*
X113978866Y-93654402D01*
X113999999Y-93655510D01*
X114000000Y-93655510D01*
X114000001Y-93655510D01*
X114020026Y-93654460D01*
X114382105Y-93635485D01*
X114760023Y-93575628D01*
X115129615Y-93476597D01*
X115486830Y-93339475D01*
X115827755Y-93165765D01*
X115990146Y-93060306D01*
X116057089Y-93040302D01*
X116124221Y-93059667D01*
X116145361Y-93076620D01*
X117473281Y-94404540D01*
X117483435Y-94417213D01*
X117483611Y-94417069D01*
X117488585Y-94423082D01*
X117541701Y-94472961D01*
X117563662Y-94494922D01*
X117569547Y-94499487D01*
X117573990Y-94503282D01*
X117609865Y-94536971D01*
X117609867Y-94536972D01*
X117628794Y-94547377D01*
X117645054Y-94558057D01*
X117662131Y-94571304D01*
X117707300Y-94590850D01*
X117712547Y-94593420D01*
X117755663Y-94617124D01*
X117776586Y-94622496D01*
X117794989Y-94628797D01*
X117814820Y-94637379D01*
X117814821Y-94637379D01*
X117814823Y-94637380D01*
X117831706Y-94640053D01*
X117863438Y-94645080D01*
X117869157Y-94646264D01*
X117916812Y-94658500D01*
X117938418Y-94658500D01*
X117957815Y-94660026D01*
X117979151Y-94663406D01*
X118028143Y-94658774D01*
X118033980Y-94658500D01*
X121931178Y-94658500D01*
X121998217Y-94678185D01*
X122030132Y-94707773D01*
X122109020Y-94812238D01*
X122273437Y-94962123D01*
X122273439Y-94962125D01*
X122462595Y-95079245D01*
X122462596Y-95079245D01*
X122462599Y-95079247D01*
X122670060Y-95159618D01*
X122888757Y-95200500D01*
X122888759Y-95200500D01*
X123111241Y-95200500D01*
X123111243Y-95200500D01*
X123329940Y-95159618D01*
X123489397Y-95097844D01*
X126450000Y-95097844D01*
X126456401Y-95157372D01*
X126456403Y-95157379D01*
X126506645Y-95292086D01*
X126506649Y-95292093D01*
X126592809Y-95407187D01*
X126592812Y-95407190D01*
X126707906Y-95493350D01*
X126707913Y-95493354D01*
X126842620Y-95543596D01*
X126842627Y-95543598D01*
X126902155Y-95549999D01*
X126902172Y-95550000D01*
X127750000Y-95550000D01*
X127750000Y-94491683D01*
X127778819Y-94509209D01*
X127924404Y-94550000D01*
X128037622Y-94550000D01*
X128149783Y-94534584D01*
X128250000Y-94491053D01*
X128250000Y-95550000D01*
X129097828Y-95550000D01*
X129097844Y-95549999D01*
X129157372Y-95543598D01*
X129157379Y-95543596D01*
X129292086Y-95493354D01*
X129292093Y-95493350D01*
X129407187Y-95407190D01*
X129407190Y-95407187D01*
X129493350Y-95292093D01*
X129493354Y-95292086D01*
X129543596Y-95157379D01*
X129543598Y-95157372D01*
X129549999Y-95097844D01*
X129550000Y-95097827D01*
X129550000Y-94250000D01*
X128494852Y-94250000D01*
X128543559Y-94112953D01*
X128553877Y-93962114D01*
X128523116Y-93814085D01*
X128489910Y-93750000D01*
X129550000Y-93750000D01*
X129550000Y-92902172D01*
X129549999Y-92902155D01*
X129543598Y-92842627D01*
X129543596Y-92842620D01*
X129493354Y-92707913D01*
X129493350Y-92707906D01*
X129407190Y-92592812D01*
X129407187Y-92592809D01*
X129292093Y-92506649D01*
X129292086Y-92506645D01*
X129157379Y-92456403D01*
X129157372Y-92456401D01*
X129097844Y-92450000D01*
X128250000Y-92450000D01*
X128250000Y-93508316D01*
X128221181Y-93490791D01*
X128075596Y-93450000D01*
X127962378Y-93450000D01*
X127850217Y-93465416D01*
X127750000Y-93508946D01*
X127750000Y-92450000D01*
X126902155Y-92450000D01*
X126842627Y-92456401D01*
X126842620Y-92456403D01*
X126707913Y-92506645D01*
X126707906Y-92506649D01*
X126592812Y-92592809D01*
X126592809Y-92592812D01*
X126506649Y-92707906D01*
X126506645Y-92707913D01*
X126456403Y-92842620D01*
X126456401Y-92842627D01*
X126450000Y-92902155D01*
X126450000Y-93750000D01*
X127505148Y-93750000D01*
X127456441Y-93887047D01*
X127446123Y-94037886D01*
X127476884Y-94185915D01*
X127510090Y-94250000D01*
X126450000Y-94250000D01*
X126450000Y-95097844D01*
X123489397Y-95097844D01*
X123537401Y-95079247D01*
X123726562Y-94962124D01*
X123869629Y-94831701D01*
X123890979Y-94812238D01*
X123892670Y-94810000D01*
X124025058Y-94634689D01*
X124124229Y-94435528D01*
X124185115Y-94221536D01*
X124205643Y-94000000D01*
X124185115Y-93778464D01*
X124124229Y-93564472D01*
X124124224Y-93564461D01*
X124025061Y-93365316D01*
X124025056Y-93365308D01*
X123890979Y-93187761D01*
X123726562Y-93037876D01*
X123726560Y-93037874D01*
X123537404Y-92920754D01*
X123537398Y-92920752D01*
X123329940Y-92840382D01*
X123111243Y-92799500D01*
X122888757Y-92799500D01*
X122670060Y-92840382D01*
X122538864Y-92891207D01*
X122462601Y-92920752D01*
X122462595Y-92920754D01*
X122273439Y-93037874D01*
X122273437Y-93037876D01*
X122109020Y-93187761D01*
X122030132Y-93292227D01*
X121974023Y-93333863D01*
X121931178Y-93341500D01*
X118324121Y-93341500D01*
X118257082Y-93321815D01*
X118236440Y-93305181D01*
X117076620Y-92145361D01*
X117043135Y-92084038D01*
X117048119Y-92014346D01*
X117060303Y-91990151D01*
X117165765Y-91827755D01*
X117339475Y-91486830D01*
X117476597Y-91129615D01*
X117575628Y-90760023D01*
X117635485Y-90382105D01*
X117655510Y-90000000D01*
X131995176Y-90000000D01*
X132014461Y-90392550D01*
X132072129Y-90781308D01*
X132167625Y-91162549D01*
X132300016Y-91532559D01*
X132300023Y-91532575D01*
X132468062Y-91887864D01*
X132670109Y-92224958D01*
X132904228Y-92540632D01*
X133000068Y-92646376D01*
X133000069Y-92646376D01*
X134313104Y-91333341D01*
X134425031Y-91470918D01*
X134639990Y-91671676D01*
X134664543Y-91689008D01*
X133353622Y-92999929D01*
X133353622Y-92999930D01*
X133459367Y-93095771D01*
X133775041Y-93329890D01*
X134112135Y-93531937D01*
X134467424Y-93699976D01*
X134467440Y-93699983D01*
X134837450Y-93832374D01*
X135218691Y-93927870D01*
X135607449Y-93985538D01*
X136000000Y-94004823D01*
X136392550Y-93985538D01*
X136781308Y-93927870D01*
X137162549Y-93832374D01*
X137532559Y-93699983D01*
X137532575Y-93699976D01*
X137887864Y-93531937D01*
X138224958Y-93329890D01*
X138540632Y-93095770D01*
X138646376Y-92999929D01*
X137335455Y-91689008D01*
X137360010Y-91671676D01*
X137574969Y-91470918D01*
X137686895Y-91333342D01*
X138999929Y-92646376D01*
X139095770Y-92540632D01*
X139329890Y-92224958D01*
X139531937Y-91887864D01*
X139699976Y-91532575D01*
X139699983Y-91532559D01*
X139832374Y-91162549D01*
X139927870Y-90781308D01*
X139985538Y-90392550D01*
X140004823Y-90000000D01*
X139985538Y-89607449D01*
X139927870Y-89218691D01*
X139832374Y-88837450D01*
X139699983Y-88467440D01*
X139699976Y-88467424D01*
X139531937Y-88112135D01*
X139329890Y-87775041D01*
X139095771Y-87459367D01*
X138999930Y-87353622D01*
X138999929Y-87353622D01*
X137686894Y-88666656D01*
X137574969Y-88529082D01*
X137360010Y-88328324D01*
X137335455Y-88310991D01*
X138646376Y-87000069D01*
X138646376Y-87000068D01*
X138540632Y-86904228D01*
X138224958Y-86670109D01*
X137887864Y-86468062D01*
X137532575Y-86300023D01*
X137532559Y-86300016D01*
X137162549Y-86167625D01*
X136781308Y-86072129D01*
X136392550Y-86014461D01*
X136000000Y-85995176D01*
X135607449Y-86014461D01*
X135218691Y-86072129D01*
X134837450Y-86167625D01*
X134467440Y-86300016D01*
X134467424Y-86300023D01*
X134112135Y-86468062D01*
X133775041Y-86670109D01*
X133459368Y-86904228D01*
X133353622Y-87000069D01*
X134664544Y-88310991D01*
X134639990Y-88328324D01*
X134425031Y-88529082D01*
X134313104Y-88666657D01*
X133000069Y-87353622D01*
X132904228Y-87459368D01*
X132670109Y-87775041D01*
X132468062Y-88112135D01*
X132300023Y-88467424D01*
X132300016Y-88467440D01*
X132167625Y-88837450D01*
X132072129Y-89218691D01*
X132014461Y-89607449D01*
X131995176Y-90000000D01*
X117655510Y-90000000D01*
X117635485Y-89617895D01*
X117575628Y-89239977D01*
X117476597Y-88870385D01*
X117339475Y-88513170D01*
X117165765Y-88172245D01*
X117060304Y-88009851D01*
X117040302Y-87942910D01*
X117059667Y-87875778D01*
X117076615Y-87854643D01*
X119404543Y-85526715D01*
X119417214Y-85516566D01*
X119417068Y-85516389D01*
X119423074Y-85511419D01*
X119423080Y-85511416D01*
X119472945Y-85458314D01*
X119494927Y-85436333D01*
X119499495Y-85430442D01*
X119503282Y-85426008D01*
X119536972Y-85390133D01*
X119547380Y-85371200D01*
X119558059Y-85354942D01*
X119571304Y-85337868D01*
X119590852Y-85292691D01*
X119593409Y-85287472D01*
X119617124Y-85244337D01*
X119622495Y-85223413D01*
X119628796Y-85205009D01*
X119637380Y-85185176D01*
X119642733Y-85151372D01*
X119645078Y-85136569D01*
X119646263Y-85130844D01*
X119658500Y-85083188D01*
X119658500Y-85061580D01*
X119660027Y-85042180D01*
X119663406Y-85020848D01*
X119658775Y-84971854D01*
X119658500Y-84966017D01*
X119658500Y-81662036D01*
X119678185Y-81594997D01*
X119690351Y-81579063D01*
X119732533Y-81532216D01*
X119827179Y-81368284D01*
X119885674Y-81188256D01*
X119905460Y-81000000D01*
X119885674Y-80811744D01*
X119827179Y-80631716D01*
X119788208Y-80564217D01*
X119771736Y-80496317D01*
X119794589Y-80430291D01*
X119849510Y-80387100D01*
X119919064Y-80380459D01*
X119981166Y-80412475D01*
X119983277Y-80414537D01*
X120563181Y-80994441D01*
X120596666Y-81055764D01*
X120599500Y-81082121D01*
X120599500Y-81764820D01*
X120599500Y-81764822D01*
X120599499Y-81764822D01*
X120608231Y-81808717D01*
X120608234Y-81808724D01*
X120641495Y-81858503D01*
X120641496Y-81858504D01*
X120691278Y-81891767D01*
X120691281Y-81891767D01*
X120691282Y-81891768D01*
X120735177Y-81900500D01*
X120735180Y-81900500D01*
X122264822Y-81900500D01*
X122308717Y-81891768D01*
X122308717Y-81891767D01*
X122308722Y-81891767D01*
X122358504Y-81858504D01*
X122391767Y-81808722D01*
X122400500Y-81764820D01*
X122400500Y-81082121D01*
X122420185Y-81015082D01*
X122436814Y-80994445D01*
X123016724Y-80414535D01*
X123078046Y-80381051D01*
X123147738Y-80386035D01*
X123203671Y-80427907D01*
X123228088Y-80493371D01*
X123213236Y-80561644D01*
X123211792Y-80564216D01*
X123172820Y-80631718D01*
X123172818Y-80631722D01*
X123114327Y-80811740D01*
X123114326Y-80811744D01*
X123094540Y-81000000D01*
X123114326Y-81188256D01*
X123114327Y-81188259D01*
X123172818Y-81368277D01*
X123172821Y-81368284D01*
X123267467Y-81532216D01*
X123366366Y-81642054D01*
X123394129Y-81672888D01*
X123547265Y-81784148D01*
X123547270Y-81784151D01*
X123720192Y-81861142D01*
X123720197Y-81861144D01*
X123905354Y-81900500D01*
X123917878Y-81900500D01*
X123984917Y-81920185D01*
X124005559Y-81936819D01*
X126473280Y-84404540D01*
X126483430Y-84417208D01*
X126483606Y-84417064D01*
X126488580Y-84423076D01*
X126541685Y-84472946D01*
X126563661Y-84494922D01*
X126569551Y-84499491D01*
X126573994Y-84503286D01*
X126609864Y-84536970D01*
X126609866Y-84536971D01*
X126609867Y-84536972D01*
X126628803Y-84547382D01*
X126645049Y-84558053D01*
X126662132Y-84571304D01*
X126662137Y-84571306D01*
X126707296Y-84590848D01*
X126712544Y-84593420D01*
X126744234Y-84610840D01*
X126755663Y-84617124D01*
X126771823Y-84621272D01*
X126776583Y-84622495D01*
X126794986Y-84628795D01*
X126814824Y-84637380D01*
X126851960Y-84643261D01*
X126863431Y-84645078D01*
X126869146Y-84646261D01*
X126916812Y-84658500D01*
X126938419Y-84658500D01*
X126957816Y-84660026D01*
X126979152Y-84663406D01*
X127028144Y-84658774D01*
X127033981Y-84658500D01*
X127259735Y-84658500D01*
X127326774Y-84678185D01*
X127338400Y-84686647D01*
X127469373Y-84794135D01*
X127469376Y-84794137D01*
X127634497Y-84882395D01*
X127634499Y-84882396D01*
X127813666Y-84936746D01*
X127813668Y-84936747D01*
X127830374Y-84938392D01*
X128000000Y-84955099D01*
X128186331Y-84936747D01*
X128365501Y-84882396D01*
X128530625Y-84794136D01*
X128675357Y-84675357D01*
X128794136Y-84530625D01*
X128882396Y-84365501D01*
X128936747Y-84186331D01*
X128955099Y-84000000D01*
X128936747Y-83813669D01*
X128882396Y-83634499D01*
X128794136Y-83469375D01*
X128794135Y-83469373D01*
X128675357Y-83324642D01*
X128530626Y-83205864D01*
X128530623Y-83205862D01*
X128365502Y-83117604D01*
X128186333Y-83063253D01*
X128186331Y-83063252D01*
X128000000Y-83044901D01*
X127813668Y-83063252D01*
X127813666Y-83063253D01*
X127634497Y-83117604D01*
X127469376Y-83205862D01*
X127469373Y-83205864D01*
X127373764Y-83284330D01*
X127309454Y-83311643D01*
X127240587Y-83299852D01*
X127207418Y-83276158D01*
X124933479Y-81002219D01*
X124899994Y-80940896D01*
X124897839Y-80927498D01*
X124897025Y-80919756D01*
X124885674Y-80811744D01*
X124827179Y-80631716D01*
X124732533Y-80467784D01*
X124605871Y-80327112D01*
X124605870Y-80327111D01*
X124452734Y-80215851D01*
X124452729Y-80215848D01*
X124279807Y-80138857D01*
X124279802Y-80138855D01*
X124134001Y-80107865D01*
X124094646Y-80099500D01*
X123905354Y-80099500D01*
X123872897Y-80106398D01*
X123720197Y-80138855D01*
X123720192Y-80138857D01*
X123560280Y-80210056D01*
X123491030Y-80219341D01*
X123427753Y-80189713D01*
X123390540Y-80130578D01*
X123391205Y-80060712D01*
X123422162Y-80009097D01*
X124554543Y-78876715D01*
X124567214Y-78866566D01*
X124567068Y-78866389D01*
X124573074Y-78861419D01*
X124573080Y-78861416D01*
X124622945Y-78808314D01*
X124644927Y-78786333D01*
X124649495Y-78780442D01*
X124653282Y-78776008D01*
X124686972Y-78740133D01*
X124697380Y-78721200D01*
X124708059Y-78704942D01*
X124721304Y-78687868D01*
X124740852Y-78642691D01*
X124743409Y-78637472D01*
X124767124Y-78594337D01*
X124772495Y-78573413D01*
X124778796Y-78555009D01*
X124787380Y-78535176D01*
X124792733Y-78501372D01*
X124795078Y-78486569D01*
X124796263Y-78480844D01*
X124808500Y-78433188D01*
X124808500Y-78411580D01*
X124810027Y-78392180D01*
X124813406Y-78370848D01*
X124808775Y-78321854D01*
X124808500Y-78316017D01*
X124808500Y-76174122D01*
X124828185Y-76107083D01*
X124844819Y-76086441D01*
X125536441Y-75394819D01*
X125597764Y-75361334D01*
X125624122Y-75358500D01*
X127400876Y-75358500D01*
X127467915Y-75378185D01*
X127513670Y-75430989D01*
X127523614Y-75500147D01*
X127494589Y-75563703D01*
X127473985Y-75581878D01*
X127474084Y-75581999D01*
X127470719Y-75584760D01*
X127469763Y-75585604D01*
X127469377Y-75585861D01*
X127324642Y-75704642D01*
X127205864Y-75849373D01*
X127205862Y-75849376D01*
X127117604Y-76014497D01*
X127063253Y-76193666D01*
X127063252Y-76193668D01*
X127044901Y-76380000D01*
X127063252Y-76566331D01*
X127063253Y-76566333D01*
X127117604Y-76745502D01*
X127205862Y-76910623D01*
X127205864Y-76910626D01*
X127324642Y-77055357D01*
X127469373Y-77174135D01*
X127469376Y-77174137D01*
X127634497Y-77262395D01*
X127634499Y-77262396D01*
X127813669Y-77316747D01*
X127849178Y-77320244D01*
X127913965Y-77346404D01*
X127924706Y-77355966D01*
X131566519Y-80997779D01*
X131600004Y-81059102D01*
X131602159Y-81072497D01*
X131614326Y-81188256D01*
X131614327Y-81188259D01*
X131672818Y-81368277D01*
X131672821Y-81368284D01*
X131767467Y-81532216D01*
X131866366Y-81642054D01*
X131894129Y-81672888D01*
X132047265Y-81784148D01*
X132047270Y-81784151D01*
X132220192Y-81861142D01*
X132220197Y-81861144D01*
X132405354Y-81900500D01*
X132405355Y-81900500D01*
X132594644Y-81900500D01*
X132594646Y-81900500D01*
X132779803Y-81861144D01*
X132952730Y-81784151D01*
X133105871Y-81672888D01*
X133232533Y-81532216D01*
X133327179Y-81368284D01*
X133385674Y-81188256D01*
X133405460Y-81000000D01*
X133385674Y-80811744D01*
X133327179Y-80631716D01*
X133288206Y-80564213D01*
X133271734Y-80496315D01*
X133294587Y-80430288D01*
X133349508Y-80387097D01*
X133419061Y-80380456D01*
X133481164Y-80412472D01*
X133483275Y-80414534D01*
X134063181Y-80994440D01*
X134096666Y-81055763D01*
X134099500Y-81082121D01*
X134099500Y-81764820D01*
X134099500Y-81764822D01*
X134099499Y-81764822D01*
X134108231Y-81808717D01*
X134108234Y-81808724D01*
X134141495Y-81858503D01*
X134141496Y-81858504D01*
X134191278Y-81891767D01*
X134191281Y-81891767D01*
X134191282Y-81891768D01*
X134235177Y-81900500D01*
X134235180Y-81900500D01*
X135764822Y-81900500D01*
X135808717Y-81891768D01*
X135808717Y-81891767D01*
X135808722Y-81891767D01*
X135858504Y-81858504D01*
X135891767Y-81808722D01*
X135900500Y-81764820D01*
X135900500Y-80235180D01*
X135900500Y-80235177D01*
X135891768Y-80191282D01*
X135891767Y-80191281D01*
X135891767Y-80191278D01*
X135858504Y-80141496D01*
X135858503Y-80141495D01*
X135808724Y-80108234D01*
X135808717Y-80108231D01*
X135764822Y-80099500D01*
X135764820Y-80099500D01*
X135082121Y-80099500D01*
X135015082Y-80079815D01*
X134994440Y-80063181D01*
X130031260Y-75100000D01*
X136144901Y-75100000D01*
X136163252Y-75286331D01*
X136163253Y-75286333D01*
X136217604Y-75465502D01*
X136305862Y-75630622D01*
X136305864Y-75630625D01*
X136413354Y-75761602D01*
X136440666Y-75825908D01*
X136441500Y-75840264D01*
X136441500Y-80513609D01*
X136439718Y-80529746D01*
X136439946Y-80529768D01*
X136439211Y-80537534D01*
X136441500Y-80610342D01*
X136441500Y-80641434D01*
X136442433Y-80648829D01*
X136442891Y-80654647D01*
X136444437Y-80703829D01*
X136444438Y-80703832D01*
X136450464Y-80724577D01*
X136454407Y-80743618D01*
X136457116Y-80765053D01*
X136457117Y-80765057D01*
X136457118Y-80765064D01*
X136469789Y-80797068D01*
X136475234Y-80810822D01*
X136477125Y-80816348D01*
X136490854Y-80863598D01*
X136501850Y-80882191D01*
X136510410Y-80899665D01*
X136518363Y-80919754D01*
X136533659Y-80940806D01*
X136546846Y-80958956D01*
X136547289Y-80959565D01*
X136550490Y-80964437D01*
X136565492Y-80989806D01*
X136575547Y-81006808D01*
X136576696Y-81008289D01*
X136577275Y-81009729D01*
X136579519Y-81013524D01*
X136578938Y-81013867D01*
X136602036Y-81071325D01*
X136614326Y-81188256D01*
X136614327Y-81188259D01*
X136672818Y-81368277D01*
X136672821Y-81368284D01*
X136767467Y-81532216D01*
X136866366Y-81642054D01*
X136894129Y-81672888D01*
X137047265Y-81784148D01*
X137047270Y-81784151D01*
X137220192Y-81861142D01*
X137220197Y-81861144D01*
X137405354Y-81900500D01*
X137405355Y-81900500D01*
X137594644Y-81900500D01*
X137594646Y-81900500D01*
X137779803Y-81861144D01*
X137952730Y-81784151D01*
X138105871Y-81672888D01*
X138232533Y-81532216D01*
X138327179Y-81368284D01*
X138385674Y-81188256D01*
X138398338Y-81067763D01*
X142145787Y-81067763D01*
X142175413Y-81337013D01*
X142175415Y-81337024D01*
X142242858Y-81594997D01*
X142243928Y-81599088D01*
X142349870Y-81848390D01*
X142393686Y-81920185D01*
X142490979Y-82079605D01*
X142490986Y-82079615D01*
X142664253Y-82287819D01*
X142664259Y-82287824D01*
X142865998Y-82468582D01*
X143091910Y-82618044D01*
X143337176Y-82733020D01*
X143337183Y-82733022D01*
X143337185Y-82733023D01*
X143596557Y-82811057D01*
X143596564Y-82811058D01*
X143596569Y-82811060D01*
X143864561Y-82850500D01*
X143864566Y-82850500D01*
X144067636Y-82850500D01*
X144119133Y-82846730D01*
X144270156Y-82835677D01*
X144382758Y-82810593D01*
X144534546Y-82776782D01*
X144534548Y-82776781D01*
X144534553Y-82776780D01*
X144787558Y-82680014D01*
X145023777Y-82547441D01*
X145238177Y-82381888D01*
X145426186Y-82186881D01*
X145583799Y-81966579D01*
X145664961Y-81808717D01*
X145707649Y-81725690D01*
X145707651Y-81725684D01*
X145707656Y-81725675D01*
X145795118Y-81469305D01*
X145844319Y-81202933D01*
X145854212Y-80932235D01*
X145824586Y-80662982D01*
X145756072Y-80400912D01*
X145650130Y-80151610D01*
X145509018Y-79920390D01*
X145419747Y-79813119D01*
X145335746Y-79712180D01*
X145335740Y-79712175D01*
X145134002Y-79531418D01*
X144908092Y-79381957D01*
X144908090Y-79381956D01*
X144662824Y-79266980D01*
X144662819Y-79266978D01*
X144662814Y-79266976D01*
X144403442Y-79188942D01*
X144403428Y-79188939D01*
X144287791Y-79171921D01*
X144135439Y-79149500D01*
X143932369Y-79149500D01*
X143932364Y-79149500D01*
X143729844Y-79164323D01*
X143729831Y-79164325D01*
X143465453Y-79223217D01*
X143465446Y-79223220D01*
X143212439Y-79319987D01*
X142976226Y-79452557D01*
X142761822Y-79618112D01*
X142573822Y-79813109D01*
X142573816Y-79813116D01*
X142416202Y-80033419D01*
X142416199Y-80033424D01*
X142292350Y-80274309D01*
X142292343Y-80274327D01*
X142204884Y-80530685D01*
X142204881Y-80530699D01*
X142184428Y-80641432D01*
X142165554Y-80743618D01*
X142155681Y-80797068D01*
X142155680Y-80797075D01*
X142145787Y-81067763D01*
X138398338Y-81067763D01*
X138405460Y-81000000D01*
X138385674Y-80811744D01*
X138327179Y-80631716D01*
X138232533Y-80467784D01*
X138105871Y-80327112D01*
X138105870Y-80327111D01*
X137952734Y-80215851D01*
X137952729Y-80215848D01*
X137832064Y-80162124D01*
X137778827Y-80116874D01*
X137758506Y-80050025D01*
X137758500Y-80048845D01*
X137758500Y-75840264D01*
X137778185Y-75773225D01*
X137786633Y-75761617D01*
X137894136Y-75630625D01*
X137982396Y-75465501D01*
X138036747Y-75286331D01*
X138055099Y-75100000D01*
X138036747Y-74913669D01*
X137982396Y-74734499D01*
X137963956Y-74700000D01*
X137894137Y-74569376D01*
X137894135Y-74569373D01*
X137775357Y-74424642D01*
X137630626Y-74305864D01*
X137630623Y-74305862D01*
X137465502Y-74217604D01*
X137286333Y-74163253D01*
X137286331Y-74163252D01*
X137100000Y-74144901D01*
X136913668Y-74163252D01*
X136913666Y-74163253D01*
X136734497Y-74217604D01*
X136569376Y-74305862D01*
X136569373Y-74305864D01*
X136424642Y-74424642D01*
X136305864Y-74569373D01*
X136305862Y-74569376D01*
X136217604Y-74734497D01*
X136163253Y-74913666D01*
X136163252Y-74913668D01*
X136144901Y-75100000D01*
X130031260Y-75100000D01*
X129226717Y-74295457D01*
X129216564Y-74282785D01*
X129216388Y-74282931D01*
X129211419Y-74276926D01*
X129211416Y-74276920D01*
X129180435Y-74247827D01*
X129158315Y-74227054D01*
X129136333Y-74205072D01*
X129130439Y-74200501D01*
X129126002Y-74196711D01*
X129090133Y-74163028D01*
X129090131Y-74163026D01*
X129071200Y-74152619D01*
X129054948Y-74141944D01*
X129037868Y-74128696D01*
X129037864Y-74128694D01*
X128992702Y-74109150D01*
X128987455Y-74106580D01*
X128944337Y-74082875D01*
X128944338Y-74082875D01*
X128923411Y-74077502D01*
X128905006Y-74071201D01*
X128885174Y-74062619D01*
X128836569Y-74054921D01*
X128830847Y-74053736D01*
X128794623Y-74044436D01*
X128783188Y-74041500D01*
X128783187Y-74041500D01*
X128761581Y-74041500D01*
X128742183Y-74039973D01*
X128733603Y-74038614D01*
X128720849Y-74036594D01*
X128720848Y-74036594D01*
X128671855Y-74041225D01*
X128666019Y-74041500D01*
X125386391Y-74041500D01*
X125370247Y-74039717D01*
X125370226Y-74039945D01*
X125362464Y-74039211D01*
X125362463Y-74039211D01*
X125289626Y-74041500D01*
X125258568Y-74041500D01*
X125258565Y-74041500D01*
X125258552Y-74041501D01*
X125251176Y-74042432D01*
X125245358Y-74042890D01*
X125196171Y-74044436D01*
X125175416Y-74050466D01*
X125156370Y-74054410D01*
X125134932Y-74057118D01*
X125089184Y-74075231D01*
X125083659Y-74077123D01*
X125036399Y-74090855D01*
X125017808Y-74101850D01*
X125000339Y-74110408D01*
X124980246Y-74118364D01*
X124980245Y-74118364D01*
X124980244Y-74118365D01*
X124966025Y-74128696D01*
X124940433Y-74147289D01*
X124935550Y-74150496D01*
X124893192Y-74175546D01*
X124877913Y-74190826D01*
X124863127Y-74203455D01*
X124845643Y-74216159D01*
X124845641Y-74216161D01*
X124845640Y-74216162D01*
X124814271Y-74254078D01*
X124810339Y-74258399D01*
X123745453Y-75323285D01*
X123732785Y-75333435D01*
X123732931Y-75333611D01*
X123726920Y-75338583D01*
X123677053Y-75391686D01*
X123655072Y-75413667D01*
X123650492Y-75419569D01*
X123646708Y-75423998D01*
X123613029Y-75459865D01*
X123613024Y-75459872D01*
X123602618Y-75478800D01*
X123591942Y-75495054D01*
X123578695Y-75512133D01*
X123559150Y-75557297D01*
X123556580Y-75562543D01*
X123532876Y-75605661D01*
X123527502Y-75626589D01*
X123521203Y-75644987D01*
X123512619Y-75664825D01*
X123504923Y-75713420D01*
X123503738Y-75719143D01*
X123491500Y-75766809D01*
X123491500Y-75788413D01*
X123489974Y-75807808D01*
X123486594Y-75829151D01*
X123491225Y-75878143D01*
X123491500Y-75883981D01*
X123491500Y-78025878D01*
X123471815Y-78092917D01*
X123455181Y-78113559D01*
X121587681Y-79981059D01*
X121526358Y-80014544D01*
X121456666Y-80009560D01*
X121412319Y-79981059D01*
X120618717Y-79187457D01*
X120608564Y-79174785D01*
X120608388Y-79174931D01*
X120603419Y-79168926D01*
X120603416Y-79168920D01*
X120577754Y-79144822D01*
X120550315Y-79119054D01*
X120528333Y-79097072D01*
X120522439Y-79092501D01*
X120518002Y-79088711D01*
X120482133Y-79055028D01*
X120482131Y-79055026D01*
X120463200Y-79044619D01*
X120446948Y-79033944D01*
X120429868Y-79020696D01*
X120429864Y-79020694D01*
X120384702Y-79001150D01*
X120379455Y-78998580D01*
X120336337Y-78974875D01*
X120336338Y-78974875D01*
X120315411Y-78969502D01*
X120297006Y-78963201D01*
X120277174Y-78954619D01*
X120228569Y-78946921D01*
X120222847Y-78945736D01*
X120186627Y-78936437D01*
X120175188Y-78933500D01*
X120175187Y-78933500D01*
X120153581Y-78933500D01*
X120134183Y-78931973D01*
X120125603Y-78930614D01*
X120112849Y-78928594D01*
X120112848Y-78928594D01*
X120063855Y-78933225D01*
X120058019Y-78933500D01*
X118394391Y-78933500D01*
X118378253Y-78931718D01*
X118378232Y-78931946D01*
X118370465Y-78931211D01*
X118297658Y-78933500D01*
X118266566Y-78933500D01*
X118259172Y-78934433D01*
X118253354Y-78934891D01*
X118204173Y-78936437D01*
X118204163Y-78936439D01*
X118183422Y-78942464D01*
X118164382Y-78946407D01*
X118142946Y-78949116D01*
X118142931Y-78949119D01*
X118097178Y-78967233D01*
X118091654Y-78969124D01*
X118044402Y-78982854D01*
X118044394Y-78982857D01*
X118025803Y-78993852D01*
X118008338Y-79002408D01*
X117988247Y-79010363D01*
X117988242Y-79010366D01*
X117948427Y-79039292D01*
X117943545Y-79042499D01*
X117901190Y-79067549D01*
X117885916Y-79082823D01*
X117871128Y-79095454D01*
X117853643Y-79108158D01*
X117853640Y-79108162D01*
X117822266Y-79146084D01*
X117818334Y-79150405D01*
X107595453Y-89373285D01*
X107582785Y-89383435D01*
X107582931Y-89383611D01*
X107576920Y-89388583D01*
X107527053Y-89441686D01*
X107505072Y-89463667D01*
X107500492Y-89469569D01*
X107496708Y-89473998D01*
X107463029Y-89509865D01*
X107463024Y-89509872D01*
X107452618Y-89528800D01*
X107441942Y-89545054D01*
X107428695Y-89562133D01*
X107409150Y-89607297D01*
X107406580Y-89612543D01*
X107382876Y-89655661D01*
X107377502Y-89676589D01*
X107371203Y-89694987D01*
X107362619Y-89714825D01*
X107354923Y-89763420D01*
X107353738Y-89769143D01*
X107341500Y-89816809D01*
X107341500Y-89838413D01*
X107339974Y-89857808D01*
X107336594Y-89879151D01*
X107341225Y-89928143D01*
X107341500Y-89933981D01*
X107341500Y-94069735D01*
X107321815Y-94136774D01*
X107313353Y-94148400D01*
X107205864Y-94279373D01*
X107205862Y-94279376D01*
X107117604Y-94444497D01*
X107063253Y-94623666D01*
X107063252Y-94623668D01*
X107046645Y-94792288D01*
X107020484Y-94857076D01*
X107010923Y-94867815D01*
X103750420Y-98128318D01*
X103689097Y-98161803D01*
X103624421Y-98158568D01*
X103488259Y-98114327D01*
X103488256Y-98114326D01*
X103347192Y-98099500D01*
X102732808Y-98099500D01*
X102591744Y-98114326D01*
X102591741Y-98114326D01*
X102591740Y-98114327D01*
X102411722Y-98172818D01*
X102411715Y-98172821D01*
X102247785Y-98267466D01*
X102107111Y-98394129D01*
X101995851Y-98547265D01*
X101995848Y-98547270D01*
X101918857Y-98720192D01*
X101918855Y-98720197D01*
X101879500Y-98905354D01*
X101879500Y-99094645D01*
X100100500Y-99094645D01*
X100100500Y-69564822D01*
X100499499Y-69564822D01*
X100508231Y-69608717D01*
X100508234Y-69608724D01*
X100541495Y-69658503D01*
X100541496Y-69658504D01*
X100591278Y-69691767D01*
X100591281Y-69691767D01*
X100591282Y-69691768D01*
X100635177Y-69700500D01*
X100635180Y-69700500D01*
X100859500Y-69700500D01*
X100926539Y-69720185D01*
X100972294Y-69772989D01*
X100983500Y-69824500D01*
X100983500Y-94515609D01*
X100981718Y-94531746D01*
X100981946Y-94531768D01*
X100981211Y-94539534D01*
X100983500Y-94612342D01*
X100983500Y-94643434D01*
X100984433Y-94650829D01*
X100984891Y-94656647D01*
X100986437Y-94705829D01*
X100986438Y-94705832D01*
X100992464Y-94726577D01*
X100996407Y-94745618D01*
X100999116Y-94767053D01*
X100999117Y-94767057D01*
X100999118Y-94767064D01*
X101015284Y-94807897D01*
X101017234Y-94812822D01*
X101019125Y-94818348D01*
X101032854Y-94865598D01*
X101043850Y-94884191D01*
X101052410Y-94901665D01*
X101060363Y-94921754D01*
X101089289Y-94961565D01*
X101092490Y-94966437D01*
X101117547Y-95008807D01*
X101117551Y-95008811D01*
X101132821Y-95024081D01*
X101145458Y-95038876D01*
X101158159Y-95056357D01*
X101186515Y-95079815D01*
X101196072Y-95087721D01*
X101200383Y-95091643D01*
X101577216Y-95468476D01*
X101843181Y-95734441D01*
X101876666Y-95795764D01*
X101879500Y-95822122D01*
X101879500Y-96531523D01*
X101894352Y-96625298D01*
X101894353Y-96625301D01*
X101894354Y-96625303D01*
X101951950Y-96738342D01*
X101951951Y-96738343D01*
X101951954Y-96738347D01*
X102041652Y-96828045D01*
X102041656Y-96828048D01*
X102041658Y-96828050D01*
X102154697Y-96885646D01*
X102154699Y-96885646D01*
X102154701Y-96885647D01*
X102248477Y-96900500D01*
X102248482Y-96900500D01*
X103831523Y-96900500D01*
X103925298Y-96885647D01*
X103925298Y-96885646D01*
X103925303Y-96885646D01*
X104038342Y-96828050D01*
X104128050Y-96738342D01*
X104185646Y-96625303D01*
X104185647Y-96625298D01*
X104200500Y-96531523D01*
X104200500Y-95468476D01*
X104185647Y-95374701D01*
X104185646Y-95374699D01*
X104185646Y-95374697D01*
X104128050Y-95261658D01*
X104128048Y-95261656D01*
X104128045Y-95261652D01*
X104038347Y-95171954D01*
X104038343Y-95171951D01*
X104038342Y-95171950D01*
X103925303Y-95114354D01*
X103925301Y-95114353D01*
X103925298Y-95114352D01*
X103831523Y-95099500D01*
X103831518Y-95099500D01*
X103122122Y-95099500D01*
X103055083Y-95079815D01*
X103034441Y-95063181D01*
X102336819Y-94365559D01*
X102303334Y-94304236D01*
X102300500Y-94277878D01*
X102300500Y-93093069D01*
X104114500Y-93093069D01*
X104153199Y-93275141D01*
X104153201Y-93275147D01*
X104228910Y-93445188D01*
X104228909Y-93445188D01*
X104228910Y-93445189D01*
X104338320Y-93595779D01*
X104338321Y-93595780D01*
X104338322Y-93595781D01*
X104338324Y-93595784D01*
X104404658Y-93655510D01*
X104476649Y-93720331D01*
X104637851Y-93813401D01*
X104637853Y-93813401D01*
X104637856Y-93813403D01*
X104696244Y-93832374D01*
X104814880Y-93870921D01*
X104953589Y-93885500D01*
X104953594Y-93885500D01*
X105046406Y-93885500D01*
X105046411Y-93885500D01*
X105185120Y-93870921D01*
X105362149Y-93813401D01*
X105523351Y-93720331D01*
X105633596Y-93621066D01*
X105661675Y-93595784D01*
X105661675Y-93595782D01*
X105661680Y-93595779D01*
X105771090Y-93445189D01*
X105846800Y-93275142D01*
X105885500Y-93093070D01*
X105885500Y-92906930D01*
X105846800Y-92724858D01*
X105846798Y-92724852D01*
X105788009Y-92592812D01*
X105771090Y-92554811D01*
X105661680Y-92404221D01*
X105661677Y-92404218D01*
X105661675Y-92404215D01*
X105571536Y-92323055D01*
X105523351Y-92279669D01*
X105362149Y-92186599D01*
X105362143Y-92186596D01*
X105185124Y-92129080D01*
X105185122Y-92129079D01*
X105145488Y-92124913D01*
X105046411Y-92114500D01*
X104953589Y-92114500D01*
X104866895Y-92123611D01*
X104814877Y-92129079D01*
X104814875Y-92129080D01*
X104637856Y-92186596D01*
X104637850Y-92186599D01*
X104476650Y-92279668D01*
X104338324Y-92404215D01*
X104338322Y-92404218D01*
X104228909Y-92554811D01*
X104153201Y-92724852D01*
X104153199Y-92724858D01*
X104114500Y-92906930D01*
X104114500Y-93093069D01*
X102300500Y-93093069D01*
X102300500Y-76722948D01*
X102320185Y-76655909D01*
X102372989Y-76610154D01*
X102442147Y-76600210D01*
X102503165Y-76627095D01*
X102613550Y-76717685D01*
X102796046Y-76815232D01*
X102994066Y-76875300D01*
X102994065Y-76875300D01*
X103012529Y-76877118D01*
X103200000Y-76895583D01*
X103405934Y-76875300D01*
X103603954Y-76815232D01*
X103786450Y-76717685D01*
X103946410Y-76586410D01*
X103981350Y-76543835D01*
X104039095Y-76504501D01*
X104077203Y-76498500D01*
X106055878Y-76498500D01*
X106122917Y-76518185D01*
X106143559Y-76534819D01*
X107867310Y-78258569D01*
X107900795Y-78319892D01*
X107903629Y-78346250D01*
X107903629Y-80139296D01*
X107883944Y-80206335D01*
X107831140Y-80252090D01*
X107761982Y-80262034D01*
X107698426Y-80233009D01*
X107665507Y-80187795D01*
X107650130Y-80151610D01*
X107509018Y-79920390D01*
X107419747Y-79813119D01*
X107335746Y-79712180D01*
X107335740Y-79712175D01*
X107134002Y-79531418D01*
X106908092Y-79381957D01*
X106908090Y-79381956D01*
X106662824Y-79266980D01*
X106662819Y-79266978D01*
X106662814Y-79266976D01*
X106403442Y-79188942D01*
X106403428Y-79188939D01*
X106287791Y-79171921D01*
X106135439Y-79149500D01*
X105932369Y-79149500D01*
X105932364Y-79149500D01*
X105729844Y-79164323D01*
X105729831Y-79164325D01*
X105465453Y-79223217D01*
X105465446Y-79223220D01*
X105212439Y-79319987D01*
X104976226Y-79452557D01*
X104761822Y-79618112D01*
X104573822Y-79813109D01*
X104573816Y-79813116D01*
X104416202Y-80033419D01*
X104416199Y-80033424D01*
X104292350Y-80274309D01*
X104292343Y-80274327D01*
X104204884Y-80530685D01*
X104204881Y-80530699D01*
X104184428Y-80641432D01*
X104165554Y-80743618D01*
X104155681Y-80797068D01*
X104155680Y-80797075D01*
X104145787Y-81067763D01*
X104175413Y-81337013D01*
X104175415Y-81337024D01*
X104242858Y-81594997D01*
X104243928Y-81599088D01*
X104349870Y-81848390D01*
X104393686Y-81920185D01*
X104490979Y-82079605D01*
X104490986Y-82079615D01*
X104664253Y-82287819D01*
X104664259Y-82287824D01*
X104865998Y-82468582D01*
X105091910Y-82618044D01*
X105337176Y-82733020D01*
X105337183Y-82733022D01*
X105337185Y-82733023D01*
X105596557Y-82811057D01*
X105596564Y-82811058D01*
X105596569Y-82811060D01*
X105864561Y-82850500D01*
X105864566Y-82850500D01*
X106067636Y-82850500D01*
X106119133Y-82846730D01*
X106270156Y-82835677D01*
X106382758Y-82810593D01*
X106534546Y-82776782D01*
X106534548Y-82776781D01*
X106534553Y-82776780D01*
X106787558Y-82680014D01*
X107023777Y-82547441D01*
X107238177Y-82381888D01*
X107426186Y-82186881D01*
X107583799Y-81966579D01*
X107664959Y-81808722D01*
X107669351Y-81800180D01*
X107717510Y-81749559D01*
X107785392Y-81733012D01*
X107851444Y-81755791D01*
X107894696Y-81810665D01*
X107903629Y-81856878D01*
X107903629Y-86133999D01*
X107883944Y-86201038D01*
X107831140Y-86246793D01*
X107815625Y-86252659D01*
X107634497Y-86307604D01*
X107469376Y-86395862D01*
X107469373Y-86395864D01*
X107324642Y-86514642D01*
X107205864Y-86659373D01*
X107205862Y-86659376D01*
X107117604Y-86824497D01*
X107063253Y-87003666D01*
X107063252Y-87003668D01*
X107044901Y-87190000D01*
X107063252Y-87376331D01*
X107063253Y-87376333D01*
X107117604Y-87555502D01*
X107205862Y-87720623D01*
X107205864Y-87720626D01*
X107324642Y-87865357D01*
X107469373Y-87984135D01*
X107469376Y-87984137D01*
X107634497Y-88072395D01*
X107634499Y-88072396D01*
X107813666Y-88126746D01*
X107813668Y-88126747D01*
X107830374Y-88128392D01*
X108000000Y-88145099D01*
X108186331Y-88126747D01*
X108365501Y-88072396D01*
X108530625Y-87984136D01*
X108675357Y-87865357D01*
X108794136Y-87720625D01*
X108882396Y-87555501D01*
X108936747Y-87376331D01*
X108953016Y-87211143D01*
X108979177Y-87146358D01*
X108986015Y-87138427D01*
X109035089Y-87086169D01*
X109057055Y-87064204D01*
X109061617Y-87058322D01*
X109065409Y-87053881D01*
X109099101Y-87018004D01*
X109109504Y-86999079D01*
X109120190Y-86982811D01*
X109133433Y-86965740D01*
X109152979Y-86920570D01*
X109155539Y-86915341D01*
X109179253Y-86872208D01*
X109184625Y-86851280D01*
X109190925Y-86832880D01*
X109199508Y-86813048D01*
X109207206Y-86764442D01*
X109208386Y-86758736D01*
X109220629Y-86711059D01*
X109220629Y-86689452D01*
X109222156Y-86670051D01*
X109225535Y-86648720D01*
X109220904Y-86599729D01*
X109220629Y-86593891D01*
X109220629Y-78108516D01*
X109222411Y-78092378D01*
X109222183Y-78092357D01*
X109222917Y-78084594D01*
X109220629Y-78011786D01*
X109220629Y-77980703D01*
X109220629Y-77980697D01*
X109219695Y-77973304D01*
X109219236Y-77967476D01*
X109217691Y-77918300D01*
X109217691Y-77918298D01*
X109211661Y-77897543D01*
X109207718Y-77878497D01*
X109205011Y-77857065D01*
X109186893Y-77811305D01*
X109185000Y-77805774D01*
X109179331Y-77786264D01*
X109171274Y-77758528D01*
X109171272Y-77758524D01*
X109171271Y-77758522D01*
X109160278Y-77739936D01*
X109151717Y-77722461D01*
X109143764Y-77702373D01*
X109114832Y-77662552D01*
X109111627Y-77657672D01*
X109086581Y-77615322D01*
X109071307Y-77600048D01*
X109058668Y-77585250D01*
X109056042Y-77581635D01*
X109045970Y-77567772D01*
X109045968Y-77567770D01*
X109045969Y-77567770D01*
X109008043Y-77536396D01*
X109003721Y-77532462D01*
X106906717Y-75435457D01*
X106896564Y-75422785D01*
X106896388Y-75422931D01*
X106891419Y-75416926D01*
X106891416Y-75416920D01*
X106865754Y-75392822D01*
X106838315Y-75367054D01*
X106816333Y-75345072D01*
X106810439Y-75340501D01*
X106806002Y-75336711D01*
X106770133Y-75303028D01*
X106770131Y-75303026D01*
X106751200Y-75292619D01*
X106734948Y-75281944D01*
X106717868Y-75268696D01*
X106717864Y-75268694D01*
X106672702Y-75249150D01*
X106667455Y-75246580D01*
X106624337Y-75222875D01*
X106624338Y-75222875D01*
X106603411Y-75217502D01*
X106585006Y-75211201D01*
X106565174Y-75202619D01*
X106516569Y-75194921D01*
X106510847Y-75193736D01*
X106477188Y-75185094D01*
X106463188Y-75181500D01*
X106463187Y-75181500D01*
X106441581Y-75181500D01*
X106422183Y-75179973D01*
X106413603Y-75178614D01*
X106400849Y-75176594D01*
X106400848Y-75176594D01*
X106351855Y-75181225D01*
X106346019Y-75181500D01*
X104077203Y-75181500D01*
X104010164Y-75161815D01*
X103981350Y-75136165D01*
X103946408Y-75093588D01*
X103786452Y-74962317D01*
X103786453Y-74962317D01*
X103786450Y-74962315D01*
X103732274Y-74933357D01*
X103682431Y-74884395D01*
X103666971Y-74816257D01*
X103690803Y-74750578D01*
X103746361Y-74708209D01*
X103790729Y-74700000D01*
X104147828Y-74700000D01*
X104147844Y-74699999D01*
X104207372Y-74693598D01*
X104207379Y-74693596D01*
X104342086Y-74643354D01*
X104342093Y-74643350D01*
X104457187Y-74557190D01*
X104457190Y-74557187D01*
X104543350Y-74442093D01*
X104543354Y-74442086D01*
X104593596Y-74307379D01*
X104593598Y-74307372D01*
X104599999Y-74247844D01*
X104600000Y-74247827D01*
X104600000Y-73550000D01*
X103575278Y-73550000D01*
X103623625Y-73466260D01*
X103653810Y-73334008D01*
X103643673Y-73198735D01*
X103594113Y-73072459D01*
X103576203Y-73050000D01*
X104600000Y-73050000D01*
X104600000Y-72352172D01*
X104599999Y-72352155D01*
X104593598Y-72292627D01*
X104593597Y-72292623D01*
X104544292Y-72160430D01*
X104539308Y-72090738D01*
X104572793Y-72029415D01*
X104634116Y-71995930D01*
X104703808Y-72000914D01*
X104748155Y-72029415D01*
X110123280Y-77404540D01*
X110133430Y-77417208D01*
X110133606Y-77417064D01*
X110138580Y-77423076D01*
X110191685Y-77472946D01*
X110213661Y-77494922D01*
X110219551Y-77499491D01*
X110223994Y-77503286D01*
X110259864Y-77536970D01*
X110259866Y-77536971D01*
X110259867Y-77536972D01*
X110278803Y-77547382D01*
X110295049Y-77558053D01*
X110312132Y-77571304D01*
X110354382Y-77589587D01*
X110357296Y-77590848D01*
X110362544Y-77593420D01*
X110391149Y-77609145D01*
X110405663Y-77617124D01*
X110421823Y-77621272D01*
X110426583Y-77622495D01*
X110444986Y-77628795D01*
X110464824Y-77637380D01*
X110499567Y-77642882D01*
X110513431Y-77645078D01*
X110519146Y-77646261D01*
X110566812Y-77658500D01*
X110588419Y-77658500D01*
X110607816Y-77660026D01*
X110629152Y-77663406D01*
X110678144Y-77658774D01*
X110683981Y-77658500D01*
X120613609Y-77658500D01*
X120629746Y-77660281D01*
X120629768Y-77660054D01*
X120637534Y-77660788D01*
X120637536Y-77660787D01*
X120637537Y-77660788D01*
X120710342Y-77658500D01*
X120741432Y-77658500D01*
X120748823Y-77657566D01*
X120754651Y-77657107D01*
X120803831Y-77655562D01*
X120824583Y-77649532D01*
X120843621Y-77645590D01*
X120865064Y-77642882D01*
X120910834Y-77624760D01*
X120916348Y-77622873D01*
X120942875Y-77615165D01*
X120963600Y-77609145D01*
X120982196Y-77598146D01*
X120999664Y-77589589D01*
X121019756Y-77581635D01*
X121059582Y-77552698D01*
X121064441Y-77549506D01*
X121106807Y-77524453D01*
X121122090Y-77509168D01*
X121136873Y-77496542D01*
X121154357Y-77483841D01*
X121185731Y-77445914D01*
X121189645Y-77441613D01*
X128894441Y-69736819D01*
X128955764Y-69703334D01*
X128982122Y-69700500D01*
X131364822Y-69700500D01*
X131408717Y-69691768D01*
X131408717Y-69691767D01*
X131408722Y-69691767D01*
X131458504Y-69658504D01*
X131491767Y-69608722D01*
X131492740Y-69603829D01*
X131500500Y-69564822D01*
X131500500Y-64435177D01*
X131491768Y-64391282D01*
X131491767Y-64391281D01*
X131491767Y-64391278D01*
X131458504Y-64341496D01*
X131458503Y-64341495D01*
X131408724Y-64308234D01*
X131408717Y-64308231D01*
X131364822Y-64299500D01*
X131364820Y-64299500D01*
X126235180Y-64299500D01*
X126235178Y-64299500D01*
X126191282Y-64308231D01*
X126191275Y-64308234D01*
X126141496Y-64341495D01*
X126141495Y-64341496D01*
X126108234Y-64391275D01*
X126108231Y-64391282D01*
X126099500Y-64435177D01*
X126099500Y-64435180D01*
X126099500Y-69564820D01*
X126099500Y-69564822D01*
X126099499Y-69564822D01*
X126108231Y-69608717D01*
X126108234Y-69608724D01*
X126141495Y-69658503D01*
X126141496Y-69658504D01*
X126191278Y-69691767D01*
X126191281Y-69691767D01*
X126191282Y-69691768D01*
X126235177Y-69700500D01*
X126235180Y-69700500D01*
X126768878Y-69700500D01*
X126835917Y-69720185D01*
X126881672Y-69772989D01*
X126891616Y-69842147D01*
X126862591Y-69905703D01*
X126856559Y-69912181D01*
X120463559Y-76305181D01*
X120402236Y-76338666D01*
X120375878Y-76341500D01*
X118410156Y-76341500D01*
X118343117Y-76321815D01*
X118297362Y-76269011D01*
X118287418Y-76199853D01*
X118316443Y-76136297D01*
X118375221Y-76098523D01*
X118381999Y-76096739D01*
X118434208Y-76084566D01*
X119023143Y-75905914D01*
X119023144Y-75905914D01*
X119599149Y-75689121D01*
X120159742Y-75435120D01*
X120702516Y-75145001D01*
X120702516Y-75145002D01*
X121225152Y-74820006D01*
X121725424Y-74461517D01*
X121725423Y-74461517D01*
X122201175Y-74071076D01*
X122201176Y-74071076D01*
X122467800Y-73821354D01*
X116000000Y-67353553D01*
X109532199Y-73821354D01*
X109798832Y-74071082D01*
X109798832Y-74071083D01*
X110274577Y-74461517D01*
X110274576Y-74461517D01*
X110774848Y-74820006D01*
X111297484Y-75145002D01*
X111297484Y-75145001D01*
X111840258Y-75435120D01*
X112400851Y-75689121D01*
X112976856Y-75905914D01*
X112976857Y-75905914D01*
X113565792Y-76084566D01*
X113618001Y-76096739D01*
X113678820Y-76131133D01*
X113711389Y-76192947D01*
X113705368Y-76262557D01*
X113662670Y-76317861D01*
X113596849Y-76341302D01*
X113589844Y-76341500D01*
X110974122Y-76341500D01*
X110907083Y-76321815D01*
X110886441Y-76305181D01*
X104493441Y-69912181D01*
X104459956Y-69850858D01*
X104464940Y-69781166D01*
X104506812Y-69725233D01*
X104572276Y-69700816D01*
X104581122Y-69700500D01*
X105764822Y-69700500D01*
X105808717Y-69691768D01*
X105808717Y-69691767D01*
X105808722Y-69691767D01*
X105858504Y-69658504D01*
X105891767Y-69608722D01*
X105892740Y-69603829D01*
X105900500Y-69564822D01*
X105900500Y-67000000D01*
X106594964Y-67000000D01*
X106615101Y-67615126D01*
X106675425Y-68227600D01*
X106675425Y-68227601D01*
X106775678Y-68834827D01*
X106915434Y-69434208D01*
X107094086Y-70023143D01*
X107094086Y-70023144D01*
X107310879Y-70599149D01*
X107564880Y-71159742D01*
X107854999Y-71702516D01*
X107854998Y-71702516D01*
X108179994Y-72225152D01*
X108538483Y-72725424D01*
X108538483Y-72725423D01*
X108928917Y-73201168D01*
X108928918Y-73201168D01*
X109178644Y-73467799D01*
X109178645Y-73467800D01*
X115646446Y-67000000D01*
X116353553Y-67000000D01*
X122821354Y-73467800D01*
X123071076Y-73201176D01*
X123071076Y-73201175D01*
X123461517Y-72725423D01*
X123461517Y-72725424D01*
X123820006Y-72225152D01*
X124145002Y-71702516D01*
X124145001Y-71702516D01*
X124435120Y-71159742D01*
X124689121Y-70599149D01*
X124905914Y-70023144D01*
X124905914Y-70023143D01*
X125084566Y-69434208D01*
X125224322Y-68834827D01*
X125324575Y-68227601D01*
X125324575Y-68227600D01*
X125384899Y-67615126D01*
X125405036Y-67000000D01*
X125384899Y-66384874D01*
X125324575Y-65772400D01*
X125324575Y-65772399D01*
X125224322Y-65165173D01*
X125084566Y-64565792D01*
X124905914Y-63976857D01*
X124905914Y-63976856D01*
X124689121Y-63400851D01*
X124435120Y-62840258D01*
X124145001Y-62297484D01*
X124145002Y-62297484D01*
X123820006Y-61774848D01*
X123461517Y-61274576D01*
X123461517Y-61274577D01*
X123236177Y-61000000D01*
X133344490Y-61000000D01*
X133364515Y-61382106D01*
X133424371Y-61760017D01*
X133424372Y-61760024D01*
X133523404Y-62129619D01*
X133660526Y-62486833D01*
X133834237Y-62827759D01*
X134042624Y-63148647D01*
X134042628Y-63148652D01*
X134042630Y-63148655D01*
X134283427Y-63446014D01*
X134553986Y-63716573D01*
X134851345Y-63957370D01*
X134851349Y-63957372D01*
X134851352Y-63957375D01*
X134881352Y-63976857D01*
X135172245Y-64165765D01*
X135513170Y-64339475D01*
X135870385Y-64476597D01*
X136239977Y-64575628D01*
X136239984Y-64575629D01*
X136243166Y-64576306D01*
X136242811Y-64577972D01*
X136299951Y-64604997D01*
X136336934Y-64664276D01*
X136341500Y-64697614D01*
X136341500Y-69413609D01*
X136339718Y-69429746D01*
X136339946Y-69429768D01*
X136339211Y-69437534D01*
X136341500Y-69510342D01*
X136341500Y-69541434D01*
X136342433Y-69548829D01*
X136342891Y-69554647D01*
X136344437Y-69603829D01*
X136344438Y-69603832D01*
X136350464Y-69624577D01*
X136354407Y-69643618D01*
X136357116Y-69665053D01*
X136357117Y-69665057D01*
X136357118Y-69665064D01*
X136371148Y-69700500D01*
X136375234Y-69710822D01*
X136377125Y-69716348D01*
X136389071Y-69757461D01*
X136390855Y-69763600D01*
X136401243Y-69781166D01*
X136401850Y-69782191D01*
X136410410Y-69799665D01*
X136418363Y-69819754D01*
X136422123Y-69826592D01*
X136420786Y-69827326D01*
X136441297Y-69884800D01*
X136441500Y-69891888D01*
X136441500Y-71859735D01*
X136421815Y-71926774D01*
X136413353Y-71938400D01*
X136305864Y-72069373D01*
X136305862Y-72069376D01*
X136217604Y-72234497D01*
X136163253Y-72413666D01*
X136163252Y-72413668D01*
X136144901Y-72600000D01*
X136163252Y-72786331D01*
X136163253Y-72786333D01*
X136217604Y-72965502D01*
X136305862Y-73130623D01*
X136305864Y-73130626D01*
X136424642Y-73275357D01*
X136569373Y-73394135D01*
X136569376Y-73394137D01*
X136725360Y-73477511D01*
X136734499Y-73482396D01*
X136892466Y-73530315D01*
X136913666Y-73536746D01*
X136913668Y-73536747D01*
X136930374Y-73538392D01*
X137100000Y-73555099D01*
X137286331Y-73536747D01*
X137465501Y-73482396D01*
X137630625Y-73394136D01*
X137761600Y-73286646D01*
X137825910Y-73259334D01*
X137840265Y-73258500D01*
X140861867Y-73258500D01*
X140928906Y-73278185D01*
X140970196Y-73322161D01*
X141041836Y-73450780D01*
X141041839Y-73450784D01*
X141041841Y-73450788D01*
X141284856Y-73805546D01*
X141284858Y-73805548D01*
X141284865Y-73805558D01*
X141536966Y-74109150D01*
X141559568Y-74136369D01*
X141863631Y-74440432D01*
X141863642Y-74440441D01*
X142194441Y-74715134D01*
X142194447Y-74715138D01*
X142194454Y-74715144D01*
X142549212Y-74958159D01*
X142924879Y-75167404D01*
X142924896Y-75167411D01*
X142924897Y-75167412D01*
X143316905Y-75340501D01*
X143318251Y-75341095D01*
X143725971Y-75477749D01*
X144144560Y-75576200D01*
X144570448Y-75635609D01*
X145000000Y-75655468D01*
X145429552Y-75635609D01*
X145855440Y-75576200D01*
X146274029Y-75477749D01*
X146681749Y-75341095D01*
X147075121Y-75167404D01*
X147450788Y-74958159D01*
X147805546Y-74715144D01*
X148136369Y-74440432D01*
X148440432Y-74136369D01*
X148715144Y-73805546D01*
X148958159Y-73450788D01*
X149167404Y-73075121D01*
X149341095Y-72681749D01*
X149477749Y-72274029D01*
X149576200Y-71855440D01*
X149635609Y-71429552D01*
X149651632Y-71082962D01*
X149674392Y-71016905D01*
X149692670Y-71002489D01*
X149656523Y-70946243D01*
X149651632Y-70917035D01*
X149635609Y-70570448D01*
X149576200Y-70144560D01*
X149477749Y-69725971D01*
X149341095Y-69318251D01*
X149337190Y-69309408D01*
X149167412Y-68924897D01*
X149167411Y-68924896D01*
X149167404Y-68924879D01*
X148958159Y-68549212D01*
X148715144Y-68194454D01*
X148715138Y-68194447D01*
X148715134Y-68194441D01*
X148440441Y-67863642D01*
X148440432Y-67863631D01*
X148136369Y-67559568D01*
X148136357Y-67559558D01*
X147805558Y-67284865D01*
X147805548Y-67284858D01*
X147805546Y-67284856D01*
X147450788Y-67041841D01*
X147450784Y-67041839D01*
X147450780Y-67041836D01*
X147075130Y-66832601D01*
X147075129Y-66832600D01*
X147075121Y-66832596D01*
X147075112Y-66832592D01*
X147075102Y-66832587D01*
X146681762Y-66658910D01*
X146681755Y-66658907D01*
X146274026Y-66522250D01*
X145855445Y-66423801D01*
X145855440Y-66423800D01*
X145429560Y-66364392D01*
X145429558Y-66364391D01*
X145429552Y-66364391D01*
X145000000Y-66344532D01*
X144570448Y-66364391D01*
X144570441Y-66364391D01*
X144570439Y-66364392D01*
X144144559Y-66423800D01*
X144144554Y-66423801D01*
X143725973Y-66522250D01*
X143318244Y-66658907D01*
X143318237Y-66658910D01*
X142924897Y-66832587D01*
X142924869Y-66832601D01*
X142549219Y-67041836D01*
X142549213Y-67041840D01*
X142194451Y-67284858D01*
X142194441Y-67284865D01*
X141863642Y-67559558D01*
X141863622Y-67559576D01*
X141559576Y-67863622D01*
X141559558Y-67863642D01*
X141284865Y-68194441D01*
X141284858Y-68194451D01*
X141041840Y-68549213D01*
X141041836Y-68549219D01*
X140832601Y-68924869D01*
X140832587Y-68924897D01*
X140658910Y-69318237D01*
X140658907Y-69318244D01*
X140522250Y-69725973D01*
X140423801Y-70144554D01*
X140423800Y-70144560D01*
X140364391Y-70570448D01*
X140344532Y-71000000D01*
X140364391Y-71429552D01*
X140364391Y-71429558D01*
X140364392Y-71429560D01*
X140416118Y-71800368D01*
X140405884Y-71869485D01*
X140359908Y-71922096D01*
X140293307Y-71941500D01*
X137882500Y-71941500D01*
X137815461Y-71921815D01*
X137769706Y-71869011D01*
X137758500Y-71817500D01*
X137758500Y-69686387D01*
X137760282Y-69670249D01*
X137760054Y-69670228D01*
X137760788Y-69662465D01*
X137760663Y-69658503D01*
X137758500Y-69589657D01*
X137758500Y-69558568D01*
X137757566Y-69551175D01*
X137757107Y-69545347D01*
X137755562Y-69496169D01*
X137749536Y-69475428D01*
X137745590Y-69456377D01*
X137742882Y-69434936D01*
X137724763Y-69389172D01*
X137722876Y-69383665D01*
X137709145Y-69336400D01*
X137698148Y-69317807D01*
X137689591Y-69300340D01*
X137681635Y-69280244D01*
X137681631Y-69280238D01*
X137677876Y-69273406D01*
X137679210Y-69272672D01*
X137658702Y-69215182D01*
X137658500Y-69208111D01*
X137658500Y-64697614D01*
X137678185Y-64630575D01*
X137730989Y-64584820D01*
X137756981Y-64576998D01*
X137756834Y-64576306D01*
X137760011Y-64575629D01*
X137760023Y-64575628D01*
X138129615Y-64476597D01*
X138486830Y-64339475D01*
X138827755Y-64165765D01*
X139148655Y-63957370D01*
X139446014Y-63716573D01*
X139716573Y-63446014D01*
X139957370Y-63148655D01*
X140165765Y-62827755D01*
X140339475Y-62486830D01*
X140476597Y-62129615D01*
X140575628Y-61760023D01*
X140635485Y-61382105D01*
X140655510Y-61000000D01*
X140635485Y-60617895D01*
X140575628Y-60239977D01*
X140476597Y-59870385D01*
X140339475Y-59513170D01*
X140165765Y-59172245D01*
X139959743Y-58854999D01*
X139957375Y-58851352D01*
X139957372Y-58851349D01*
X139957370Y-58851345D01*
X139716573Y-58553986D01*
X139446014Y-58283427D01*
X139148655Y-58042630D01*
X139148652Y-58042628D01*
X139148647Y-58042624D01*
X138827759Y-57834237D01*
X138486833Y-57660526D01*
X138129619Y-57523404D01*
X137760024Y-57424372D01*
X137760017Y-57424371D01*
X137382106Y-57364515D01*
X137073273Y-57348330D01*
X137007356Y-57325164D01*
X136999455Y-57315018D01*
X136955172Y-57343477D01*
X136926727Y-57348330D01*
X136617893Y-57364515D01*
X136239982Y-57424371D01*
X136239975Y-57424372D01*
X135870380Y-57523404D01*
X135513166Y-57660526D01*
X135172240Y-57834237D01*
X134851352Y-58042624D01*
X134553990Y-58283423D01*
X134553982Y-58283430D01*
X134283430Y-58553982D01*
X134283423Y-58553990D01*
X134042624Y-58851352D01*
X133834237Y-59172240D01*
X133660526Y-59513166D01*
X133523404Y-59870380D01*
X133424372Y-60239975D01*
X133424371Y-60239982D01*
X133364515Y-60617893D01*
X133344490Y-60999999D01*
X133344490Y-61000000D01*
X123236177Y-61000000D01*
X123071083Y-60798832D01*
X123071082Y-60798832D01*
X122821354Y-60532199D01*
X116353553Y-67000000D01*
X115646446Y-67000000D01*
X109178645Y-60532199D01*
X108928918Y-60798832D01*
X108928917Y-60798832D01*
X108538483Y-61274577D01*
X108538483Y-61274576D01*
X108179994Y-61774848D01*
X107854998Y-62297484D01*
X107854999Y-62297484D01*
X107564880Y-62840258D01*
X107310879Y-63400851D01*
X107094086Y-63976856D01*
X107094086Y-63976857D01*
X106915434Y-64565792D01*
X106775678Y-65165173D01*
X106675425Y-65772399D01*
X106675425Y-65772400D01*
X106615101Y-66384874D01*
X106594964Y-67000000D01*
X105900500Y-67000000D01*
X105900500Y-64435177D01*
X105891768Y-64391282D01*
X105891767Y-64391281D01*
X105891767Y-64391278D01*
X105858504Y-64341496D01*
X105858503Y-64341495D01*
X105808724Y-64308234D01*
X105808717Y-64308231D01*
X105764822Y-64299500D01*
X105764820Y-64299500D01*
X100635180Y-64299500D01*
X100635178Y-64299500D01*
X100591282Y-64308231D01*
X100591275Y-64308234D01*
X100541496Y-64341495D01*
X100541495Y-64341496D01*
X100508234Y-64391275D01*
X100508231Y-64391282D01*
X100499500Y-64435177D01*
X100499500Y-64435180D01*
X100499500Y-69564820D01*
X100499500Y-69564822D01*
X100499499Y-69564822D01*
X100100500Y-69564822D01*
X100100500Y-60178645D01*
X109532199Y-60178645D01*
X115999999Y-66646445D01*
X122467800Y-60178645D01*
X122467799Y-60178644D01*
X122201168Y-59928918D01*
X122201168Y-59928917D01*
X121725423Y-59538483D01*
X121725424Y-59538483D01*
X121225152Y-59179994D01*
X120702516Y-58854998D01*
X120702516Y-58854999D01*
X120159742Y-58564880D01*
X119599149Y-58310879D01*
X119023144Y-58094086D01*
X119023143Y-58094086D01*
X118434208Y-57915434D01*
X117834827Y-57775678D01*
X117227601Y-57675425D01*
X117227600Y-57675425D01*
X116615126Y-57615101D01*
X116000000Y-57594964D01*
X115384874Y-57615101D01*
X114772400Y-57675425D01*
X114772399Y-57675425D01*
X114165173Y-57775678D01*
X113565792Y-57915434D01*
X112976857Y-58094086D01*
X112976856Y-58094086D01*
X112400851Y-58310879D01*
X111840258Y-58564880D01*
X111297484Y-58854999D01*
X111297484Y-58854998D01*
X110774848Y-59179994D01*
X110274576Y-59538483D01*
X110274577Y-59538483D01*
X109798832Y-59928917D01*
X109798832Y-59928918D01*
X109532199Y-60178645D01*
X100100500Y-60178645D01*
X100100500Y-57224500D01*
X100120185Y-57157461D01*
X100172989Y-57111706D01*
X100224500Y-57100500D01*
X136920237Y-57100500D01*
X136987276Y-57120185D01*
G37*
G04 #@! TD.AperFunction*
M02*
