M48
; DRILL file {KiCad 7.0.8-7.0.8~ubuntu22.04.1} date 2024年03月20日 18時35分28秒
; FORMAT={-:-/ absolute / inch / decimal}
; #@! TF.CreationDate,2024-03-20T18:35:28+09:00
; #@! TF.GenerationSoftware,Kicad,Pcbnew,7.0.8-7.0.8~ubuntu22.04.1
; #@! TF.FileFunction,Plated,1,2,PTH
FMAT,2
INCH
; #@! TA.AperFunction,Plated,PTH,ComponentDrill
T1C0.0315
; #@! TA.AperFunction,Plated,PTH,ComponentDrill
T2C0.0354
; #@! TA.AperFunction,Plated,PTH,ComponentDrill
T3C0.0402
; #@! TA.AperFunction,Plated,PTH,ComponentDrill
T4C0.0433
; #@! TA.AperFunction,Plated,PTH,ViaDrill
T5C0.1181
; #@! TA.AperFunction,Plated,PTH,ComponentDrill
T6C0.1693
; #@! TA.AperFunction,Plated,PTH,ComponentDrill
T7C0.2165
%
G90
G05
T1
X4.252Y-3.4327
X4.252Y-3.7327
X4.685Y-3.189
X4.7835Y-3.189
X4.8819Y-3.189
X5.0394Y-3.0071
X5.0394Y-3.3071
X5.2165Y-3.189
X5.315Y-3.189
X5.3976Y-2.8583
X5.3976Y-2.9567
X5.4134Y-3.189
T2
X4.063Y-2.8858
X4.063Y-2.9858
T3
X4.0567Y-3.7795
X4.0567Y-3.8976
X4.0567Y-4.0157
T4
X4.8425Y-3.7008
X5.0394Y-3.7008
T5
X4.5669Y-2.6378
T6
X4.4882Y-3.5433
X5.3543Y-3.5433
T7
X5.3937Y-2.4016
X5.7087Y-2.7953
T0
M30
